<svg id="Layer_2" data-name="Layer 2" xmlns="http://www.w3.org/2000/svg" xmlns:xlink="http://www.w3.org/1999/xlink" viewBox="0 0 13.92 13.93"><defs><style>.cls-1{fill:url(#Adsız_degrade_12);}.cls-2{fill:url(#Adsız_degrade_12-2);}.cls-3{fill:url(#Adsız_degrade_12-3);}.cls-4{fill:url(#Adsız_degrade_12-4);}.cls-5{fill:url(#Adsız_degrade_12-5);}</style><linearGradient id="Adsız_degrade_12" x1="5.19" y1="6.02" x2="5.19" y2="8.78" gradientUnits="userSpaceOnUse"><stop offset="0" stop-color="#e9eb00"/><stop offset="0.77" stop-color="#e2ac00"/></linearGradient><linearGradient id="Adsız_degrade_12-2" x1="6.8" y1="5.56" x2="6.8" y2="8.2" xlink:href="#Adsız_degrade_12"/><linearGradient id="Adsız_degrade_12-3" x1="7.91" y1="5.15" x2="7.91" y2="8.67" xlink:href="#Adsız_degrade_12"/><linearGradient id="Adsız_degrade_12-4" x1="8.95" y1="5.75" x2="8.95" y2="8.56" xlink:href="#Adsız_degrade_12"/><linearGradient id="Adsız_degrade_12-5" x1="6.96" y1="1.67" x2="6.96" y2="12.27" xlink:href="#Adsız_degrade_12"/></defs><title>headphone 724</title><path class="cls-1" d="M6,8.36a.17.17,0,0,1-.13.21L5,8.77a.17.17,0,0,1-.2-.24,4.39,4.39,0,0,0,.41-1.91c-.06-.24-.22-.29-.34-.26s-.24.15-.18.38a.17.17,0,1,1-.34.08.62.62,0,1,1,1.2-.29,3.91,3.91,0,0,1-.31,1.81l.54-.13A.17.17,0,0,1,6,8.36Z"/><path class="cls-2" d="M7.53,7.36a.17.17,0,0,1-.13.21l-.15,0L7.34,8A.17.17,0,0,1,7,8.07l-.09-.39-.63.15a.17.17,0,0,1-.21-.2L6.44,5.7a.17.17,0,0,1,.34,0l.38,1.58.15,0A.17.17,0,0,1,7.53,7.36Zm-.89-.81-.17.89.36-.09Z"/><path class="cls-3" d="M8,5.3l.1,3.21A.15.15,0,0,1,8,8.66H8a.15.15,0,0,1-.15-.15l-.1-3.21a.15.15,0,1,1,.3,0Z"/><path class="cls-4" d="M9.56,5.93,9.41,8.4a.17.17,0,0,1-.13.16H9.23a.17.17,0,0,1-.16-.18L9.2,6.14l-.66.16A.17.17,0,0,1,8.46,6l.89-.22a.17.17,0,0,1,.15,0A.17.17,0,0,1,9.56,5.93Z"/><path class="cls-5" d="M12.39,6.79A5.35,5.35,0,0,0,7,1.67,5.35,5.35,0,0,0,1.53,6.79a1.07,1.07,0,0,0-.76,1V9.87a1.08,1.08,0,1,0,2.16,0V7.8a1.07,1.07,0,0,0-.82-1A4.78,4.78,0,0,1,7,2.25a4.77,4.77,0,0,1,4.85,4.52,1.07,1.07,0,0,0-.82,1V9.87a1.06,1.06,0,0,0,.76,1,.18.18,0,0,1-.11,0H9a.94.94,0,0,0-.92-.76H6.35a1,1,0,0,0-1,1v.2a1,1,0,0,0,1,1H8.06A.94.94,0,0,0,9,11.51h2.66a.8.8,0,0,0,.75-.63,1.07,1.07,0,0,0,.76-1V7.8A1.07,1.07,0,0,0,12.39,6.79Zm.17,1V9.87a.5.5,0,1,1-1,0V7.8a.5.5,0,1,1,1,0ZM2.36,7.8V9.87a.5.5,0,1,1-1,0V7.8a.5.5,0,1,1,1,0Zm5.71,3.88H6.35A.37.37,0,0,1,6,11.31v-.2a.37.37,0,0,1,.37-.37H8.06a.37.37,0,0,1,.37.37v.2A.37.37,0,0,1,8.06,11.69Z"/></svg>