<svg id="Layer_2" data-name="Layer 2" xmlns="http://www.w3.org/2000/svg" xmlns:xlink="http://www.w3.org/1999/xlink" viewBox="0 0 13.92 13.93"><defs><style>.cls-1{fill:url(#Adsız_degrade_12);}.cls-2{fill:url(#Adsız_degrade_12-2);}.cls-3{fill:url(#Adsız_degrade_12-3);}.cls-4{fill:url(#Adsız_degrade_12-4);}.cls-5{fill:url(#Adsız_degrade_12-5);}.cls-6{fill:url(#Adsız_degrade_12-6);}</style><linearGradient id="Adsız_degrade_12" x1="5.67" y1="2.45" x2="5.67" y2="13.93" gradientUnits="userSpaceOnUse"><stop offset="0" stop-color="#e9eb00"/><stop offset="0.77" stop-color="#e2ac00"/></linearGradient><linearGradient id="Adsız_degrade_12-2" x1="8.71" y1="0" x2="8.71" y2="10.26" xlink:href="#Adsız_degrade_12"/><linearGradient id="Adsız_degrade_12-3" x1="6.27" y1="4.36" x2="6.27" y2="7.93" xlink:href="#Adsız_degrade_12"/><linearGradient id="Adsız_degrade_12-4" x1="8.35" y1="3.76" x2="8.35" y2="7.18" xlink:href="#Adsız_degrade_12"/><linearGradient id="Adsız_degrade_12-5" x1="9.79" y1="3.24" x2="9.79" y2="7.78" xlink:href="#Adsız_degrade_12"/><linearGradient id="Adsız_degrade_12-6" x1="11.12" y1="4.01" x2="11.12" y2="7.65" xlink:href="#Adsız_degrade_12"/></defs><title>phone 247</title><path class="cls-1" d="M10,9.62a1.22,1.22,0,0,0-1.7,0l-.77.59a.94.94,0,0,1-.78.18C5.09,10,4.08,8.13,3.62,7a.92.92,0,0,1,.12-.92l.46-.6a1.23,1.23,0,0,0,0-1.71l-1-1a1.25,1.25,0,0,0-1.6-.1l-.09.07A3.78,3.78,0,0,0,0,6.2a8.8,8.8,0,0,0,2.7,5.17,8.93,8.93,0,0,0,3.92,2.42,4.09,4.09,0,0,0,1.08.15A4.19,4.19,0,0,0,11,12.32l.07-.08A1.25,1.25,0,0,0,11,10.62ZM2.93,7.34c.51,1.21,1.67,3.31,3.65,3.75A1.69,1.69,0,0,0,8,10.77l.79-.6,0,0a.5.5,0,0,1,.67,0l1,1a.49.49,0,0,1,0,.62l-.07.08a3.44,3.44,0,0,1-3.6,1.21,8.19,8.19,0,0,1-3.59-2.23A8.06,8.06,0,0,1,.77,6.11,3,3,0,0,1,1.94,3.36L2,3.29a.49.49,0,0,1,.61,0l1,1a.48.48,0,0,1,0,.68l-.5.65A1.67,1.67,0,0,0,2.93,7.34Z"/><path class="cls-2" d="M13.78,4.95A6.25,6.25,0,0,0,3.63,1.49a.37.37,0,0,0,0,.53.37.37,0,0,0,.25.13.41.41,0,0,0,.27-.09A5.5,5.5,0,0,1,12,9.66a.37.37,0,0,0-.08.28.37.37,0,0,0,.37.33.37.37,0,0,0,.29-.14A6.23,6.23,0,0,0,13.78,4.95Z"/><path class="cls-3" d="M7.34,7.38a.22.22,0,0,1-.17.27l-1.11.27a.22.22,0,0,1-.26-.31,5.67,5.67,0,0,0,.53-2.47c-.07-.3-.28-.37-.44-.33s-.31.19-.24.5a.22.22,0,1,1-.44.11A.8.8,0,1,1,6.77,5a5,5,0,0,1-.4,2.34l.7-.17A.22.22,0,0,1,7.34,7.38Z"/><path class="cls-4" d="M9.29,6.09a.22.22,0,0,1-.16.27l-.2,0,.12.5A.22.22,0,0,1,8.61,7l-.12-.5-.81.2a.22.22,0,0,1-.27-.26l.48-2.5a.22.22,0,0,1,.44,0l.49,2,.2,0A.22.22,0,0,1,9.29,6.09ZM8.13,5,7.91,6.19l.47-.11Z"/><path class="cls-5" d="M9.92,3.43,10,7.58a.19.19,0,0,1-.15.19h0a.19.19,0,0,1-.2-.19L9.53,3.45a.19.19,0,1,1,.39,0Z"/><path class="cls-6" d="M11.92,4.25l-.19,3.19a.22.22,0,0,1-.17.2h-.07a.22.22,0,0,1-.21-.24l.18-2.89-.85.21a.22.22,0,0,1-.11-.44L11.64,4a.22.22,0,0,1,.2,0A.22.22,0,0,1,11.92,4.25Z"/></svg>