<svg id="Layer_2" data-name="Layer 2" xmlns="http://www.w3.org/2000/svg" xmlns:xlink="http://www.w3.org/1999/xlink" viewBox="0 0 13.92 13.93"><defs><style>.cls-1{fill:url(#Adsız_degrade_12);}.cls-2{fill:url(#Adsız_degrade_12-2);}.cls-3{fill:url(#Adsız_degrade_12-3);}.cls-4{fill:url(#Adsız_degrade_12-4);}.cls-5{fill:url(#Adsız_degrade_2);}.cls-6{fill:url(#Adsız_degrade_2-2);}.cls-7{fill:url(#Adsız_degrade_12-5);}</style><linearGradient id="Adsız_degrade_12" x1="6.99" y1="4.78" x2="6.99" y2="7.55" gradientUnits="userSpaceOnUse"><stop offset="0" stop-color="#e9eb00"/><stop offset="0.77" stop-color="#e2ac00"/></linearGradient><linearGradient id="Adsız_degrade_12-2" x1="8.6" y1="4.32" x2="8.6" y2="6.97" xlink:href="#Adsız_degrade_12"/><linearGradient id="Adsız_degrade_12-3" x1="9.71" y1="3.92" x2="9.71" y2="7.44" xlink:href="#Adsız_degrade_12"/><linearGradient id="Adsız_degrade_12-4" x1="10.75" y1="4.51" x2="10.75" y2="7.33" xlink:href="#Adsız_degrade_12"/><linearGradient id="Adsız_degrade_2" x1="3.84" y1="-5.35" x2="3.84" y2="0.62" gradientTransform="translate(0 12)" xlink:href="#Adsız_degrade_12"/><linearGradient id="Adsız_degrade_2-2" x1="3.87" y1="-3.69" x2="3.87" y2="-1.13" gradientTransform="translate(0 12)" xlink:href="#Adsız_degrade_12"/><linearGradient id="Adsız_degrade_12-5" x1="7.99" y1="1.31" x2="7.99" y2="11.45" xlink:href="#Adsız_degrade_12"/></defs><title>whatsapp 724</title><path class="cls-1" d="M7.82,7.12a.17.17,0,0,1-.13.21l-.86.21a.17.17,0,0,1-.2-.24A4.39,4.39,0,0,0,7,5.39c-.06-.24-.22-.29-.34-.26s-.24.15-.18.38a.17.17,0,1,1-.34.08.62.62,0,1,1,1.2-.29,3.91,3.91,0,0,1-.31,1.81L7.61,7A.17.17,0,0,1,7.82,7.12Z"/><path class="cls-2" d="M9.33,6.12a.17.17,0,0,1-.13.21L9,6.37l.09.39a.17.17,0,0,1-.34.08l-.09-.39-.63.15a.17.17,0,0,1-.21-.2l.37-1.94a.17.17,0,0,1,.34,0L9,6l.15,0A.17.17,0,0,1,9.33,6.12Zm-.89-.81-.17.89.36-.09Z"/><path class="cls-3" d="M9.81,4.07l.1,3.22a.15.15,0,0,1-.11.15h0a.15.15,0,0,1-.15-.15l-.1-3.22a.15.15,0,1,1,.3,0Z"/><path class="cls-4" d="M11.36,4.7l-.15,2.47a.17.17,0,0,1-.13.16H11a.17.17,0,0,1-.16-.18L11,4.91l-.66.16a.17.17,0,0,1-.08-.34l.89-.22a.17.17,0,0,1,.15,0A.17.17,0,0,1,11.36,4.7Z"/><path class="cls-5" d="M5.95,7.52a3,3,0,0,0-4.21,0A2.93,2.93,0,0,0,.86,9.61h0A2.94,2.94,0,0,0,1.23,11L.87,12.62l1.63-.37a3,3,0,0,0,1.34.32h0a3,3,0,0,0,2.1-.87,2.93,2.93,0,0,0,0-4.19ZM3.84,12.1h0a2.52,2.52,0,0,1-1.2-.3l-.08,0L1.48,12l.24-1.07,0-.08a2.5,2.5,0,0,1,3.95-3,2.48,2.48,0,0,1,.74,1.76A2.51,2.51,0,0,1,3.84,12.1Z"/><path class="cls-6" d="M3,8.31H2.9a.25.25,0,0,0-.18.09A.76.76,0,0,0,2.48,9a1.32,1.32,0,0,0,.28.7,2.8,2.8,0,0,0,1.17,1c.58.23.69.18.82.17a.69.69,0,0,0,.46-.32.56.56,0,0,0,0-.32s-.06,0-.13-.08l-.47-.22c-.06,0-.11,0-.15,0s-.18.23-.22.27-.08.05-.15,0a1.86,1.86,0,0,1-.55-.34,2.11,2.11,0,0,1-.38-.48c0-.07,0-.1,0-.14l.11-.11A.44.44,0,0,0,3.4,9a.12.12,0,0,0,0-.12s-.15-.37-.21-.51h0C3.14,8.31,3.08,8.31,3,8.31Z"/><path class="cls-7" d="M8,1.31a5.07,5.07,0,0,0-5.07,5,.92.92,0,0,0,.58,0,4.5,4.5,0,1,1,3.44,4.38.82.82,0,0,0-.24.54A5.07,5.07,0,1,0,8,1.31Z"/></svg>