<svg xmlns="http://www.w3.org/2000/svg" xmlns:xlink="http://www.w3.org/1999/xlink" viewBox="0 0 11.54 14.84"><defs><style>.cls-1{fill:url(#Adsız_degrade_12);}.cls-2{fill:url(#Adsız_degrade_12-2);}</style><linearGradient id="Adsız_degrade_12" x1="5.77" x2="5.77" y2="14.84" gradientUnits="userSpaceOnUse"><stop offset="0" stop-color="#e9eb00"/><stop offset="0.77" stop-color="#e2ac00"/></linearGradient><linearGradient id="Adsız_degrade_12-2" x1="5.77" y1="7.81" x2="5.77" y2="12.51" xlink:href="#Adsız_degrade_12"/></defs><title>Ресурс 1</title><g id="Слой_2" data-name="Слой 2"><g id="Layer_2" data-name="Layer 2"><path class="cls-1" d="M11.39,6.5A3.71,3.71,0,0,0,10.06,6V4.29a4.3,4.3,0,0,0-8.59,0V6A3.83,3.83,0,0,0,.14,6.5.37.37,0,0,0,0,6.79v6.86A.39.39,0,0,0,.22,14a14.7,14.7,0,0,0,5.55.85A14.61,14.61,0,0,0,11.31,14a.38.38,0,0,0,.23-.34V6.79A.38.38,0,0,0,11.39,6.5ZM5.77,6.23a11.72,11.72,0,0,1,5,.77v6.39a15.62,15.62,0,0,1-5,.7,15.51,15.51,0,0,1-5-.7V7A11.72,11.72,0,0,1,5.77,6.23Zm3.54-.45a18.29,18.29,0,0,0-3.54-.29,18.33,18.33,0,0,0-3.55.29V4.29a3.55,3.55,0,0,1,7.09,0Z"/><path class="cls-2" d="M4.75,11.5a1,1,0,0,0,2,0V10.26a1.41,1.41,0,0,0,.43-1,1.44,1.44,0,1,0-2.46,1Zm.6-1.71a.69.69,0,1,1,1.11-.55.67.67,0,0,1-.28.55.38.38,0,0,0-.15.3V11.5a.25.25,0,0,1-.26.26.26.26,0,0,1-.27-.26V10.09A.36.36,0,0,0,5.35,9.79Z"/></g></g></svg>