<svg id="Capa_1" data-name="Capa 1" xmlns="http://www.w3.org/2000/svg" xmlns:xlink="http://www.w3.org/1999/xlink" viewBox="0 0 415.9 415.9"><defs><style>.cls-1{fill:url(#Adsız_degrade);}.cls-2{fill:url(#Adsız_degrade_2);}</style><linearGradient id="Adsız_degrade" x1="253.79" y1="364.72" x2="253.79" y2="134.4" gradientTransform="matrix(1, 0, 0, -1, 0, 417)" gradientUnits="userSpaceOnUse"><stop offset="0" stop-color="#e9eb00"/><stop offset="0.77" stop-color="#e2ac00"/></linearGradient><linearGradient id="Adsız_degrade_2" x1="207.9" y1="417" x2="207.9" y2="1.2" xlink:href="#Adsız_degrade"/></defs><title>check</title><path class="cls-1" d="M125.9,170.8A15.5,15.5,0,0,0,103,191.7l78.9,85.7c3.1,3.1,6.8,5.2,11,5.2h.5a14.36,14.36,0,0,0,11-4.7l199.5-199c6.3-6.3,6.3-16.2,0-21.9-6.3-6.3-16.2-6.3-21.9,0L193.8,244.5Z"/><path class="cls-2" d="M400.2,192.3A15.42,15.42,0,0,0,384.5,208c0,97.2-79.4,176.6-176.6,176.6S31.3,305.1,31.3,207.9,110.8,31.3,207.9,31.3a15.42,15.42,0,0,0,15.7-15.7A15.33,15.33,0,0,0,207.9,0C93.5,0,0,93.5,0,207.9S93.5,415.8,207.9,415.8s207.9-93.5,207.9-207.9A15.25,15.25,0,0,0,400.2,192.3Z"/></svg>