<svg id="Layer_2" data-name="Layer 2" xmlns="http://www.w3.org/2000/svg" xmlns:xlink="http://www.w3.org/1999/xlink" viewBox="0 0 13.21 16.01"><defs><style>.cls-1{fill:url(#Adsız_degrade_12);}.cls-2{fill:url(#Adsız_degrade_12-2);}</style><linearGradient id="Adsız_degrade_12" x1="6.6" y1="0.59" x2="6.6" y2="15.42" gradientUnits="userSpaceOnUse"><stop offset="0" stop-color="#e9eb00"/><stop offset="0.77" stop-color="#e2ac00"/></linearGradient><linearGradient id="Adsız_degrade_12-2" x1="6.6" y1="8.4" x2="6.6" y2="13.1" xlink:href="#Adsız_degrade_12"/></defs><title>lock</title><path class="cls-1" d="M12.23,7.08a4.13,4.13,0,0,0-1.33-.55V4.88a4.29,4.29,0,1,0-8.59,0V6.54A4.15,4.15,0,0,0,1,7.08a.38.38,0,0,0-.14.3v6.85a.37.37,0,0,0,.22.34,14.6,14.6,0,0,0,5.55.85,14.6,14.6,0,0,0,5.55-.85.38.38,0,0,0,.22-.34V7.38A.38.38,0,0,0,12.23,7.08ZM6.6,6.82c3.19,0,4.59.55,5,.77V14a15.65,15.65,0,0,1-5,.7,15.65,15.65,0,0,1-5-.7V7.59C2,7.37,3.42,6.82,6.6,6.82Zm3.54-.46A18.81,18.81,0,0,0,6.6,6.07a18.81,18.81,0,0,0-3.54.29V4.88a3.54,3.54,0,1,1,7.09,0Z"/><path class="cls-2" d="M5.59,12.09a1,1,0,1,0,2,0V10.84a1.42,1.42,0,0,0,.42-1,1.44,1.44,0,0,0-2.87,0,1.41,1.41,0,0,0,.42,1Zm.6-1.71a.68.68,0,0,1-.27-.54.69.69,0,1,1,1.38,0,.68.68,0,0,1-.27.54.38.38,0,0,0-.15.3v1.41a.27.27,0,0,1-.53,0V10.68A.38.38,0,0,0,6.19,10.38Z"/></svg>