<svg id="Layer_2" data-name="Layer 2" xmlns="http://www.w3.org/2000/svg" xmlns:xlink="http://www.w3.org/1999/xlink" viewBox="0 0 14.35 9.9"><defs><style>.cls-1{fill:url(#Adsız_degrade_12);}</style><linearGradient id="Adsız_degrade_12" x1="7.17" y1="0.29" x2="7.17" y2="9.62" gradientUnits="userSpaceOnUse"><stop offset="0" stop-color="#e9eb00"/><stop offset="0.77" stop-color="#e2ac00"/></linearGradient></defs><title>mail</title><path class="cls-1" d="M13.76.41h0l-.06,0-.06,0h0l-.09,0H.85l-.1,0h0L.65.36.59.4h0a.37.37,0,0,0-.1.25V9.24a.35.35,0,0,0,0,.06.38.38,0,0,0,0,.09l0,.06,0,.06h0l.07,0a.36.36,0,0,0,.2.07H13.49a.36.36,0,0,0,.19-.06l.07-.05h0l0,0,0-.07a.38.38,0,0,0,0-.08.35.35,0,0,0,0-.06V.66A.37.37,0,0,0,13.76.41ZM7.17,6.18,1.79,1H12.55ZM4.81,5,1.23,8.36V1.54Zm.54.52L6.91,7a.37.37,0,0,0,.26.1A.38.38,0,0,0,7.43,7L9,5.47l3.56,3.4H1.79ZM9.54,5l3.57-3.41V8.36Z"/></svg>