<svg id="Layer_2" data-name="Layer 2" xmlns="http://www.w3.org/2000/svg" xmlns:xlink="http://www.w3.org/1999/xlink" viewBox="0 0 12.32 12.68"><defs><style>.cls-1{fill:url(#Adsız_degrade_12);}</style><linearGradient id="Adsız_degrade_12" x1="6.16" y1="0.6" x2="6.16" y2="12.08" gradientUnits="userSpaceOnUse"><stop offset="0" stop-color="#e9eb00"/><stop offset="0.77" stop-color="#e2ac00"/></linearGradient></defs><title>phone</title><path class="cls-1" d="M11.49,8.77l-1-1a1.22,1.22,0,0,0-1.7,0L8,8.33a.94.94,0,0,1-.78.18C5.58,8.14,4.56,6.27,4.1,5.19a.92.92,0,0,1,.12-.92l.47-.61A1.23,1.23,0,0,0,4.67,2l-1-1a1.24,1.24,0,0,0-1.6-.1L2,.91A3.78,3.78,0,0,0,.5,4.34a8.8,8.8,0,0,0,2.7,5.17,8.93,8.93,0,0,0,3.92,2.43,4.18,4.18,0,0,0,4.39-1.47l.06-.08A1.24,1.24,0,0,0,11.49,8.77ZM3.41,5.49C3.93,6.7,5.09,8.8,7.07,9.24a1.69,1.69,0,0,0,1.4-.32l.79-.6,0,0a.49.49,0,0,1,.67,0l1,1a.49.49,0,0,1,0,.62l-.06.08a3.45,3.45,0,0,1-3.61,1.21A8.19,8.19,0,0,1,3.74,9,8.07,8.07,0,0,1,1.25,4.25,3,3,0,0,1,2.42,1.5l.09-.07a.46.46,0,0,1,.28-.09.47.47,0,0,1,.33.13l1,1a.48.48,0,0,1,0,.68l-.51.65A1.68,1.68,0,0,0,3.41,5.49Z"/></svg>