<svg id="Layer_2" data-name="Layer 2" xmlns="http://www.w3.org/2000/svg" xmlns:xlink="http://www.w3.org/1999/xlink" viewBox="0 0 14.56 16.32"><defs><style>.cls-1{fill:url(#Adsız_degrade_12);}</style><linearGradient id="Adsız_degrade_12" x1="7.28" y1="0.77" x2="7.28" y2="15.55" gradientUnits="userSpaceOnUse"><stop offset="0" stop-color="#e9eb00"/><stop offset="0.77" stop-color="#e2ac00"/></linearGradient></defs><title>profile</title><path class="cls-1" d="M13.37,13.35l-.62-.62a1.67,1.67,0,0,0-1.19-.49h-.83a.83.83,0,0,1-.58-.24l-.47-.47a.49.49,0,0,1-.15-.35V10l.29-.2a2.1,2.1,0,0,0,.82-1.67V7.33l.26-.17a1.12,1.12,0,0,0,.5-.93V5.38a.79.79,0,0,0-.71-.78V3.36A2.28,2.28,0,0,0,10,1.63,4,4,0,0,0,7.28.78a4.07,4.07,0,0,0-2.71.85,2.28,2.28,0,0,0-.7,1.73V4.6a.79.79,0,0,0-.71.78v.84a1.12,1.12,0,0,0,.5.93l.26.17V8.1a2.1,2.1,0,0,0,.82,1.67L5,10v1.19a.49.49,0,0,1-.15.35L4.42,12a.82.82,0,0,1-.58.24H3a1.68,1.68,0,0,0-1.19.49l-.62.62a1.67,1.67,0,0,0-.5,1.19v.63a.38.38,0,0,0,.75,0v-.63a.93.93,0,0,1,.28-.66l.62-.62A.93.93,0,0,1,3,13h.83a1.57,1.57,0,0,0,1.12-.46l.47-.47a1.24,1.24,0,0,0,.37-.88V10.4a3.62,3.62,0,0,0,1.49.34,3.62,3.62,0,0,0,1.49-.35v.76a1.24,1.24,0,0,0,.37.88l.47.47a1.59,1.59,0,0,0,1.12.46h.83a.93.93,0,0,1,.66.27l.63.63a.93.93,0,0,1,.27.66v.63a.37.37,0,0,0,.75,0v-.63A1.67,1.67,0,0,0,13.37,13.35ZM7.28,10A3.54,3.54,0,0,1,5.2,9.18,1.36,1.36,0,0,1,4.67,8.1v-1a.38.38,0,0,0-.17-.31l-.43-.29a.37.37,0,0,1-.16-.31V5.38a0,0,0,0,1,0,0H4l.22,0A.37.37,0,0,0,4.62,5V3.36a1.56,1.56,0,0,1,.46-1.18,3.44,3.44,0,0,1,2.18-.65h0a3.37,3.37,0,0,1,2.17.65,1.56,1.56,0,0,1,.46,1.18V5a.37.37,0,0,0,.44.37l.22,0h0a0,0,0,0,1,0,0v.84a.37.37,0,0,1-.16.31L10,6.81a.38.38,0,0,0-.17.31v1a1.36,1.36,0,0,1-.53,1.08A3.53,3.53,0,0,1,7.28,10Z"/></svg>