<svg id="katman_1" data-name="katman 1" xmlns="http://www.w3.org/2000/svg" viewBox="0 0 480 480"><defs><style>.cls-1{fill:#f7f7f7;}</style></defs><title>play</title><path class="cls-1" d="M240,0C107.45,0,0,107.45,0,240S107.45,480,240,480,480,372.55,480,240,372.48.15,240,0Zm0,464C116.29,464,16,363.71,16,240S116.29,16,240,16,464,116.29,464,240,363.65,463.86,240,464Z"/><path class="cls-1" d="M197,129.79A8,8,0,0,0,184,136V344a8,8,0,0,0,13,6.21l128-104a8,8,0,0,0,0-12.41Zm3,197.41V152.8L307.31,240Z"/></svg>