<svg id="Ñëîé_1" data-name="Ñëîé 1" xmlns="http://www.w3.org/2000/svg" viewBox="0 0 566.93 283.46"><defs><style>.cls-1{fill:#9d9d9c;}</style></defs><title>background 1</title><rect class="cls-1" x="557.45" y="225.2" width="7.03" height="23.45"/><rect class="cls-1" x="542.45" y="200.28" width="7.03" height="35.63"/><rect class="cls-1" x="527.45" y="225.2" width="7.03" height="9.57"/><rect class="cls-1" x="512.45" y="221.06" width="7.03" height="31.72"/><rect class="cls-1" x="497.45" y="212.17" width="7.03" height="17.78"/><rect class="cls-1" x="482.45" y="185.41" width="7.03" height="35.63"/><rect class="cls-1" x="467.45" y="169.54" width="7.03" height="35.63"/><rect class="cls-1" x="452.45" y="180.45" width="7.03" height="35.63"/><rect class="cls-1" x="437.45" y="172.5" width="7.03" height="9.9"/><rect class="cls-1" x="422.45" y="166.57" width="7.03" height="35.63"/><rect class="cls-1" x="407.45" y="154.68" width="7.03" height="17.76"/><rect class="cls-1" x="392.45" y="141.79" width="7.03" height="35.63"/><rect class="cls-1" x="377.45" y="119.98" width="7.03" height="21.81"/><rect class="cls-1" x="362.45" y="83.34" width="7.03" height="35.63"/><rect class="cls-1" x="347.45" y="101.18" width="7.03" height="35.63"/><rect class="cls-1" x="332.45" y="139.78" width="7.03" height="7.99"/><rect class="cls-1" x="317.45" y="115.06" width="7.03" height="35.63"/><rect class="cls-1" x="302.45" y="154.68" width="7.03" height="27.76"/><rect class="cls-1" x="287.45" y="160.66" width="7.03" height="35.63"/><rect class="cls-1" x="272.45" y="142.79" width="7.03" height="23.79"/><rect class="cls-1" x="257.45" y="124.97" width="7.03" height="35.63"/><rect class="cls-1" x="242.45" y="102.17" width="7.03" height="35.63"/><rect class="cls-1" x="227.45" y="97.21" width="7.03" height="7.87"/><rect class="cls-1" x="212.45" y="72.43" width="7.03" height="35.62"/><rect class="cls-1" x="197.45" y="97.21" width="7.03" height="35.63"/><rect class="cls-1" x="182.45" y="114.23" width="7.03" height="15.47"/><rect class="cls-1" x="167.45" y="99.2" width="7.03" height="35.63"/><rect class="cls-1" x="152.45" y="115.06" width="7.03" height="35.63"/><rect class="cls-1" x="137.45" y="143.78" width="7.03" height="11.9"/><rect class="cls-1" x="122.45" y="135.88" width="7.03" height="35.63"/><rect class="cls-1" x="107.45" y="121.97" width="7.03" height="27.76"/><rect class="cls-1" x="92.45" y="132.84" width="7.03" height="7.99"/><rect class="cls-1" x="77.45" y="100.19" width="7.03" height="35.63"/><rect class="cls-1" x="62.45" y="90.21" width="7.03" height="21.87"/><rect class="cls-1" x="47.45" y="99.2" width="7.03" height="35.63"/><rect class="cls-1" x="32.45" y="66.48" width="7.03" height="35.63"/><rect class="cls-1" x="17.45" y="90.24" width="7.03" height="23.79"/><rect class="cls-1" x="2.45" y="54.59" width="7.03" height="35.63"/><path class="cls-1" d="M612.93,261l-55.42-69.26a2.57,2.57,0,0,0-1.47-3.89,2.59,2.59,0,0,0-2.24,4.59L502.54,178h0a2.58,2.58,0,0,0-2,.26l-38.29-59.36a2.59,2.59,0,1,0-3.45.21l-41.69,74.18a2.71,2.71,0,0,0-.47-.18,2.61,2.61,0,0,0-1.12-.06L370.24,67.57a2.61,2.61,0,1,0-2.74-.13L313.45,182.28a2.73,2.73,0,0,0-.67-.31,2.57,2.57,0,0,0-1.83.17L256.74,66.82a2.6,2.6,0,1,0-3.41-.17l-70.77,104a2.61,2.61,0,0,0-.56-.23,2.57,2.57,0,0,0-1-.09L164.77,80a2.6,2.6,0,1,0-2.75-.72L76.25,182.7a2.57,2.57,0,0,0-1-.53,2.6,2.6,0,0,0-2.39.52L23.08,107.55a2.54,2.54,0,0,0,1.13-1.48,2.59,2.59,0,1,0-4.73.6l-71.8,82.54.44.38,71.72-82.45a2.54,2.54,0,0,0,1.17.72,2.58,2.58,0,0,0,1.54,0l49.94,75.33a2.48,2.48,0,0,0-.41.83,2.59,2.59,0,1,0,4.57-.84L162.47,79.65a2.4,2.4,0,0,0,.77.39,2.76,2.76,0,0,0,1,.09l16.27,90.31A2.6,2.6,0,1,0,183,171L253.79,67a2.35,2.35,0,0,0,.62.29,2.58,2.58,0,0,0,1.82-.16l54.22,115.32a2.53,2.53,0,0,0-.88,1.31,2.59,2.59,0,1,0,4.34-1.1L368,67.72l.25.09a2.55,2.55,0,0,0,1.44,0L415,193.17a2.58,2.58,0,0,0,.26,4.89,2.59,2.59,0,0,0,2.36-4.48l41.7-74.19a3.39,3.39,0,0,0,.41.15,2.6,2.6,0,0,0,2.09-.31l38.28,59.34a2.54,2.54,0,0,0-.73,1.17,2.59,2.59,0,1,0,3.75-1.56l51.24,14.57a2.07,2.07,0,0,0,.31.13,2.59,2.59,0,0,0,2.51-.65l55.34,69.16Z"/><path class="cls-1" d="M596.61,271.55,541,200.69a2.69,2.69,0,0,1,.32.67,2.59,2.59,0,1,1-4-1.38l-51.05-95.6h0a2.53,2.53,0,0,1-2-.27l-38.42,59.27a2.8,2.8,0,0,1,.66,1.11,2.59,2.59,0,1,1-4.11-1.33L400.86,88.9a2.08,2.08,0,0,1-.45.17,2.5,2.5,0,0,1-1.12.06L353.74,214.47a2.59,2.59,0,1,1-3.77,3,2.59,2.59,0,0,1,1-2.83L297.2,99.65a2.41,2.41,0,0,1-.67.3,2.61,2.61,0,0,1-1.83-.17L240.24,215a2.59,2.59,0,1,1-3.4.16L166.29,111a2.85,2.85,0,0,1-.56.23,2.51,2.51,0,0,1-1,.09L148.31,201.6a2.59,2.59,0,1,1-3.33,3.15,2.57,2.57,0,0,1,.57-2.43L60,98.71a2.53,2.53,0,0,1-1,.52,2.61,2.61,0,0,1-2.39-.52l-50,75a2.59,2.59,0,1,1-3.59.88L-68.55,91.93l.44-.38,71.54,82.6a2.54,2.54,0,0,1,2.71-.67l50.1-75.23a2.56,2.56,0,0,1-.41-.82,2.59,2.59,0,1,1,4.56.85L146,201.93a2.6,2.6,0,0,1,1.75-.46L164.2,111.2a2.59,2.59,0,1,1,3.33-3.15,2.57,2.57,0,0,1-.77,2.61L237.3,214.79a2.86,2.86,0,0,1,.63-.28,2.54,2.54,0,0,1,1.82.18L294.21,99.47a2.66,2.66,0,0,1-.87-1.31,2.59,2.59,0,1,1,4.33,1.11l53.86,115.06.24-.1a2.59,2.59,0,0,1,1.44,0L398.73,89a2.59,2.59,0,1,1,3.47-3.09,2.57,2.57,0,0,1-.84,2.69l41.54,74.29a2.53,2.53,0,0,1,.4-.16,2.56,2.56,0,0,1,2.09.32l38.41-59.26a2.54,2.54,0,0,1-.72-1.17,2.59,2.59,0,1,1,3.74,1.57l51,95.53a2.07,2.07,0,0,1,.31-.12,2.56,2.56,0,0,1,2.52.66l55.48,70.95Z"/></svg>