<svg id="Layer_2" data-name="Layer 2" xmlns="http://www.w3.org/2000/svg" xmlns:xlink="http://www.w3.org/1999/xlink" viewBox="0 0 21.94 10.91"><defs><style>.cls-1{fill:url(#Adsız_degrade_12);}.cls-2{fill:url(#Adsız_degrade_12-2);}.cls-3{fill:url(#Adsız_degrade_12-3);}.cls-4{fill:url(#Adsız_degrade_12-4);}</style><linearGradient id="Adsız_degrade_12" x1="10.97" y1="0.85" x2="10.97" y2="9.91" gradientUnits="userSpaceOnUse"><stop offset="0" stop-color="#e9eb00"/><stop offset="0.77" stop-color="#e2ac00"/></linearGradient><linearGradient id="Adsız_degrade_12-2" x1="10.97" y1="2.65" x2="10.97" y2="8.1" xlink:href="#Adsız_degrade_12"/><linearGradient id="Adsız_degrade_12-3" x1="3.78" y1="0" x2="3.78" y2="6.33" xlink:href="#Adsız_degrade_12"/><linearGradient id="Adsız_degrade_12-4" x1="18.16" y1="4.55" x2="18.16" y2="10.91" xlink:href="#Adsız_degrade_12"/></defs><title>avantaj 4</title><path class="cls-1" d="M11,.85A4.53,4.53,0,1,0,15.5,5.38,4.54,4.54,0,0,0,11,.85Zm0,8.31a3.78,3.78,0,1,1,3.78-3.78A3.79,3.79,0,0,1,11,9.16Z"/><path class="cls-2" d="M10.63,4.14h.67a.43.43,0,0,1,.43.43.37.37,0,0,0,.75,0A1.18,1.18,0,0,0,11.35,3.4V3a.37.37,0,0,0-.75,0V3.4a1.18,1.18,0,0,0,0,2.35h.67a.43.43,0,0,1,0,.86h-.67a.43.43,0,0,1-.43-.43.37.37,0,1,0-.75,0A1.18,1.18,0,0,0,10.6,7.36v.37a.37.37,0,1,0,.75,0V7.36a1.18,1.18,0,0,0,0-2.36h-.67a.43.43,0,0,1,0-.86Z"/><path class="cls-3" d="M6,4H4.89a.37.37,0,0,0-.37.37v.87L1.09,3.15,4.51,1v.84a.37.37,0,0,0,.37.37h2.3a.37.37,0,0,0,0-.75H5.26V.37A.37.37,0,0,0,4.69.06L.18,2.83A.38.38,0,0,0,0,3.15a.37.37,0,0,0,.18.32l4.51,2.8a.37.37,0,0,0,.2.06A.37.37,0,0,0,5.26,6V4.78H6A.37.37,0,1,0,6,4Z"/><path class="cls-4" d="M21.77,7.44,17.25,4.61a.37.37,0,0,0-.57.32v1.2H15.9a.37.37,0,0,0,0,.75h1.15a.37.37,0,0,0,.37-.37V5.6l3.43,2.16L17.43,9.87V9a.37.37,0,0,0-.37-.37h-2.3a.37.37,0,1,0,0,.75h1.93v1.14a.37.37,0,0,0,.37.37.38.38,0,0,0,.2-.06l4.51-2.77a.37.37,0,0,0,0-.63Z"/></svg>