<svg id="Layer_2" data-name="Layer 2" xmlns="http://www.w3.org/2000/svg" xmlns:xlink="http://www.w3.org/1999/xlink" viewBox="0 0 27.95 25.73"><defs><style>.cls-1{fill:url(#Adsız_degrade_12);}</style><linearGradient id="Adsız_degrade_12" x1="13.97" x2="13.97" y2="25.73" gradientUnits="userSpaceOnUse"><stop offset="0" stop-color="#e9eb00"/><stop offset="0.77" stop-color="#e2ac00"/></linearGradient></defs><title>avantaj 3</title><path class="cls-1" d="M27.3,12.22h-.79V1.59a.65.65,0,1,0-1.29,0V12.22H23.36V4a.65.65,0,0,0-1.29,0v8.2H20.21V7.12a.65.65,0,1,0-1.29,0v5.1H17.05v-.61a.65.65,0,1,0-1.29,0v.61H1.29V.65A.64.64,0,1,0,0,.65V25.09a.64.64,0,1,0,1.29,0V13.51H3.15v8.2a.65.65,0,1,0,1.29,0v-8.2H6.31v4.88a.65.65,0,1,0,1.29,0V13.51H9.46v2.12a.64.64,0,1,0,1.29,0V13.51h1.86v.74a.65.65,0,1,0,1.29,0v-.74H27.3a.64.64,0,0,0,0-1.29Z"/></svg>