<svg id="Layer_2" data-name="Layer 2" xmlns="http://www.w3.org/2000/svg" xmlns:xlink="http://www.w3.org/1999/xlink" viewBox="0 0 20.81 16.8"><defs><style>.cls-1{fill:url(#Adsız_degrade_12);}.cls-2{fill:url(#Adsız_degrade_12-2);}.cls-3{fill:url(#Adsız_degrade_12-3);}.cls-4{fill:url(#Adsız_degrade_12-4);}</style><linearGradient id="Adsız_degrade_12" x1="13.74" y1="8.14" x2="13.74" y2="14.48" gradientUnits="userSpaceOnUse"><stop offset="0" stop-color="#e9eb00"/><stop offset="0.77" stop-color="#e2ac00"/></linearGradient><linearGradient id="Adsız_degrade_12-2" x1="14.64" y1="0" x2="14.64" y2="16.8" xlink:href="#Adsız_degrade_12"/><linearGradient id="Adsız_degrade_12-3" x1="5.09" y1="9.86" x2="5.09" y2="16.8" xlink:href="#Adsız_degrade_12"/><linearGradient id="Adsız_degrade_12-4" x1="3.14" y1="11.96" x2="3.14" y2="15.36" xlink:href="#Adsız_degrade_12"/></defs><title>avantaj 7</title><path class="cls-1" d="M14.14,12.85h-.8a.58.58,0,0,1-.58-.58.38.38,0,0,0-.75,0,1.33,1.33,0,0,0,1.33,1.33h0v.51a.37.37,0,0,0,.75,0V13.6h0a1.33,1.33,0,1,0,0-2.66h-.8a.58.58,0,0,1,0-1.16h.8a.58.58,0,0,1,.58.58.38.38,0,0,0,.75,0A1.33,1.33,0,0,0,14.14,9h0V8.51a.38.38,0,0,0-.75,0V9h0a1.33,1.33,0,0,0,0,2.66h.8a.58.58,0,1,1,0,1.16Z"/><path class="cls-2" d="M19.95,14.6a3.17,3.17,0,0,1-.11-.88,16.64,16.64,0,0,0-.57-3.64,10.52,10.52,0,0,0-3.41-4.85A.77.77,0,0,0,16,4.78a.79.79,0,0,0-.25-.57L17,2.3a.71.71,0,0,0-.6-1.1h-.19a2.79,2.79,0,0,0-2-1.21h-.83a2.79,2.79,0,0,0-2,1.21h-.19a.71.71,0,0,0-.6,1.1l1.2,1.91a.78.78,0,0,0-.25.57.77.77,0,0,0,.15.44,11.28,11.28,0,0,0-3.13,4,.37.37,0,0,0,0,.29.37.37,0,0,0,.2.2.35.35,0,0,0,.14,0,.37.37,0,0,0,.35-.23,10.8,10.8,0,0,1,3.2-4h2.7a10.19,10.19,0,0,1,3.45,4.69,15.91,15.91,0,0,1,.54,3.5c0,.68.07,1.1.33,1.36a3.2,3.2,0,0,1,.6.79,9.68,9.68,0,0,1-1-.12,9.86,9.86,0,0,0-1.46-.16,5.58,5.58,0,0,0-1.14.14,12.06,12.06,0,0,1-2.7.26A12.09,12.09,0,0,1,11,15.78a5.53,5.53,0,0,0-1.13-.14.37.37,0,0,0,0,.75,4.8,4.8,0,0,1,1,.13,12.85,12.85,0,0,0,2.84.27,12.82,12.82,0,0,0,2.85-.28,4.79,4.79,0,0,1,1-.13,9.45,9.45,0,0,1,1.31.14h0c.82.13,1.3.19,1.59,0a.57.57,0,0,0,.29-.43C20.87,15.6,20.23,14.88,19.95,14.6ZM15.22,4.74a0,0,0,0,1,0,0,0,0,0,0,1,0,0h-3a0,0,0,0,1,0,0,0,0,0,0,1,0,0ZM12.48,4,11.19,2h.32a.37.37,0,0,0,.31-.17s.7-1,1.5-1h.83c.8,0,1.49,1,1.5,1A.37.37,0,0,0,16,2h.32L15,4Z"/><path class="cls-3" d="M9.8,15.25a.38.38,0,0,0,.38-.37V13.33A.38.38,0,0,0,9.8,13H9.52V11.79a.37.37,0,0,0-.33-.37V10.24a.38.38,0,0,0-.37-.37H4.36a.38.38,0,0,0-.37.37v.42a3.09,3.09,0,0,0-.85-.13,3.14,3.14,0,1,0,1.2,6,.37.37,0,0,0,.35.24H9.15a.38.38,0,0,0,.38-.37V15.25ZM3.14,16a2.39,2.39,0,1,1,2.39-2.39A2.39,2.39,0,0,1,3.14,16Zm5.31-5.43v.8H5.31A3.15,3.15,0,0,0,4.73,11v-.36Zm1,3.09v.8H6.14a3.1,3.1,0,0,0,.12-.8H9.43ZM6.18,13a3.1,3.1,0,0,0-.31-.79h2.9V13Zm-.36,2.3h3V16H5.15A3.14,3.14,0,0,0,5.82,15.25Z"/><path class="cls-4" d="M2.93,12.92h.42a.25.25,0,0,1,.24.24.25.25,0,0,0,.5,0,.74.74,0,0,0-.7-.74v-.22a.25.25,0,0,0-.5,0v.22a.74.74,0,0,0,0,1.48h.42a.24.24,0,0,1,0,.49H2.93a.25.25,0,0,1-.24-.24.25.25,0,0,0-.5,0,.74.74,0,0,0,.7.74v.22a.25.25,0,0,0,.5,0v-.22a.74.74,0,0,0,0-1.48H2.93a.24.24,0,0,1,0-.49Z"/></svg>