<svg id="Layer_2" data-name="Layer 2" xmlns="http://www.w3.org/2000/svg" xmlns:xlink="http://www.w3.org/1999/xlink" viewBox="0 0 15.84 10.61"><defs><style>.cls-1{fill:url(#Adsız_degrade_12);}.cls-2{fill:url(#Adsız_degrade_12-2);}</style><linearGradient id="Adsız_degrade_12" x1="4.77" y1="2.95" x2="4.77" y2="8.73" gradientUnits="userSpaceOnUse"><stop offset="0" stop-color="#e9eb00"/><stop offset="0.77" stop-color="#e2ac00"/></linearGradient><linearGradient id="Adsız_degrade_12-2" x1="7.92" y1="0" x2="7.92" y2="10.61" xlink:href="#Adsız_degrade_12"/></defs><title>bitcoin 2</title><path class="cls-1" d="M4.55,3.27v.56h-.4V3.27a.32.32,0,1,0-.65,0v.56H3.19a.32.32,0,1,0,0,.65H3.5V7.2H3.19a.32.32,0,0,0,0,.65H3.5v.56a.32.32,0,1,0,.65,0V7.85h.4v.56a.32.32,0,1,0,.65,0V7.85h.32A1.17,1.17,0,0,0,6.68,6.68a1.14,1.14,0,0,0-.66-1,1.07,1.07,0,0,0,.2-.88,1.16,1.16,0,0,0-1-.91V3.27a.32.32,0,1,0-.65,0Zm-.4,2.89H5.51a.52.52,0,1,1,0,1H4.15Zm.93-.65H4.15v-1h.93a.52.52,0,0,1,.51.41.54.54,0,0,1,0,.1A.52.52,0,0,1,5.08,5.51Z"/><path class="cls-2" d="M15.52,5h-.73V2.82a.32.32,0,0,0-.32-.32h-.2V.32A.32.32,0,0,0,13.94,0H6.74a.32.32,0,0,0-.32.32V1.37a4.72,4.72,0,0,0-1.64-.31,4.77,4.77,0,0,0,0,9.55,4.71,4.71,0,0,0,2.17-.55v.22a.32.32,0,0,0,.32.32h7.2a.32.32,0,0,0,.32-.32V8.12h.73a.32.32,0,0,0,.32-.32V5.3A.32.32,0,0,0,15.52,5Zm-1.38,5H7.59v-.3A4.78,4.78,0,0,0,8.94,8.12h5.2ZM8.9,5.84A4.13,4.13,0,1,1,4.77,1.71,4.13,4.13,0,0,1,8.9,5.84Zm4.71-3.35H8.17a4.78,4.78,0,0,0-1.11-.82v-1h6.55ZM14.14,5H9.46A4.74,4.74,0,0,0,8.7,3.14h5.44Zm-4.59.86c0-.07,0-.14,0-.21h5.67V7.47h-6A4.72,4.72,0,0,0,9.55,5.84Z"/></svg>