<svg id="Layer_2" data-name="Layer 2" xmlns="http://www.w3.org/2000/svg" xmlns:xlink="http://www.w3.org/1999/xlink" viewBox="0 0 15.71 15.96"><defs><style>.cls-1{fill:url(#Adsız_degrade_12);}</style><linearGradient id="Adsız_degrade_12" x1="7.85" x2="7.85" y2="15.96" gradientUnits="userSpaceOnUse"><stop offset="0" stop-color="#e9eb00"/><stop offset="0.77" stop-color="#e2ac00"/></linearGradient></defs><title>hisse</title><path class="cls-1" d="M15.33,15.21h-1V4.85a1.22,1.22,0,0,0,.87-1.16,1.24,1.24,0,0,0-2.48,0,1.22,1.22,0,0,0,.31.82L10.38,8.92a1,1,0,0,0-.28,0,1.22,1.22,0,0,0-1,.51L7.47,8.81s0,0,0,0A1.24,1.24,0,0,0,5,8.78a1.15,1.15,0,0,0,.14.54L3,11.42a1.15,1.15,0,0,0-.58-.16A1.24,1.24,0,0,0,1.13,12.5,1.22,1.22,0,0,0,2,13.66v1.55H.75V.37A.37.37,0,0,0,0,.37V15.58A.37.37,0,0,0,.37,16h15a.38.38,0,0,0,0-.75ZM14,3.2a.49.49,0,1,1-.49.49A.49.49,0,0,1,14,3.2Zm-3.37,6.92a.49.49,0,1,1-.49-.49A.49.49,0,0,1,10.59,10.11Zm-.12,1.16a1.21,1.21,0,0,0,.55-2L13.58,5V15.21H10.47Zm-.75,0v3.93H6.61V9.94a1.22,1.22,0,0,0,.6-.43l1.65.57a.32.32,0,0,0,0,0A1.22,1.22,0,0,0,9.72,11.27Zm-7,2.38a1.22,1.22,0,0,0,.87-1.16A1.15,1.15,0,0,0,3.47,12l2.19-2.1.2.08v5.26H2.75Zm4-4.87a.49.49,0,1,1-.49-.49A.49.49,0,0,1,6.72,8.78ZM2.86,12.5A.49.49,0,1,1,2.37,12,.49.49,0,0,1,2.86,12.5Z"/></svg>