<svg id="Layer_2" data-name="Layer 2" xmlns="http://www.w3.org/2000/svg" xmlns:xlink="http://www.w3.org/1999/xlink" viewBox="0 0 101.6 107.84"><defs><style>.cls-1{fill:url(#Adsız_degrade_10);}.cls-2{fill:url(#Adsız_degrade_10-2);}.cls-3{fill:url(#Adsız_degrade_10-3);}.cls-4{fill:url(#Adsız_degrade_10-4);}</style><linearGradient id="Adsız_degrade_10" x1="65.5" y1="52.76" x2="65.5" y2="80.69" gradientUnits="userSpaceOnUse"><stop offset="0" stop-color="#666"/><stop offset="0.77" stop-color="#2a2a2a"/></linearGradient><linearGradient id="Adsız_degrade_10-2" x1="69.46" y1="16.94" x2="69.46" y2="90.89" xlink:href="#Adsız_degrade_10"/><linearGradient id="Adsız_degrade_10-3" x1="27.4" y1="60.37" x2="27.4" y2="90.89" xlink:href="#Adsız_degrade_10"/><linearGradient id="Adsız_degrade_10-4" x1="18.81" y1="69.61" x2="18.81" y2="84.56" xlink:href="#Adsız_degrade_10"/></defs><title>kazanc</title><path class="cls-1" d="M67.27,73.49H63.74a2.56,2.56,0,0,1-2.56-2.56,1.65,1.65,0,1,0-3.3,0,5.86,5.86,0,0,0,5.86,5.86h.11V79a1.65,1.65,0,0,0,3.3,0V76.8h.12a5.86,5.86,0,0,0,0-11.72H63.74a2.56,2.56,0,0,1,0-5.12h3.53a2.56,2.56,0,0,1,2.56,2.56,1.65,1.65,0,1,0,3.3,0,5.86,5.86,0,0,0-5.86-5.86h-.12V54.42a1.65,1.65,0,0,0-3.3,0v2.24h-.11a5.86,5.86,0,0,0,0,11.72h3.53a2.56,2.56,0,0,1,0,5.12Z"/><path class="cls-2" d="M92.81,81.21c-.29-.33-.41-2.37-.49-3.88a73.25,73.25,0,0,0-2.51-16C87,51.06,78.57,43.09,74.81,40a3.4,3.4,0,0,0,.68-2,3.46,3.46,0,0,0-1.11-2.52l5.29-8.39A3.14,3.14,0,0,0,77,22.25h-.86c-1.36-1.76-4.61-5.31-8.83-5.31H63.68c-4.21,0-7.47,3.55-8.83,5.31H54a3.14,3.14,0,0,0-2.66,4.82l5.29,8.4A3.46,3.46,0,0,0,55.52,38a3.4,3.4,0,0,0,.68,2C52.9,42.71,46,49.19,42.45,57.67a1.64,1.64,0,0,0,0,1.26,1.62,1.62,0,0,0,.89.89A1.52,1.52,0,0,0,44,60a1.64,1.64,0,0,0,1.53-1c3.83-9.23,12.2-16,14.07-17.45H71.44c2.11,1.63,12.27,10,15.17,20.67A70,70,0,0,1,89,77.56c.18,3,.29,4.82,1.46,6A14.08,14.08,0,0,1,93.11,87a42.62,42.62,0,0,1-4.29-.52,43.42,43.42,0,0,0-6.41-.71,24.55,24.55,0,0,0-5,.64,53.09,53.09,0,0,1-11.88,1.16,53.23,53.23,0,0,1-11.93-1.17,24.35,24.35,0,0,0-5-.63,1.65,1.65,0,1,0,0,3.3,21.13,21.13,0,0,1,4.42.59,56.57,56.57,0,0,0,12.48,1.21A56.42,56.42,0,0,0,78,89.67a21.11,21.11,0,0,1,4.38-.58,41.59,41.59,0,0,1,5.76.64l.14,0c3.6.57,5.71.86,7,.1A2.51,2.51,0,0,0,96.58,88C96.89,85.61,94,82.46,92.81,81.21ZM72,37.81a.19.19,0,0,1,.18.18.19.19,0,0,1-.18.19H59a.19.19,0,0,1-.18-.19.19.19,0,0,1,.18-.18Zm-12.08-3.3-5.64-9H55.7a1.64,1.64,0,0,0,1.38-.75s3.1-4.56,6.6-4.56h3.64c3.5,0,6.57,4.51,6.6,4.56a1.64,1.64,0,0,0,1.38.75h1.42l-5.64,9Z"/><path class="cls-3" d="M48.16,84.09a1.65,1.65,0,0,0,1.65-1.65V75.63A1.65,1.65,0,0,0,48.16,74H46.93V68.83a1.63,1.63,0,0,0-1.44-1.61V62a1.65,1.65,0,0,0-1.65-1.65H24.18A1.65,1.65,0,0,0,22.53,62v1.83a13.62,13.62,0,0,0-3.72-.57,13.8,13.8,0,1,0,5.28,26.55,1.64,1.64,0,0,0,1.53,1.06H45.27a1.65,1.65,0,0,0,1.65-1.65V84.09ZM18.8,87.59a10.5,10.5,0,1,1,10.5-10.5A10.52,10.52,0,0,1,18.8,87.59ZM42.18,63.67v3.51H28.38a13.87,13.87,0,0,0-2.55-1.91V63.67ZM46.5,77.28v3.51H32a13.66,13.66,0,0,0,.55-3.51H46.5ZM32.23,74a13.64,13.64,0,0,0-1.37-3.5H43.62V74ZM30.63,84.09h13v3.5h-16A13.81,13.81,0,0,0,30.63,84.09Z"/><path class="cls-4" d="M17.89,73.83h1.83a1.08,1.08,0,0,1,1.08,1.08,1.1,1.1,0,0,0,2.2,0,3.26,3.26,0,0,0-3.09-3.24v-1a1.1,1.1,0,0,0-2.2,0v1a3.26,3.26,0,0,0,.19,6.52h1.83a1.08,1.08,0,0,1,0,2.16H17.89a1.08,1.08,0,0,1-1.08-1.08,1.1,1.1,0,1,0-2.2,0,3.26,3.26,0,0,0,3.09,3.24v1a1.1,1.1,0,0,0,2.2,0v-1A3.26,3.26,0,0,0,19.72,76H17.89a1.08,1.08,0,0,1,0-2.16Z"/></svg>