<svg width="274" height="47" viewBox="0 0 274 47" fill="none" xmlns="http://www.w3.org/2000/svg">
<path d="M97.34 1L87.04 21.09L76.53 1H65.77L82.38 31.39V46.11H91.25V31.39L108.11 1H97.34Z" fill="#F7F7F7"/>
<path d="M122.46 1L101.65 46.12H110.58L114.74 36H129.11L133.11 46.12H143.24L122.46 1ZM126 28.06H118L122.1 18.06L126 28.06Z" fill="#F7F7F7"/>
<path d="M170.08 2.76029C167.3 1.52699 164.281 0.925881 161.24 1.0003H148V46.1003H157V31.1003H162.22C164.719 31.1658 167.205 30.713 169.52 29.7703C171.406 28.9737 173.075 27.7397 174.39 26.1703C175.563 24.7097 176.448 23.0403 177 21.2503C177.556 19.5073 177.842 17.6897 177.85 15.8603C177.934 13.0602 177.242 10.2915 175.85 7.8603C174.474 5.62655 172.466 3.85156 170.08 2.76029V2.76029ZM167.57 20.1903C167.045 20.8924 166.359 21.4582 165.57 21.8403C164.522 22.3138 163.379 22.5396 162.23 22.5003H157V9.63029H162.4C163.547 9.58335 164.689 9.79883 165.74 10.2603C166.505 10.6219 167.171 11.1641 167.68 11.8403C168.134 12.4801 168.472 13.1941 168.68 13.9503C168.875 14.5998 168.983 15.2724 169 15.9503C168.98 16.6295 168.865 17.3026 168.66 17.9503C168.428 18.7509 168.059 19.5054 167.57 20.1803V20.1903Z" fill="#F7F7F7"/>
<path d="M193.15 1H184.22V46.1H193.15V1Z" fill="#F7F7F7"/>
<path d="M201.81 46.11H210.73V28.34H227.49V19.77H210.73V9.63H229.98V1H201.81V46.11Z" fill="#181818"/>
<path d="M258.24 23.33L272.55 1H261.8L253.25 15.68L243.67 1H232.52L246.75 22.91L231.95 46.11H242.87L251.84 30.74L261.83 46.11H273.1L258.24 23.33Z" fill="#181818"/>
<path d="M20.08 30.6301L27.31 23.4102L35.35 31.7802L55.38 11.9102L62.28 18.8102L35.51 45.9002L20.08 30.6301Z" fill="#F7F7F7"/>
<path d="M43.1 16.3696L35.87 23.5996L27.83 15.2196L7.8 35.0896L0.899994 28.1896L27.66 1.09961L43.1 16.3696Z" fill="#181818"/>
<path d="M46.75 26.3997L46.91 12.1396L32.49 26.5596L46.75 26.3997Z" fill="#181818"/>
<path d="M16.88 20.6004L16.72 34.8604L31.15 20.4404L16.88 20.6004Z" fill="#F7F7F7"/>
</svg>
