<svg width="274" height="47" viewBox="0 0 274 47" fill="none" xmlns="http://www.w3.org/2000/svg">
<path d="M97.34 1L87.04 21.09L76.53 1H65.77L82.38 31.39V46.11H91.25V31.39L108.11 1H97.34Z" fill="#F7F7F7"/>
<path d="M122.46 1L101.65 46.12H110.58L114.74 36H129.11L133.11 46.12H143.24L122.46 1ZM126 28.06H118L122.1 18.06L126 28.06Z" fill="#F7F7F7"/>
<path d="M170.08 2.76C167.3 1.52669 164.281 0.925583 161.24 0.999998H148V46.1H157V31.1H162.22C164.719 31.1656 167.205 30.7127 169.52 29.77C171.406 28.9734 173.075 27.7394 174.39 26.17C175.563 24.7094 176.448 23.04 177 21.25C177.556 19.507 177.842 17.6894 177.85 15.86C177.934 13.0599 177.242 10.2912 175.85 7.86C174.474 5.62625 172.466 3.85126 170.08 2.76V2.76ZM167.57 20.19C167.045 20.8921 166.359 21.4579 165.57 21.84C164.522 22.3135 163.379 22.5393 162.23 22.5H157V9.63H162.4C163.547 9.58305 164.689 9.79853 165.74 10.26C166.505 10.6216 167.171 11.1638 167.68 11.84C168.134 12.4798 168.472 13.1938 168.68 13.95C168.875 14.5995 168.983 15.2721 169 15.95C168.98 16.6292 168.865 17.3023 168.66 17.95C168.428 18.7506 168.059 19.5051 167.57 20.18V20.19Z" fill="#F7F7F7"/>
<path d="M193.15 1H184.22V46.1H193.15V1Z" fill="#F7F7F7"/>
<path d="M201.81 46.11H210.73V28.34H227.49V19.77H210.73V9.63H229.98V1H201.81V46.11Z" fill="#E2AC00"/>
<path d="M258.24 23.33L272.55 1H261.8L253.25 15.68L243.67 1H232.52L246.75 22.91L231.95 46.11H242.87L251.84 30.74L261.83 46.11H273.1L258.24 23.33Z" fill="#E2AC00"/>
<path d="M20.08 30.63L27.31 23.41L35.35 31.78L55.38 11.91L62.28 18.81L35.51 45.9L20.08 30.63Z" fill="#F7F7F7"/>
<path d="M43.1 16.37L35.87 23.6L27.83 15.22L7.8 35.09L0.899994 28.19L27.66 1.1L43.1 16.37Z" fill="#E2AC00"/>
<path d="M46.75 26.4L46.91 12.14L32.49 26.56L46.75 26.4Z" fill="#E2AC00"/>
<path d="M16.88 20.6L16.72 34.86L31.15 20.44L16.88 20.6Z" fill="#F7F7F7"/>
</svg>
