<svg width="16" height="16" viewBox="0 0 16 16" fill="none" xmlns="http://www.w3.org/2000/svg">
<path d="M9.52 14.59C9.45037 14.6001 9.37964 14.6001 9.31 14.59C7.54823 14.3766 5.77459 14.2764 4 14.29C3.9337 14.29 3.87011 14.2637 3.82322 14.2168C3.77634 14.1699 3.75 14.1063 3.75 14.04C3.75 13.9737 3.77634 13.9101 3.82322 13.8632C3.87011 13.8163 3.9337 13.79 4 13.79C5.82783 13.7746 7.65482 13.8748 9.47 14.09C9.81 14.19 11.62 13.6 14.89 12.09C14.8969 12.0706 14.8969 12.0494 14.89 12.03C14.8962 12.0176 14.8994 12.0039 14.8994 11.99C14.8994 11.9761 14.8962 11.9624 14.89 11.95C14.7465 11.7482 14.5395 11.6001 14.3021 11.5294C14.0648 11.4588 13.8106 11.4695 13.58 11.56L10.94 12.56C10.6458 12.6653 10.3242 12.6653 10.03 12.56L8.64 12.11C8.60412 12.1047 8.56981 12.0917 8.53946 12.0719C8.50911 12.052 8.48344 12.0258 8.46423 11.995C8.44503 11.9643 8.43275 11.9297 8.42824 11.8937C8.42374 11.8577 8.42711 11.8212 8.43814 11.7866C8.44916 11.7521 8.46758 11.7203 8.4921 11.6936C8.51662 11.6669 8.54666 11.6458 8.58013 11.6319C8.61361 11.6179 8.64972 11.6114 8.68596 11.6128C8.7222 11.6142 8.7577 11.6235 8.79 11.64L10.18 12.09C10.3643 12.1556 10.5657 12.1556 10.75 12.09L13.39 11.09C13.7238 10.9582 14.0921 10.9418 14.4363 11.0432C14.7805 11.1447 15.081 11.3582 15.29 11.65C15.3408 11.7205 15.3754 11.8013 15.3913 11.8868C15.4073 11.9722 15.4041 12.0601 15.3822 12.1441C15.3602 12.2282 15.3199 12.3064 15.2642 12.3731C15.2085 12.4398 15.1388 12.4934 15.06 12.53C13 13.48 10.47 14.59 9.52 14.59Z" fill="#DFDFDF"/>
<path d="M10.44 12.14H6.56C6.49369 12.14 6.4301 12.1137 6.38322 12.0668C6.33634 12.0199 6.31 11.9563 6.31 11.89C6.31 11.8237 6.33634 11.7601 6.38322 11.7132C6.4301 11.6663 6.49369 11.64 6.56 11.64H10.41C10.4024 11.41 10.3069 11.1916 10.1432 11.0298C9.97956 10.868 9.7601 10.775 9.52999 10.77C9.01846 10.7592 8.50781 10.7225 8 10.66C7.62871 10.5962 7.26391 10.4991 6.91 10.37C6.35899 10.1478 5.77369 10.0226 5.18 10C4.32026 10.1933 3.55165 10.6728 3 11.36C2.95407 11.3997 2.89528 11.4213 2.83459 11.4208C2.7739 11.4203 2.71546 11.3978 2.67016 11.3574C2.62487 11.317 2.59581 11.2615 2.58842 11.2013C2.58103 11.141 2.59581 11.0802 2.63 11.03C2.68 10.97 3.97 9.51001 5.2 9.51001C5.83366 9.5316 6.45912 9.66008 7.04999 9.89001C7.37481 10.009 7.70942 10.0994 8.04999 10.16C8.55776 10.223 9.06844 10.2597 9.58 10.27C9.94432 10.2804 10.2902 10.4325 10.5442 10.6939C10.7981 10.9554 10.9401 11.3055 10.94 11.67C10.9416 11.7348 10.9296 11.7992 10.9047 11.8589C10.8797 11.9187 10.8424 11.9726 10.7952 12.0169C10.748 12.0613 10.692 12.0952 10.6307 12.1164C10.5695 12.1376 10.5045 12.1457 10.44 12.14Z" fill="#DFDFDF"/>
<path d="M2.57 15.52H2.48C2.41797 15.4969 2.36762 15.4501 2.34 15.39L0.600002 11.27C0.586761 11.2398 0.579621 11.2073 0.578994 11.1743C0.578367 11.1414 0.584265 11.1086 0.596347 11.0779C0.60843 11.0473 0.62646 11.0193 0.649398 10.9956C0.672336 10.9719 0.69973 10.953 0.730003 10.94L2.38 10.24C2.41019 10.2267 2.4427 10.2196 2.47566 10.219C2.50862 10.2184 2.54138 10.2242 2.57205 10.2363C2.60272 10.2484 2.6307 10.2664 2.65438 10.2894C2.67805 10.3123 2.69696 10.3397 2.71 10.37L4.45 14.49C4.46324 14.5202 4.47038 14.5527 4.47101 14.5856C4.47164 14.6186 4.46574 14.6514 4.45366 14.682C4.44158 14.7127 4.42355 14.7407 4.40061 14.7644C4.37767 14.788 4.35028 14.8069 4.32 14.82L2.67 15.52H2.57ZM1.15 11.28L2.7 14.95L3.89 14.45L2.34 10.78L1.15 11.28Z" fill="#DFDFDF"/>
<path d="M9.73 10.09C9.68654 10.0901 9.64381 10.0789 9.606 10.0575C9.5682 10.036 9.53664 10.0051 9.51443 9.96777C9.49222 9.93041 9.48013 9.88792 9.47935 9.84447C9.47858 9.80102 9.48914 9.75812 9.51 9.72C9.7412 9.28274 9.8607 8.7951 9.85787 8.30049C9.85503 7.80588 9.72994 7.31964 9.49374 6.88506C9.25754 6.45048 8.91755 6.08105 8.50404 5.80965C8.09053 5.53824 7.61633 5.3733 7.12365 5.32948C6.63098 5.28567 6.13511 5.36435 5.6802 5.55852C5.22529 5.7527 4.82544 6.05634 4.51626 6.44242C4.20708 6.82849 3.99815 7.28503 3.90808 7.77138C3.81801 8.25772 3.84958 8.7588 4 9.23C4.01225 9.26109 4.01814 9.29434 4.01733 9.32775C4.01651 9.36117 4.009 9.39408 3.99524 9.42454C3.98149 9.455 3.96176 9.4824 3.93723 9.50511C3.9127 9.52781 3.88387 9.54537 3.85244 9.55674C3.821 9.56811 3.78761 9.57306 3.75423 9.5713C3.72085 9.56954 3.68816 9.5611 3.6581 9.54649C3.62804 9.53187 3.60121 9.51138 3.57921 9.48622C3.55721 9.46106 3.54047 9.43174 3.53 9.4C3.32741 8.84176 3.26894 8.24144 3.35999 7.65461C3.45103 7.06777 3.68865 6.51339 4.05086 6.04278C4.41306 5.57218 4.88814 5.20055 5.43211 4.96231C5.97609 4.72408 6.57137 4.62692 7.16287 4.67985C7.75436 4.73278 8.32294 4.93408 8.81597 5.26511C9.30901 5.59614 9.71056 6.04621 9.98346 6.57364C10.2564 7.10108 10.3918 7.68884 10.3772 8.28252C10.3626 8.8762 10.1985 9.4566 9.9 9.97C9.88194 10.001 9.85741 10.0278 9.82808 10.0485C9.79874 10.0692 9.76529 10.0834 9.73 10.09Z" fill="#BABABA"/>
<path d="M7.4 9.67C7.34304 9.66824 7.28838 9.64708 7.24509 9.61001C7.20181 9.57295 7.17248 9.52221 7.16198 9.46619C7.15148 9.41018 7.16043 9.35226 7.18735 9.30203C7.21427 9.2518 7.25754 9.21227 7.31 9.19C7.39723 9.16094 7.47097 9.10123 7.51754 9.02195C7.56412 8.94267 7.58036 8.84919 7.56327 8.75884C7.54618 8.6685 7.49691 8.58741 7.42459 8.53062C7.35227 8.47383 7.26182 8.44519 7.16999 8.45H6.64C6.40661 8.45 6.18277 8.35729 6.01774 8.19226C5.85271 8.02722 5.75999 7.80339 5.75999 7.57C5.75999 7.33661 5.85271 7.11278 6.01774 6.94775C6.18277 6.78272 6.40661 6.69 6.64 6.69H7.16999C7.40338 6.69 7.62722 6.78272 7.79225 6.94775C7.95728 7.11278 8.05 7.33661 8.05 7.57C8.05 7.63631 8.02366 7.69989 7.97677 7.74678C7.92989 7.79366 7.8663 7.82 7.8 7.82C7.73369 7.82 7.6701 7.79366 7.62322 7.74678C7.57633 7.69989 7.55 7.63631 7.55 7.57C7.54746 7.47002 7.50662 7.37483 7.43589 7.30411C7.36517 7.23338 7.26998 7.19253 7.16999 7.19H6.64C6.53789 7.19 6.43996 7.23056 6.36776 7.30276C6.29556 7.37497 6.255 7.47289 6.255 7.575C6.255 7.67711 6.29556 7.77504 6.36776 7.84724C6.43996 7.91944 6.53789 7.96 6.64 7.96H7.16999C7.37612 7.95747 7.5766 8.02739 7.73645 8.15756C7.8963 8.28772 8.00538 8.46988 8.04467 8.67224C8.08395 8.87461 8.05094 9.08435 7.9514 9.26486C7.85186 9.44538 7.6921 9.58523 7.5 9.66L7.4 9.67Z" fill="#BABABA"/>
<path d="M6.10001 9.43C6.05863 9.43047 6.01779 9.42067 5.98114 9.40147C5.94449 9.38227 5.91317 9.35428 5.89001 9.32C5.79791 9.1769 5.74928 9.01017 5.75001 8.84C5.75001 8.77369 5.77635 8.7101 5.82323 8.66322C5.87012 8.61634 5.9337 8.59 6.00001 8.59C6.06631 8.59 6.1299 8.61634 6.17678 8.66322C6.22367 8.7101 6.25001 8.77369 6.25001 8.84C6.24903 8.91436 6.26989 8.98737 6.31001 9.05C6.34464 9.1047 6.3567 9.17071 6.34364 9.23413C6.33058 9.29754 6.29343 9.35342 6.24001 9.39C6.19835 9.41692 6.14961 9.43085 6.10001 9.43V9.43Z" fill="#BABABA"/>
<path d="M6.89 7.18C6.8237 7.18 6.76011 7.15366 6.71322 7.10677C6.66634 7.05989 6.64 6.9963 6.64 6.93V6.34C6.64 6.27369 6.66634 6.2101 6.71322 6.16322C6.76011 6.11634 6.8237 6.09 6.89 6.09C6.9563 6.09 7.01989 6.11634 7.06678 6.16322C7.11366 6.2101 7.14 6.27369 7.14 6.34V6.93C7.14 6.9963 7.11366 7.05989 7.06678 7.10677C7.01989 7.15366 6.9563 7.18 6.89 7.18Z" fill="#BABABA"/>
<path d="M14.14 2.46001C14.0737 2.46001 14.0101 2.43367 13.9632 2.38678C13.9163 2.3399 13.89 2.27631 13.89 2.21001C13.89 1.85001 12.54 1.32001 10.51 1.32001C8.48 1.32001 7.13 1.86001 7.13 2.21001C7.13 2.27631 7.10367 2.3399 7.05678 2.38678C7.0099 2.43367 6.94631 2.46001 6.88 2.46001C6.8137 2.46001 6.75011 2.43367 6.70323 2.38678C6.65634 2.3399 6.63 2.27631 6.63 2.21001C6.63 1.30001 8.58 0.820007 10.5 0.820007C12.42 0.820007 14.37 1.30001 14.37 2.21001C14.3702 2.27299 14.3466 2.33372 14.304 2.38007C14.2613 2.42642 14.2028 2.45497 14.14 2.46001Z" fill="#DFDFDF"/>
<path d="M10.52 5.29C10.0114 5.28913 9.50345 5.25237 9.00001 5.17999C8.94224 5.16314 8.89248 5.12602 8.85988 5.07544C8.82727 5.02486 8.81401 4.96421 8.82252 4.90464C8.83103 4.84506 8.86075 4.79056 8.90621 4.75113C8.95167 4.7117 9.00983 4.68999 9.07001 4.68999C9.5636 4.75934 10.0616 4.79276 10.56 4.79C12.56 4.79 13.94 4.24999 13.94 3.89999C13.94 3.83369 13.9663 3.7701 14.0132 3.72322C14.0601 3.67633 14.1237 3.64999 14.19 3.64999C14.2563 3.64999 14.3199 3.67633 14.3668 3.72322C14.4137 3.7701 14.44 3.83369 14.44 3.89999C14.39 4.80999 12.44 5.29 10.52 5.29Z" fill="#DFDFDF"/>
<path d="M10.52 6.99998C10.4537 6.99998 10.3901 6.97365 10.3432 6.92676C10.2963 6.87988 10.27 6.81629 10.27 6.74998C10.27 6.68368 10.2963 6.62009 10.3432 6.57321C10.3901 6.52632 10.4537 6.49998 10.52 6.49998C12.52 6.49998 13.9 5.95999 13.9 5.60999C13.9 5.54368 13.9263 5.48009 13.9732 5.43321C14.0201 5.38632 14.0837 5.35999 14.15 5.35999C14.2163 5.35999 14.2799 5.38632 14.3268 5.43321C14.3737 5.48009 14.4 5.54368 14.4 5.60999C14.39 6.49999 12.44 6.99998 10.52 6.99998Z" fill="#DFDFDF"/>
<path d="M10.67 8.65999C10.6037 8.65999 10.5401 8.63365 10.4932 8.58677C10.4463 8.53988 10.42 8.47629 10.42 8.40999C10.42 8.34368 10.4463 8.2801 10.4932 8.23321C10.5401 8.18633 10.6037 8.15999 10.67 8.15999C12.79 8.15999 13.9 7.55999 13.9 7.26999C13.9 7.20368 13.9263 7.1401 13.9732 7.09321C14.0201 7.04633 14.0837 7.01999 14.15 7.01999C14.2163 7.01999 14.2799 7.04633 14.3268 7.09321C14.3737 7.1401 14.4 7.20368 14.4 7.26999C14.4 8.18999 12.47 8.63999 10.68 8.65999H10.67Z" fill="#DFDFDF"/>
<path d="M10.52 10.35C10.4537 10.35 10.3901 10.3237 10.3432 10.2768C10.2963 10.2299 10.27 10.1663 10.27 10.1C10.27 10.0337 10.2963 9.9701 10.3432 9.92321C10.3901 9.87633 10.4537 9.84999 10.52 9.84999C12.52 9.84999 13.9 9.30999 13.9 8.95999V2.95999C12.5 3.84999 8.54999 3.84999 7.14999 2.95999V4.09999C7.14999 4.1663 7.12365 4.22989 7.07677 4.27677C7.02989 4.32365 6.9663 4.34999 6.89999 4.34999C6.83369 4.34999 6.7701 4.32365 6.72322 4.27677C6.67633 4.22989 6.64999 4.1663 6.64999 4.09999V2.20999C6.64999 2.14369 6.67633 2.0801 6.72322 2.03322C6.7701 1.98633 6.83369 1.95999 6.89999 1.95999C6.9663 1.95999 7.02989 1.98633 7.07677 2.03322C7.12365 2.0801 7.14999 2.14369 7.14999 2.20999C7.14999 2.56999 8.49999 3.09999 10.53 3.09999C12.56 3.09999 13.91 2.55999 13.91 2.20999C13.91 2.14369 13.9363 2.0801 13.9832 2.03322C14.0301 1.98633 14.0937 1.95999 14.16 1.95999C14.2263 1.95999 14.2899 1.98633 14.3368 2.03322C14.3837 2.0801 14.41 2.14369 14.41 2.20999V8.99999C14.39 9.86999 12.44 10.35 10.52 10.35Z" fill="#DFDFDF"/>
</svg>
