<svg id="Layer_2" data-name="Layer 2" xmlns="http://www.w3.org/2000/svg" xmlns:xlink="http://www.w3.org/1999/xlink" viewBox="0 0 11.36 11.49"><defs><style>.cls-1{fill:url(#Adsız_degrade_12);}</style><linearGradient id="Adsız_degrade_12" x1="5.68" x2="5.68" y2="11.49" gradientUnits="userSpaceOnUse"><stop offset="0" stop-color="#e9eb00"/><stop offset="0.77" stop-color="#e2ac00"/></linearGradient></defs><title>phone</title><path class="cls-1" d="M11,8.18l-1-1a1.22,1.22,0,0,0-1.7,0l-.77.59a.94.94,0,0,1-.78.18C5.1,7.54,4.08,5.68,3.62,4.6a.92.92,0,0,1,.12-.92l.47-.61a1.23,1.23,0,0,0,0-1.71l-1-1a1.24,1.24,0,0,0-1.6-.1L1.49.31A3.78,3.78,0,0,0,0,3.75a8.8,8.8,0,0,0,2.7,5.17,8.93,8.93,0,0,0,3.92,2.43A4.18,4.18,0,0,0,11,9.87l.06-.08A1.24,1.24,0,0,0,11,8.18ZM2.93,4.89C3.45,6.1,4.61,8.2,6.59,8.64A1.69,1.69,0,0,0,8,8.33l.79-.6,0,0a.49.49,0,0,1,.67,0l1,1a.49.49,0,0,1,0,.62l-.06.08a3.45,3.45,0,0,1-3.61,1.21A8.19,8.19,0,0,1,3.26,8.39,8.07,8.07,0,0,1,.77,3.66,3,3,0,0,1,1.95.91L2,.83A.46.46,0,0,1,2.32.75a.47.47,0,0,1,.33.13l1,1a.48.48,0,0,1,0,.68l-.51.65A1.68,1.68,0,0,0,2.93,4.89Z"/></svg>