<svg id="Layer_2" data-name="Layer 2" xmlns="http://www.w3.org/2000/svg" viewBox="0 0 289.8 289.8"><defs><style>.cls-2{fill:#434343;}</style></defs><title>playstore</title><path class="cls-2" d="M13.4,13.7a28.57,28.57,0,0,0-1.2,8V268.1a31.38,31.38,0,0,0,1.1,7.9L151.6,145C151.7,145,13.4,13.7,13.4,13.7Z"/><path class="cls-2" d="M205.6,93.9,44.2,4.1C37.8.2,31.4-.8,26.1.6L165,132.5Z"/><path class="cls-2" d="M265.1,127,222,103l-44.1,41.8,45,42.7,41.9-23C285.3,152.9,277.8,134.1,265.1,127Z"/><path class="cls-2" d="M25.6,289.1c5.4,1.5,11.9.6,18.5-3.4L206,196.8l-41.4-39.4C164.7,157.4,25.6,289.1,25.6,289.1Z"/></svg>