<svg id="Layer_2" data-name="Layer 2" xmlns="http://www.w3.org/2000/svg" xmlns:xlink="http://www.w3.org/1999/xlink" viewBox="0 0 13.17 14.77"><defs><style>.cls-1{fill:url(#Adsız_degrade_12);}</style><linearGradient id="Adsız_degrade_12" x1="6.59" x2="6.59" y2="14.77" gradientUnits="userSpaceOnUse"><stop offset="0" stop-color="#e9eb00"/><stop offset="0.77" stop-color="#e2ac00"/></linearGradient></defs><title>profile</title><path class="cls-1" d="M12.68,12.58,12.05,12a1.67,1.67,0,0,0-1.19-.49H10a.83.83,0,0,1-.58-.24L9,10.74a.49.49,0,0,1-.15-.35V9.2L9.12,9a2.1,2.1,0,0,0,.82-1.67V6.55l.26-.17a1.12,1.12,0,0,0,.5-.93V4.61A.79.79,0,0,0,10,3.82V2.58A2.28,2.28,0,0,0,9.29.85,4,4,0,0,0,6.59,0,4.07,4.07,0,0,0,3.88.85a2.28,2.28,0,0,0-.7,1.73V3.82a.79.79,0,0,0-.71.78v.84a1.12,1.12,0,0,0,.5.93l.26.17v.77A2.1,2.1,0,0,0,4.05,9l.29.2v1.19a.49.49,0,0,1-.15.35l-.47.47a.82.82,0,0,1-.58.24H2.31A1.68,1.68,0,0,0,1.12,12l-.62.62A1.67,1.67,0,0,0,0,13.77v.63a.38.38,0,0,0,.75,0v-.63A.93.93,0,0,1,1,13.11l.62-.62a.93.93,0,0,1,.66-.27h.83a1.57,1.57,0,0,0,1.12-.46l.47-.47a1.24,1.24,0,0,0,.37-.88V9.63A3.62,3.62,0,0,0,6.59,10a3.62,3.62,0,0,0,1.49-.35v.76a1.24,1.24,0,0,0,.37.88l.47.47a1.59,1.59,0,0,0,1.12.46h.83a.93.93,0,0,1,.66.27l.63.63a.93.93,0,0,1,.27.66v.63a.38.38,0,0,0,.75,0v-.63A1.67,1.67,0,0,0,12.68,12.58ZM6.59,9.22a3.54,3.54,0,0,1-2.08-.82A1.36,1.36,0,0,1,4,7.33v-1A.38.38,0,0,0,3.82,6l-.43-.29a.37.37,0,0,1-.16-.31V4.61a0,0,0,0,1,0,0h0l.22,0a.37.37,0,0,0,.44-.37V2.58A1.56,1.56,0,0,1,4.39,1.4,3.44,3.44,0,0,1,6.57.75h0a3.37,3.37,0,0,1,2.17.65,1.56,1.56,0,0,1,.46,1.18V4.24a.37.37,0,0,0,.44.37l.22,0h0a0,0,0,0,1,0,0v.84a.37.37,0,0,1-.16.31L9.36,6a.38.38,0,0,0-.17.31v1a1.36,1.36,0,0,1-.53,1.08A3.53,3.53,0,0,1,6.59,9.22Z"/></svg>