<svg id="Layer_2" data-name="Layer 2" xmlns="http://www.w3.org/2000/svg" xmlns:xlink="http://www.w3.org/1999/xlink" viewBox="0 0 101.6 107.84"><defs><style>.cls-1{fill:url(#Adsız_degrade_10);}.cls-2{fill:url(#Adsız_degrade_10-2);}.cls-3{fill:url(#Adsız_degrade_10-3);}.cls-4{fill:url(#Adsız_degrade_10-4);}</style><linearGradient id="Adsız_degrade_10" x1="31.16" y1="45.21" x2="31.16" y2="71.17" gradientUnits="userSpaceOnUse"><stop offset="0" stop-color="#666"/><stop offset="0.77" stop-color="#2a2a2a"/></linearGradient><linearGradient id="Adsız_degrade_10-2" x1="31.16" y1="37.81" x2="31.16" y2="78.57" xlink:href="#Adsız_degrade_10"/><linearGradient id="Adsız_degrade_10-3" x1="31.16" y1="31.91" x2="31.16" y2="84.47" xlink:href="#Adsız_degrade_10"/><linearGradient id="Adsız_degrade_10-4" x1="66.01" y1="23.37" x2="66.01" y2="82.83" xlink:href="#Adsız_degrade_10"/></defs><title>teminat</title><path class="cls-1" d="M29,52.66h4.4a.78.78,0,0,1,.78.78,2.2,2.2,0,1,0,4.41,0,5.19,5.19,0,0,0-5.18-5.19v-.84a2.21,2.21,0,1,0-4.41,0v.84a5.19,5.19,0,0,0-5.18,5.19V55.2A5.19,5.19,0,0,0,29,60.39h4.4a.78.78,0,0,1,.78.78v1.76a.78.78,0,0,1-.78.78H29a.78.78,0,0,1-.78-.78,2.21,2.21,0,1,0-4.41,0A5.19,5.19,0,0,0,29,68.13V69a2.21,2.21,0,0,0,4.41,0v-.84a5.19,5.19,0,0,0,5.18-5.19V61.18A5.19,5.19,0,0,0,33.36,56H29a.78.78,0,0,1-.78-.78V53.44A.78.78,0,0,1,29,52.66Z"/><path class="cls-2" d="M31.16,37.81A20.38,20.38,0,1,0,51.54,58.19,20.4,20.4,0,0,0,31.16,37.81Zm0,37.81A17.43,17.43,0,1,1,48.6,58.19,17.45,17.45,0,0,1,31.16,75.62Z"/><path class="cls-3" d="M57.45,58.19A26.28,26.28,0,1,0,31.16,84.47,26.32,26.32,0,0,0,57.45,58.19Zm-4.41,0A21.87,21.87,0,1,1,31.16,36.32,21.89,21.89,0,0,1,53,58.19Z"/><path class="cls-4" d="M94.51,31.23H87.88V25.57a2.21,2.21,0,0,0-2.21-2.21H37.51a2.21,2.21,0,0,0-2.21,2.21v4.85a2.21,2.21,0,1,0,4.41,0V27.78H83.46v3.45H46.36a2.21,2.21,0,0,0,0,4.41H92.31V39.1H55.24a2.2,2.2,0,1,0,0,4.41H83.46V47H58.19a2.21,2.21,0,0,0,0,4.41H86.41v3.45H60.12a2.21,2.21,0,0,0,0,4.41H82v3.45H60.15a2.2,2.2,0,1,0,0,4.41H87.89v3.45H58.19a2.21,2.21,0,0,0,0,4.41H84.94v3.45H50.07a2.21,2.21,0,0,0,0,4.41H87.15a2.21,2.21,0,0,0,2.21-2.21V75h.74a2.21,2.21,0,0,0,2.21-2.21V64.9a2.21,2.21,0,0,0-2.21-2.21H86.4V59.24h2.22A2.21,2.21,0,0,0,90.82,57V49.17A2.21,2.21,0,0,0,88.62,47h-.74V43.51h6.64a2.21,2.21,0,0,0,2.21-2.21V33.44A2.21,2.21,0,0,0,94.51,31.23Z"/></svg>