<svg id="Layer_2" data-name="Layer 2" xmlns="http://www.w3.org/2000/svg" xmlns:xlink="http://www.w3.org/1999/xlink" viewBox="0 0 15.4 13.98"><defs><style>.cls-1{fill:url(#Adsız_degrade_12);}.cls-2{fill:url(#Adsız_degrade_12-2);}.cls-3{fill:url(#Adsız_degrade_12-3);}.cls-4{fill:url(#Adsız_degrade_12-4);}.cls-5{fill:url(#Adsız_degrade_12-5);}</style><linearGradient id="Adsız_degrade_12" x1="7.7" x2="7.7" y2="13.98" gradientUnits="userSpaceOnUse"><stop offset="0" stop-color="#e9eb00"/><stop offset="0.77" stop-color="#e2ac00"/></linearGradient><linearGradient id="Adsız_degrade_12-2" x1="7.7" y1="4.23" x2="7.7" y2="5.37" xlink:href="#Adsız_degrade_12"/><linearGradient id="Adsız_degrade_12-3" x1="7.7" y1="3.44" x2="7.7" y2="6.09" xlink:href="#Adsız_degrade_12"/><linearGradient id="Adsız_degrade_12-4" x1="3.95" y1="3.44" x2="3.95" y2="6.09" xlink:href="#Adsız_degrade_12"/><linearGradient id="Adsız_degrade_12-5" x1="11.44" y1="3.44" x2="11.44" y2="6.09" xlink:href="#Adsız_degrade_12"/></defs><title>avantaj 5</title><path class="cls-1" d="M14.16,0H1.24A1.24,1.24,0,0,0,0,1.24v8.4a1.24,1.24,0,0,0,1.24,1.24H5.61A1.46,1.46,0,0,1,4,12.15H3.31a.38.38,0,0,0-.37.38v1.08a.38.38,0,0,0,.38.38h8.77a.38.38,0,0,0,.38-.37V12.53a.38.38,0,0,0-.37-.37h-.72a1.46,1.46,0,0,1-1.57-1.28h4.37A1.24,1.24,0,0,0,15.4,9.63V1.24A1.24,1.24,0,0,0,14.16,0ZM3.69,12.9H4a2.23,2.23,0,0,0,2.33-2H9a2.23,2.23,0,0,0,2.33,2h.35v.33h-8Zm11-4v.72a.49.49,0,0,1-.49.49H1.24a.49.49,0,0,1-.49-.49V8.91Zm0-7.67V8.16H.75V1.24A.49.49,0,0,1,1.24.75H14.16A.49.49,0,0,1,14.65,1.24Z"/><path class="cls-2" d="M7.33,5.3a.25.25,0,0,0,.35,0l.63-.63A.25.25,0,1,0,8,4.31l-.46.46-.08-.08A.25.25,0,1,0,7.07,5Z"/><path class="cls-3" d="M8.77,3.44H6.62a.25.25,0,0,0-.25.25V5.84a.25.25,0,0,0,.25.25H8.77A.25.25,0,0,0,9,5.84V3.69A.25.25,0,0,0,8.77,3.44ZM8.52,5.59H6.87V3.94H8.52Z"/><path class="cls-4" d="M5,3.44H2.88a.25.25,0,0,0-.25.25V5.84a.25.25,0,0,0,.25.25H5a.25.25,0,0,0,.25-.25V3.69A.25.25,0,0,0,5,3.44ZM4.78,5.59H3.13V3.94H4.78Z"/><path class="cls-5" d="M12.52,3.44H10.37a.25.25,0,0,0-.25.25V5.84a.25.25,0,0,0,.25.25h2.15a.25.25,0,0,0,.25-.25V3.69A.25.25,0,0,0,12.52,3.44Zm-.25,2.15H10.62V3.94h1.65Z"/></svg>