<svg id="Layer_2" data-name="Layer 2" xmlns="http://www.w3.org/2000/svg" xmlns:xlink="http://www.w3.org/1999/xlink" viewBox="0 0 15 13.05"><defs><style>.cls-1{fill:url(#Adsız_degrade_12);}.cls-2{fill:url(#Adsız_degrade_12-2);}.cls-3{fill:url(#Adsız_degrade_12-3);}</style><linearGradient id="Adsız_degrade_12" x1="12.95" y1="0.21" x2="12.95" y2="12.07" gradientUnits="userSpaceOnUse"><stop offset="0" stop-color="#e9eb00"/><stop offset="0.77" stop-color="#e2ac00"/></linearGradient><linearGradient id="Adsız_degrade_12-2" x1="2.04" y1="0" x2="2.04" y2="13.05" xlink:href="#Adsız_degrade_12"/><linearGradient id="Adsız_degrade_12-3" x1="7.5" y1="0.96" x2="7.5" y2="13.02" xlink:href="#Adsız_degrade_12"/></defs><title>avantaj 6</title><path class="cls-1" d="M13.31,4.79V.21h-.72V4.79H10.91v6.57h1.68v.71h.72v-.71H15V4.79Zm1,.72v5.13H11.63V5.51Z"/><path class="cls-2" d="M2.4,0H1.68V3.74H0v6.57H1.68V13H2.4V10.31H4.09V3.74H2.4Zm1,4.46V9.59H.72V4.46Z"/><path class="cls-3" d="M7.86,1H7.14V2.29H5.45V9.44H7.14V13h.72V9.44H9.54V2.29H7.86Zm1,2V8.72H6.17V3Z"/></svg>