<svg id="katman_1" data-name="katman 1" xmlns="http://www.w3.org/2000/svg" viewBox="0 0 100 27"><defs><style>.cls-1{fill:#bababa;}.cls-2{fill:#fff;}.cls-3{fill:#dfdfdf;}</style></defs><title>bitcoin</title><g id="layer1"><g id="g97"><g id="g99"><g id="g101"><path id="path103" class="cls-1" d="M21.4,16A10.23,10.23,0,0,1,9,23.3,10.16,10.16,0,0,1,14,3.6,10.32,10.32,0,0,1,21.4,16Z"/><g id="g105"><g id="g107"><path id="path109" class="cls-2" d="M16,12.1c.2-1.4-.8-2.1-2.2-2.6l.5-1.8-1.1-.3-.4,1.8L11.7,9l.4-1.8L11,6.9l-.5,1.8-.6-.1h0L8.4,8.1,8.1,9.3l.8.2a.5.5,0,0,1,.5.6l-.5,2.1h0l-.7,2.9a.55.55,0,0,1-.5.3l-.8-.2-.6,1.3,1.5.4.8.2L8.1,19l1.1.3.5-1.8.9.2-.5,1.8,1.1.3.5-1.9c1.9.4,3.3.2,3.9-1.5a2,2,0,0,0-.9-2.7h-.1A1.62,1.62,0,0,0,16,12.1Zm-2.6,3.5c-.3,1.4-2.7.6-3.4.4l.6-2.4c.8.2,3.2.6,2.8,2Zm.4-3.6c-.3,1.3-2.3.6-2.9.5l.6-2.2C12.1,10.4,14.1,10.7,13.8,12Z"/></g></g></g></g><g id="g111"><path id="path113" class="cls-3" d="M31.1,9.5a4.92,4.92,0,0,1,2.1.4,4.43,4.43,0,0,1,1.5,1.2,5.08,5.08,0,0,1,.9,1.8,7.61,7.61,0,0,1,.3,2.1,9,9,0,0,1-2.4,6.1A10.15,10.15,0,0,1,30.8,23a7.84,7.84,0,0,1-3.3.7h-.8a5.7,5.7,0,0,1-1.3-.1l-1.6-.3a5.23,5.23,0,0,1-1.6-.6L26.6,4l4-.6L29,10c.3-.1.7-.3,1-.4s.7-.1,1.1-.1Zm-3.3,11a4.71,4.71,0,0,0,1.7-.4,5.26,5.26,0,0,0,1.4-1.2,5.56,5.56,0,0,0,.9-1.7,6.28,6.28,0,0,0,.3-1.9,4.06,4.06,0,0,0-.4-1.9,1.49,1.49,0,0,0-1.5-.7c-.3,0-.6.1-.9.1a3.13,3.13,0,0,0-1,.5l-1.7,7h1.2Z"/><path id="path115" class="cls-3" d="M40,23.3H36.2L39.4,9.8h3.8ZM41.9,8.1a2.39,2.39,0,0,1-1.4-.5,1.54,1.54,0,0,1-.6-1.4,3.55,3.55,0,0,1,.2-1,1.56,1.56,0,0,1,.6-.8,2.18,2.18,0,0,1,.8-.5,3.55,3.55,0,0,1,1-.2,2.39,2.39,0,0,1,1.4.5,1.54,1.54,0,0,1,.6,1.4,3.55,3.55,0,0,1-.2,1,1.56,1.56,0,0,1-.6.8,5.55,5.55,0,0,1-.8.6,3.4,3.4,0,0,1-1,.1Z"/><path id="path117" class="cls-3" d="M46.6,6.4l4-.6-1,4h4.3l-.8,3.1H48.9l-1.1,4.7a4.25,4.25,0,0,0-.2,1.1,2.77,2.77,0,0,0,.1.9,1,1,0,0,0,.5.6,2.15,2.15,0,0,0,1.1.2,4.87,4.87,0,0,0,1.2-.1l1.2-.3.3,2.9a8.45,8.45,0,0,1-1.7.5,14.92,14.92,0,0,1-2.1.2,6.92,6.92,0,0,1-2.8-.5A3.16,3.16,0,0,1,44,21.7a5.22,5.22,0,0,1-.4-2.1,10.86,10.86,0,0,1,.4-2.5Z"/><path id="path119" class="cls-3" d="M53.7,17.9a9.6,9.6,0,0,1,.6-3.3,9.19,9.19,0,0,1,1.6-2.7,6.77,6.77,0,0,1,2.6-1.8,7.84,7.84,0,0,1,3.3-.7,14.92,14.92,0,0,1,2.1.2,5.78,5.78,0,0,1,1.7.6l-1.3,3c-.3-.1-.7-.3-1.1-.4a5.85,5.85,0,0,0-1.3-.2,3.8,3.8,0,0,0-3,1.3,4.91,4.91,0,0,0-1.1,3.5,3.94,3.94,0,0,0,.6,2.1,2.35,2.35,0,0,0,2.1.8,6.15,6.15,0,0,0,1.4-.1,5.64,5.64,0,0,0,1.2-.4l.3,3.1a9.83,9.83,0,0,1-1.6.5,7.49,7.49,0,0,1-2.1.2,6.46,6.46,0,0,1-2.7-.5,5.67,5.67,0,0,1-1.8-1.2,4.6,4.6,0,0,1-1-1.8,7.85,7.85,0,0,1-.5-2.2Z"/><path id="path121" class="cls-3" d="M70.6,23.7a6.72,6.72,0,0,1-2.4-.4,4.82,4.82,0,0,1-1.7-1.2,5.24,5.24,0,0,1-1-1.8,8.52,8.52,0,0,1-.3-2.3,11.15,11.15,0,0,1,.5-3.1,7.61,7.61,0,0,1,1.5-2.8,9.14,9.14,0,0,1,2.4-2,7.22,7.22,0,0,1,3.2-.8,6.72,6.72,0,0,1,2.4.4,4.82,4.82,0,0,1,1.7,1.2,5.24,5.24,0,0,1,1,1.8,8.33,8.33,0,0,1,.3,2.2,11.15,11.15,0,0,1-.5,3.1,10.49,10.49,0,0,1-1.4,2.8,7.78,7.78,0,0,1-2.4,2,6.29,6.29,0,0,1-3.3.9Zm1.9-11a2.69,2.69,0,0,0-1.5.5,3.78,3.78,0,0,0-1,1.2,7.74,7.74,0,0,0-.7,1.6,8.81,8.81,0,0,0-.2,1.7,4.48,4.48,0,0,0,.4,2,1.49,1.49,0,0,0,1.5.7,2.69,2.69,0,0,0,1.5-.5,6.28,6.28,0,0,0,1.1-1.2,11.11,11.11,0,0,0,.7-1.6,8.81,8.81,0,0,0,.2-1.7,4.48,4.48,0,0,0-.4-2,1.73,1.73,0,0,0-1.6-.7Z"/><path id="path123" class="cls-3" d="M82.4,23.3H78.6L81.8,9.8h3.8ZM84.2,8.1a2.39,2.39,0,0,1-1.4-.5,1.62,1.62,0,0,1-.6-1.5,3.55,3.55,0,0,1,.2-1,5.55,5.55,0,0,1,.6-.8,2.18,2.18,0,0,1,.8-.5,3.55,3.55,0,0,1,1-.2,2.39,2.39,0,0,1,1.4.5,1.42,1.42,0,0,1,.7,1.4,3.55,3.55,0,0,1-.2,1,1.56,1.56,0,0,1-.6.8,5.55,5.55,0,0,1-.8.6A2,2,0,0,1,84.2,8.1Z"/><path id="path125" class="cls-3" d="M88.4,10.4l1-.3c.3-.1.8-.2,1.2-.3A7.84,7.84,0,0,1,92,9.6a10.87,10.87,0,0,1,1.8-.1q3,0,4.2,1.8a6.18,6.18,0,0,1,.4,4.8l-1.8,7.3H92.7l1.7-7.1a5.85,5.85,0,0,0,.2-1.3,2.05,2.05,0,0,0,0-1.1,1.37,1.37,0,0,0-.5-.8,2.13,2.13,0,0,0-1.2-.3,7.72,7.72,0,0,0-1.5.2L88.9,23.5H85.1l3.3-13.1Z"/></g></g></g></svg>