<svg id="Layer_2" data-name="Layer 2" xmlns="http://www.w3.org/2000/svg" xmlns:xlink="http://www.w3.org/1999/xlink" viewBox="0 0 15.35 15.35"><defs><style>.cls-1{fill:url(#Adsız_degrade_12);}.cls-2{fill:url(#Adsız_degrade_12-2);}.cls-3{fill:url(#Adsız_degrade_12-3);}</style><linearGradient id="Adsız_degrade_12" x1="7.67" x2="7.67" y2="15.35" gradientUnits="userSpaceOnUse"><stop offset="0" stop-color="#e9eb00"/><stop offset="0.77" stop-color="#e2ac00"/></linearGradient><linearGradient id="Adsız_degrade_12-2" x1="7.96" y1="3.24" x2="7.96" y2="12.11" xlink:href="#Adsız_degrade_12"/><linearGradient id="Adsız_degrade_12-3" x1="7.96" y1="5" x2="7.96" y2="10.34" xlink:href="#Adsız_degrade_12"/></defs><title>doviz</title><path class="cls-1" d="M7.67,0A7.65,7.65,0,0,0,1,3.93L.72,3.24a.37.37,0,0,0-.69,0,.37.37,0,0,0,0,.29L.6,5s0,0,0,0a.34.34,0,0,0,0,.07l0,0,.09.05.1,0h0l.09,0h0l1.51-.48A.37.37,0,0,0,2.62,4a.37.37,0,0,0-.28,0l-.67.21a6.93,6.93,0,1,1-.36,6.22.38.38,0,0,0-.49-.19.37.37,0,0,0-.19.49A7.67,7.67,0,1,0,7.67,0Z"/><path class="cls-2" d="M12.39,7.67A4.43,4.43,0,1,0,8,12.11,4.44,4.44,0,0,0,12.39,7.67Zm-8.12,0A3.69,3.69,0,1,1,8,11.36,3.69,3.69,0,0,1,4.27,7.67Z"/><path class="cls-3" d="M7.63,6.48h.66a.41.41,0,0,1,.41.41.37.37,0,1,0,.75,0A1.16,1.16,0,0,0,8.33,5.74V5.38a.37.37,0,0,0-.75,0v.36A1.15,1.15,0,0,0,7.63,8h.66a.41.41,0,1,1,0,.82H7.63a.41.41,0,0,1-.41-.41.37.37,0,0,0-.75,0A1.16,1.16,0,0,0,7.59,9.61V10a.37.37,0,0,0,.75,0V9.61a1.15,1.15,0,0,0,0-2.31H7.63a.41.41,0,0,1,0-.82Z"/></svg>