<svg id="Layer_2" data-name="Layer 2" xmlns="http://www.w3.org/2000/svg" xmlns:xlink="http://www.w3.org/1999/xlink" viewBox="0 0 15.98 13.69"><defs><style>.cls-1{fill:url(#Adsız_degrade_12);}</style><linearGradient id="Adsız_degrade_12" x1="7.99" x2="7.99" y2="13.69" gradientUnits="userSpaceOnUse"><stop offset="0" stop-color="#e9eb00"/><stop offset="0.77" stop-color="#e2ac00"/></linearGradient></defs><title>headphone</title><path class="cls-1" d="M15,6.62A6.91,6.91,0,0,0,8,0,6.91,6.91,0,0,0,1,6.62,1.38,1.38,0,0,0,0,7.92v2.67a1.4,1.4,0,1,0,2.79,0V7.92A1.38,1.38,0,0,0,1.73,6.59,6.17,6.17,0,0,1,8,.75a6.17,6.17,0,0,1,6.26,5.84,1.38,1.38,0,0,0-1.06,1.33v2.67a1.38,1.38,0,0,0,1,1.31A.23.23,0,0,1,14,12H10.6a1.22,1.22,0,0,0-1.19-1H7.2A1.23,1.23,0,0,0,6,12.21v.26A1.23,1.23,0,0,0,7.2,13.69H9.42a1.22,1.22,0,0,0,1.19-1H14a1,1,0,0,0,1-.81,1.38,1.38,0,0,0,1-1.31V7.92A1.38,1.38,0,0,0,15,6.62Zm.23,1.31v2.67a.65.65,0,1,1-1.29,0V7.92a.65.65,0,1,1,1.29,0ZM2,7.92v2.67a.65.65,0,1,1-1.29,0V7.92A.65.65,0,1,1,2,7.92Zm7.37,5H7.2a.48.48,0,0,1-.48-.48v-.26a.48.48,0,0,1,.48-.48H9.42a.48.48,0,0,1,.48.48v.26A.48.48,0,0,1,9.42,12.94Z"/></svg>