<svg id="Capa_1" data-name="Capa 1" xmlns="http://www.w3.org/2000/svg" viewBox="0 0 129.8 126.9"><defs><style>.cls-1{fill:none;stroke:#a9a8a8;stroke-miterlimit:10;stroke-width:4px;}.cls-2{fill:#a9a8a8;}</style></defs><title>insta</title><rect class="cls-1" x="9.9" y="8.45" width="110.01" height="110" rx="14.17" ry="14.17"/><path class="cls-2" d="M84.52,32.46H45.28A11.37,11.37,0,0,0,33.92,43.82V83.07A11.38,11.38,0,0,0,45.28,94.43H84.52A11.38,11.38,0,0,0,95.89,83.07V43.82A11.37,11.37,0,0,0,84.52,32.46ZM64.9,83.85a20.4,20.4,0,1,1,20.4-20.4A20.42,20.42,0,0,1,64.9,83.85ZM86,47.27a4.83,4.83,0,1,1,4.83-4.83A4.83,4.83,0,0,1,86,47.27Z"/><path class="cls-2" d="M64.9,51.67A11.78,11.78,0,1,0,76.68,63.45,11.79,11.79,0,0,0,64.9,51.67Z"/></svg>