<svg id="Capa_1" data-name="Capa 1" xmlns="http://www.w3.org/2000/svg" viewBox="0 0 137.8 132.9"><defs><style>.cls-1{fill:#e2ac00;}.cls-2{fill:none;stroke:#e2ac00;stroke-miterlimit:10;stroke-width:4px;}</style></defs><title>linkedin hover</title><path class="cls-1" d="M100.18,73.21V96.33H86.77V74.75c0-5.42-1.94-9.12-6.79-9.12a7.33,7.33,0,0,0-6.88,4.9,9.18,9.18,0,0,0-.44,3.27V96.33H59.24s.18-36.55,0-40.33H72.65v5.72l-.09.13h.09v-.13a13.31,13.31,0,0,1,12.09-6.66c8.82,0,15.44,5.76,15.44,18.15Zm-55-36.64c-4.59,0-7.59,3-7.59,7s2.91,7,7.41,7h.09c4.68,0,7.58-3.1,7.58-7s-2.91-7-7.5-7ZM38.43,96.33H51.83V56H38.43Z"/><rect class="cls-2" x="13.9" y="11.45" width="110.01" height="110" rx="14.17" ry="14.17"/></svg>