<svg id="katman_1" data-name="katman 1" xmlns="http://www.w3.org/2000/svg" xmlns:xlink="http://www.w3.org/1999/xlink" viewBox="0 0 100 27"><defs><style>.cls-1{fill:url(#Adsız_degrade);}</style><linearGradient id="Adsız_degrade" x1="24.23" y1="-233.35" x2="71.6" y2="-176.91" gradientTransform="matrix(1, 0, 0, -1, 0, -192)" gradientUnits="userSpaceOnUse"><stop offset="0" stop-color="#dfdfdf"/><stop offset="1" stop-color="#bababa"/></linearGradient></defs><title>papara</title><path id="Logo" class="cls-1" d="M90.3,10.4a11.42,11.42,0,0,1-2.6.9l-1.5.4a3.15,3.15,0,0,0-1.7.9A3.36,3.36,0,0,0,84,14a2.27,2.27,0,0,0,.6,1.6,2.72,2.72,0,0,0,1.7.6,3.61,3.61,0,0,0,2.8-1,4,4,0,0,0,1-2.9V10.5h.2Zm1,8.2a7.54,7.54,0,0,1-2.9.9,24.58,24.58,0,0,1-2.8.2,7.39,7.39,0,0,1-4.1-1.3,5,5,0,0,1-1.8-4.3,4.44,4.44,0,0,1,1.6-4,9.79,9.79,0,0,1,4.1-1.6,2.2,2.2,0,0,0,.8-.1c.4-.1.7-.1,1-.2,1.9-.4,2.8-.9,2.8-1.8a1.3,1.3,0,0,0-1-1.3,6.28,6.28,0,0,0-1.9-.3,4.53,4.53,0,0,0-1.6.3,1.65,1.65,0,0,0-1,1H80.1a5.2,5.2,0,0,1,1.8-3.4,6.93,6.93,0,0,1,5-1.5,10,10,0,0,1,5.5,1.2,4.18,4.18,0,0,1,1.9,3.7v6.1a7.62,7.62,0,0,1-.9,4.2,5,5,0,0,1-2.1,2.2Zm-21.4.7V10.8a11.08,11.08,0,0,1,.8-4.4,6.5,6.5,0,0,1,2.1-2.8,7.09,7.09,0,0,1,2.9-1.4,13.32,13.32,0,0,1,3.4-.5h.6V6.5H78.2a3.94,3.94,0,0,0-2.8.9,3.89,3.89,0,0,0-.9,2.9v9.1l-4.6-.1ZM65,10.4a11.42,11.42,0,0,1-2.6.9l-1.5.4a3.15,3.15,0,0,0-1.7.9,3.36,3.36,0,0,0-.5,1.4,2.27,2.27,0,0,0,.6,1.6,2.72,2.72,0,0,0,1.7.6,3.61,3.61,0,0,0,2.8-1,4,4,0,0,0,1-2.9Zm1,8.2a7.54,7.54,0,0,1-2.9.9,24.58,24.58,0,0,1-2.8.2,7.39,7.39,0,0,1-4.1-1.3,5,5,0,0,1-1.8-4.3,4.44,4.44,0,0,1,1.6-4,9.79,9.79,0,0,1,4.1-1.6,2.2,2.2,0,0,0,.8-.1c.4-.1.7-.1,1-.2,1.9-.3,2.9-.9,2.9-1.7a1.3,1.3,0,0,0-1-1.3,6.28,6.28,0,0,0-1.9-.3,4.53,4.53,0,0,0-1.6.3,1.65,1.65,0,0,0-1,1H55a5.2,5.2,0,0,1,1.8-3.4,6.93,6.93,0,0,1,5-1.5,10,10,0,0,1,5.5,1.2,4.18,4.18,0,0,1,1.9,3.7v6.1a7.62,7.62,0,0,1-.9,4.2A6.67,6.67,0,0,1,66,18.6ZM49.7,10.5a6.32,6.32,0,0,0-1-4,3.13,3.13,0,0,0-2.8-1.4,3.5,3.5,0,0,0-2.8,1.4,7.92,7.92,0,0,0-1,4,5.76,5.76,0,0,0,1,3.8,3.13,3.13,0,0,0,2.8,1.4,3.19,3.19,0,0,0,2.7-1.4,6.48,6.48,0,0,0,1.1-3.8Zm-7.5,13a2.4,2.4,0,0,1-2.3,2.3H37.7V9.3c0-3.1.8-5.2,2.7-6.4a10.64,10.64,0,0,1,5.8-1.7,7.54,7.54,0,0,1,3.3.7,8,8,0,0,1,2.7,1.8,10.51,10.51,0,0,1,2,6.6,10.61,10.61,0,0,1-2,6.7,6.11,6.11,0,0,1-5,2.6,6.71,6.71,0,0,1-2.8-.6,5.78,5.78,0,0,1-2.1-2v6.5ZM32.9,10.4a11.42,11.42,0,0,1-2.6.9l-1.5.3a3.15,3.15,0,0,0-1.7.9,3.36,3.36,0,0,0-.5,1.4,2.27,2.27,0,0,0,.6,1.6,2.72,2.72,0,0,0,1.7.6,4,4,0,0,0,2.9-1,4,4,0,0,0,1-2.9l.1-1.8Zm1,8.2a9.61,9.61,0,0,1-2.9.8,24.58,24.58,0,0,1-2.8.2,7.39,7.39,0,0,1-4.1-1.3A4.93,4.93,0,0,1,22.3,14a5,5,0,0,1,1.6-4A9.79,9.79,0,0,1,28,8.4a2.2,2.2,0,0,0,.8-.1c.3-.1.7-.1,1-.2,1.9-.3,2.8-.9,2.8-1.7a1.3,1.3,0,0,0-1-1.3,6.28,6.28,0,0,0-1.9-.3,4.53,4.53,0,0,0-1.6.3,1.65,1.65,0,0,0-1,1H22.7a5.2,5.2,0,0,1,1.8-3.4,6.93,6.93,0,0,1,5-1.5A10,10,0,0,1,35,2.4a4.14,4.14,0,0,1,1.9,3.8v6.1a7.69,7.69,0,0,1-1,4.2,4,4,0,0,1-2,2.1ZM10.1,23.5a2,2,0,0,1-.7,1.6,2,2,0,0,1-1.6.7H5.7V9.3c0-3.1.8-5.2,2.7-6.4a10.64,10.64,0,0,1,5.8-1.7,7.54,7.54,0,0,1,3.3.7,8,8,0,0,1,2.7,1.8,10.61,10.61,0,0,1,2,6.7,10.61,10.61,0,0,1-2,6.7,6.11,6.11,0,0,1-5,2.6,7.53,7.53,0,0,1-2.9-.6,5.78,5.78,0,0,1-2.1-2v6.4Zm7.4-13a6.32,6.32,0,0,0-1-4,3.13,3.13,0,0,0-2.8-1.4A3.19,3.19,0,0,0,11,6.5a7,7,0,0,0-.9,4,6.32,6.32,0,0,0,.9,3.8,3.19,3.19,0,0,0,2.9,1.4,3.19,3.19,0,0,0,2.7-1.4,6.15,6.15,0,0,0,.9-3.8Z"/></svg>