<svg id="Layer_2" data-name="Layer 2" xmlns="http://www.w3.org/2000/svg" viewBox="0 0 4142.86 2185.66"><defs><style>.cls-1{fill:#e2ac00;}</style></defs><title>secure</title><path class="cls-1" d="M3134.94,2071.55h3.57a1,1,0,0,0,1-1v-2.92a1,1,0,0,0-.79-1v-.34a2,2,0,1,0-4.07,0v.34a1,1,0,0,0-.79,1v2.92A1,1,0,0,0,3134.94,2071.55Zm.36-5v-.29a1.42,1.42,0,0,1,2.84,0v.29Zm-.79,4v-2.92a.43.43,0,0,1,.43-.43h3.57a.43.43,0,0,1,.43.43v2.92a.43.43,0,0,1-.43.43h-3.57A.43.43,0,0,1,3134.51,2070.51Z"/><path class="cls-1" d="M3136.13,2070.15a.31.31,0,0,0,.26.14.31.31,0,0,0,.24-.12l1.43-1.88a.31.31,0,0,0,.06-.23.3.3,0,0,0-.12-.2.29.29,0,0,0-.22-.06h0a.3.3,0,0,0-.2.12l-1.17,1.53-.5-.77a.31.31,0,0,0-.19-.13.29.29,0,0,0-.23,0,.3.3,0,0,0-.09.42Z"/><path class="cls-1" d="M3142.62,2066.81a8.8,8.8,0,0,1,0-4.56.38.38,0,0,0-.05-.33.38.38,0,0,0-.3-.16c-4.3,0-5.09-.62-5.18-.71a.37.37,0,0,0-.69,0c-.09.09-.88.71-5.18.71a.37.37,0,0,0-.36.49,8.63,8.63,0,0,1,0,4.56,12.29,12.29,0,0,0-.34,5,.37.37,0,0,0,.13.22,19.39,19.39,0,0,0,6,3.35l.11,0,.11,0a19.53,19.53,0,0,0,6-3.35.38.38,0,0,0,.13-.22A12.3,12.3,0,0,0,3142.62,2066.81Zm-10.93-4.3c3.21,0,4.52-.43,5-.78.53.35,1.84.75,5,.78a9.48,9.48,0,0,0,.12,4.5,12.06,12.06,0,0,1,.34,4.53,6.46,6.46,0,0,1-11,0,12.05,12.05,0,0,1,.34-4.53A9.5,9.5,0,0,0,3131.68,2062.5Z"/></svg>