<svg id="katman_1" data-name="katman 1" xmlns="http://www.w3.org/2000/svg" viewBox="0 0 100 62.33"><defs><style>.cls-1{fill:#dfdfdf;}.cls-2{fill:#bababa;}</style></defs><title>havale</title><path class="cls-1" d="M49.86,38.07h-5.6a.76.76,0,0,1-.76-.76V25a.76.76,0,0,1,.76-.76h5.6a.76.76,0,0,1,.76.76V26.9a.25.25,0,1,1-.5,0V25a.25.25,0,0,0-.25-.25h-5.6A.25.25,0,0,0,44,25V37.31a.25.25,0,0,0,.25.25h5.6a.25.25,0,0,0,.25-.25V33.41a.25.25,0,1,1,.5,0v3.91A.76.76,0,0,1,49.86,38.07Z"/><path class="cls-1" d="M47.06,37.22a.85.85,0,1,1,.85-.85A.85.85,0,0,1,47.06,37.22Zm0-1.2a.35.35,0,1,0,.35.35A.35.35,0,0,0,47.06,36Z"/><path class="cls-1" d="M50.36,26.5h-6.6a.25.25,0,1,1,0-.5h6.6a.25.25,0,0,1,0,.5Z"/><path class="cls-1" d="M50.36,35.14h-6.6a.25.25,0,1,1,0-.5h6.6a.25.25,0,0,1,0,.5Z"/><path class="cls-1" d="M47.38,25.63h-.63a.25.25,0,1,1,0-.5h.63a.25.25,0,0,1,0,.5Z"/><path class="cls-2" d="M47.71,33.85a.25.25,0,0,1-.25-.31l.39-1.7V28.45a.77.77,0,0,1,.77-.77h7.09a.77.77,0,0,1,.77.77v3.42a.77.77,0,0,1-.77.77h-6l-1.86,1.17A.25.25,0,0,1,47.71,33.85Zm.92-5.66a.27.27,0,0,0-.27.27v3.42a.26.26,0,0,1,0,.06l-.26,1.13,1.4-.88a.25.25,0,0,1,.13,0h6.09a.27.27,0,0,0,.27-.27V28.45a.27.27,0,0,0-.27-.27Z"/><path class="cls-2" d="M50.18,31.38h-.55a.63.63,0,0,1-.63-.63.25.25,0,0,1,.5,0,.12.12,0,0,0,.12.12h.55a.12.12,0,0,0,.12-.12v-.22a.12.12,0,0,0-.12-.12h-.55a.63.63,0,0,1-.63-.63v-.22a.63.63,0,0,1,.63-.63h.55a.63.63,0,0,1,.63.63.25.25,0,1,1-.5,0,.12.12,0,0,0-.12-.12h-.55a.12.12,0,0,0-.12.12v.22a.12.12,0,0,0,.12.12h.55a.63.63,0,0,1,.63.63v.22A.63.63,0,0,1,50.18,31.38Z"/><path class="cls-2" d="M49.91,29.44a.25.25,0,0,1-.25-.25v-.38a.25.25,0,0,1,.5,0v.38A.25.25,0,0,1,49.91,29.44Z"/><path class="cls-2" d="M49.91,31.76a.25.25,0,0,1-.25-.25v-.38a.25.25,0,0,1,.5,0v.38A.25.25,0,0,1,49.91,31.76Z"/><path class="cls-2" d="M52.58,31.38H52a.63.63,0,0,1-.63-.63.25.25,0,0,1,.5,0,.12.12,0,0,0,.12.12h.55a.12.12,0,0,0,.12-.12v-.22a.12.12,0,0,0-.12-.12H52a.63.63,0,0,1-.63-.63v-.22a.63.63,0,0,1,.63-.63h.55a.63.63,0,0,1,.63.63.25.25,0,1,1-.5,0,.12.12,0,0,0-.12-.12H52a.12.12,0,0,0-.12.12v.22a.12.12,0,0,0,.12.12h.55a.63.63,0,0,1,.63.63v.22A.63.63,0,0,1,52.58,31.38Z"/><path class="cls-2" d="M52.3,29.44a.25.25,0,0,1-.25-.25v-.38a.25.25,0,0,1,.5,0v.38A.25.25,0,0,1,52.3,29.44Z"/><path class="cls-2" d="M52.3,31.76a.25.25,0,0,1-.25-.25v-.38a.25.25,0,0,1,.5,0v.38A.25.25,0,0,1,52.3,31.76Z"/><path class="cls-2" d="M55,31.38h-.55a.63.63,0,0,1-.63-.63.25.25,0,0,1,.5,0,.12.12,0,0,0,.12.12H55a.12.12,0,0,0,.12-.12v-.22a.12.12,0,0,0-.12-.12h-.55a.63.63,0,0,1-.63-.63v-.22a.63.63,0,0,1,.63-.63H55a.63.63,0,0,1,.63.63.25.25,0,1,1-.5,0,.12.12,0,0,0-.12-.12h-.55a.12.12,0,0,0-.12.12v.22a.12.12,0,0,0,.12.12H55a.63.63,0,0,1,.63.63v.22A.63.63,0,0,1,55,31.38Z"/><path class="cls-2" d="M54.7,29.44a.25.25,0,0,1-.25-.25v-.38a.25.25,0,0,1,.5,0v.38A.25.25,0,0,1,54.7,29.44Z"/><path class="cls-2" d="M54.7,31.76a.25.25,0,0,1-.25-.25v-.38a.25.25,0,1,1,.5,0v.38A.25.25,0,0,1,54.7,31.76Z"/></svg>