<svg id="katman_1" data-name="katman 1" xmlns="http://www.w3.org/2000/svg" viewBox="0 0 500 163.09"><defs><style>.cls-1{fill:#f7f7f7;}.cls-2{fill:#181818;}</style></defs><title>logo white black</title><polygon class="cls-1" points="210.34 59 200.04 79.09 189.53 59 178.77 59 195.38 89.39 195.38 104.11 204.25 104.11 204.25 89.39 221.11 59 210.34 59"/><path class="cls-1" d="M235.46,59l-20.81,45.12h8.93L227.74,94h14.37l4,10.12h10.13ZM239,86.06h-8l4.1-10Z"/><path class="cls-1" d="M283.08,60.76A20.56,20.56,0,0,0,274.24,59H261v45.1h9v-15h5.22a18.1,18.1,0,0,0,7.3-1.33,12.9,12.9,0,0,0,4.87-3.6A14.84,14.84,0,0,0,290,79.25a18,18,0,0,0,.85-5.39,15.19,15.19,0,0,0-2-8A13.25,13.25,0,0,0,283.08,60.76Zm-2.51,17.43a5.48,5.48,0,0,1-2,1.65,7.49,7.49,0,0,1-3.34.66H270V67.63h5.4a7.54,7.54,0,0,1,3.34.63,5.22,5.22,0,0,1,1.94,1.58,6.74,6.74,0,0,1,1,2.11,7.64,7.64,0,0,1,.32,2,7.33,7.33,0,0,1-.34,2,7.23,7.23,0,0,1-1.09,2.23Z"/><rect class="cls-1" x="297.22" y="59" width="8.93" height="45.1"/><polygon class="cls-2" points="314.81 104.11 323.73 104.11 323.73 86.34 340.49 86.34 340.49 77.77 323.73 77.77 323.73 67.63 342.98 67.63 342.98 59 314.81 59 314.81 104.11"/><polygon class="cls-2" points="371.24 81.33 385.55 59 374.8 59 366.25 73.68 356.67 59 345.52 59 359.75 80.91 344.95 104.11 355.87 104.11 364.84 88.74 374.83 104.11 386.1 104.11 371.24 81.33"/><polygon class="cls-1" points="133.08 88.63 140.31 81.41 148.35 89.78 168.38 69.91 175.28 76.81 148.51 103.9 133.08 88.63"/><polygon class="cls-2" points="156.1 74.37 148.87 81.6 140.83 73.22 120.8 93.09 113.9 86.19 140.66 59.1 156.1 74.37"/><polygon class="cls-2" points="159.75 84.4 159.91 70.14 145.49 84.56 159.75 84.4"/><polygon class="cls-1" points="129.88 78.6 129.72 92.86 144.15 78.44 129.88 78.6"/></svg>