<svg id="katman_1" data-name="katman 1" xmlns="http://www.w3.org/2000/svg" viewBox="0 0 100 62.33"><defs><style>.cls-1{fill:#dfdfdf;}.cls-2{fill:#bababa;}</style></defs><title>nakit</title><path class="cls-1" d="M51.52,37.59a.73.73,0,0,1-.21,0A41.53,41.53,0,0,0,46,37.29a.25.25,0,0,1,0-.5h0a43.35,43.35,0,0,1,5.47.3c.34.1,2.15-.49,5.42-2a.09.09,0,0,0,0-.06.09.09,0,0,0,0-.08,1.11,1.11,0,0,0-1.31-.39l-2.64,1a1.35,1.35,0,0,1-.91,0l-1.39-.45a.25.25,0,1,1,.15-.47l1.39.45a.85.85,0,0,0,.57,0l2.64-1a1.61,1.61,0,0,1,1.9.56.59.59,0,0,1-.23.88C55,36.48,52.47,37.59,51.52,37.59Z"/><path class="cls-1" d="M52.44,35.14H48.56a.25.25,0,0,1,0-.5h3.85a.9.9,0,0,0-.88-.87A15.14,15.14,0,0,1,50,33.66a6.29,6.29,0,0,1-1.09-.29A5.15,5.15,0,0,0,47.18,33,3.89,3.89,0,0,0,45,34.36a.25.25,0,0,1-.37-.33c.05-.06,1.34-1.52,2.57-1.52a5.63,5.63,0,0,1,1.85.38,5.93,5.93,0,0,0,1,.27,14.84,14.84,0,0,0,1.53.11,1.4,1.4,0,0,1,1.36,1.4A.46.46,0,0,1,52.44,35.14Z"/><path class="cls-1" d="M44.57,38.52l-.09,0a.25.25,0,0,1-.14-.13l-1.74-4.12a.25.25,0,0,1,.13-.33l1.65-.7a.25.25,0,0,1,.33.13l1.74,4.12a.25.25,0,0,1-.13.33l-1.65.7Zm-1.42-4.24,1.55,3.67,1.19-.5-1.55-3.67Z"/><path class="cls-2" d="M51.73,33.09a.25.25,0,0,1-.22-.37A3,3,0,1,0,46,32.23a.25.25,0,1,1-.47.17,3.53,3.53,0,1,1,6.37.57A.25.25,0,0,1,51.73,33.09Z"/><path class="cls-2" d="M49.4,32.67a.25.25,0,0,1-.09-.48.38.38,0,0,0-.14-.74h-.53a.88.88,0,0,1,0-1.76h.53a.88.88,0,0,1,.88.88.25.25,0,0,1-.5,0,.39.39,0,0,0-.38-.38h-.53a.38.38,0,1,0,0,.77h.53a.88.88,0,0,1,.33,1.7Z"/><path class="cls-2" d="M48.1,32.43a.25.25,0,0,1-.21-.11.88.88,0,0,1-.14-.48.25.25,0,0,1,.5,0,.38.38,0,0,0,.06.21.25.25,0,0,1-.07.34A.25.25,0,0,1,48.1,32.43Z"/><path class="cls-2" d="M48.89,30.18a.25.25,0,0,1-.25-.25v-.59a.25.25,0,1,1,.5,0v.59A.25.25,0,0,1,48.89,30.18Z"/><path class="cls-1" d="M56.14,25.46a.25.25,0,0,1-.25-.25c0-.36-1.35-.89-3.38-.89s-3.38.54-3.38.89a.25.25,0,1,1-.5,0c0-.91,1.95-1.39,3.87-1.39s3.87.48,3.87,1.39A.25.25,0,0,1,56.14,25.46Z"/><path class="cls-1" d="M52.52,28.29A10.81,10.81,0,0,1,51,28.18a.25.25,0,0,1,.07-.49,10.3,10.3,0,0,0,1.49.1c2,0,3.38-.54,3.38-.89a.25.25,0,1,1,.5,0C56.39,27.81,54.44,28.29,52.52,28.29Z"/><path class="cls-1" d="M52.52,30a.25.25,0,1,1,0-.5c2,0,3.38-.54,3.38-.89a.25.25,0,1,1,.5,0C56.39,29.5,54.44,30,52.52,30Z"/><path class="cls-1" d="M52.67,31.66a.25.25,0,0,1,0-.5c2.12,0,3.23-.6,3.23-.89a.25.25,0,1,1,.5,0c0,.92-1.93,1.37-3.72,1.39Z"/><path class="cls-1" d="M52.52,33.35a.25.25,0,1,1,0-.5c2,0,3.38-.54,3.38-.89v-6c-1.4.89-5.35.89-6.75,0V27.1a.25.25,0,1,1-.5,0V25.21a.25.25,0,0,1,.5,0c0,.36,1.35.89,3.38.89s3.38-.54,3.38-.89a.25.25,0,0,1,.5,0V32C56.39,32.87,54.44,33.35,52.52,33.35Z"/></svg>