<svg id="Capa_1" data-name="Capa 1" xmlns="http://www.w3.org/2000/svg" viewBox="0 0 131.8 124.9"><defs><style>.cls-1{fill:none;stroke:#a9a8a8;stroke-miterlimit:10;stroke-width:4px;}.cls-2{fill:#a9a8a8;}</style></defs><title>twitter</title><rect class="cls-1" x="10.9" y="7.45" width="110.01" height="110" rx="14.17" ry="14.17"/><path class="cls-2" d="M98.58,42.18a26.75,26.75,0,0,1-7.7,2.11,13.45,13.45,0,0,0,5.9-7.42,26.84,26.84,0,0,1-8.51,3.25A13.42,13.42,0,0,0,65.41,52.36a38.06,38.06,0,0,1-27.64-14,13.42,13.42,0,0,0,4.15,17.9,13.31,13.31,0,0,1-6.07-1.68c0,.06,0,.11,0,.17A13.42,13.42,0,0,0,46.6,67.88a13.46,13.46,0,0,1-6.06.23,13.42,13.42,0,0,0,12.53,9.31A27.07,27.07,0,0,1,33.22,83a37.93,37.93,0,0,0,20.55,6c24.66,0,38.15-20.43,38.15-38.15,0-.58,0-1.16,0-1.73a27.19,27.19,0,0,0,6.69-6.94Z"/></svg>