<svg id="katman_1" data-name="katman 1" xmlns="http://www.w3.org/2000/svg" viewBox="0 0 100 62.33"><defs><style>.cls-1{fill:#a9a8a8;}.cls-2{fill:#bababa;}.cls-3{fill:#dfdfdf;}</style></defs><title>visa</title><path class="cls-1" d="M41,53.76a.78.78,0,1,1,0,.06s0,0,0-.06m2.1,0v-1.3h-.56v.31a1,1,0,0,0-.78-.4,1.36,1.36,0,0,0,0,2.72,1,1,0,0,0,.82-.38V55h.56Zm19,0a.78.78,0,1,1,0,.05s0,0,0-.05m2.1,0V51.38h-.56v1.36a1,1,0,0,0-.78-.36,1.36,1.36,0,0,0,0,2.72,1,1,0,0,0,.82-.38V55h.56ZM50.09,52.9a.64.64,0,0,1,.66.62H49.44a.67.67,0,0,1,.69-.63m0-.5a1.36,1.36,0,0,0,0,2.72,1.58,1.58,0,0,0,1.06-.36L51,54.38a1.24,1.24,0,0,1-.75.27.72.72,0,0,1-.78-.63h1.92V53.8a1.24,1.24,0,0,0-1-1.41h-.17m6.8,1.36a.78.78,0,1,1,0,.06s0,0,0-.06m2.1,0V52.47h-.56v.31a1,1,0,0,0-.82-.38,1.36,1.36,0,0,0,0,2.72,1,1,0,0,0,.82-.38V55H59Zm-5.28,0A1.31,1.31,0,0,0,55,55.1h.12a1.36,1.36,0,0,0,.93-.31l-.27-.41a1.15,1.15,0,0,1-.68.23.83.83,0,0,1,0-1.66,1.14,1.14,0,0,1,.68.23l.27-.46a1.37,1.37,0,0,0-.93-.31,1.31,1.31,0,0,0-1.34,1.28s0,.05,0,.08M61,52.38a.77.77,0,0,0-.68.38v-.31h-.55V55h.56V53.6c0-.43.19-.67.55-.67a.9.9,0,0,1,.35.07l.17-.53a1.19,1.19,0,0,0-.4-.07m-15.11.27a2,2,0,0,0-1-.3c-.66,0-1.08.31-1.08.83s.31.68.89.77h.27c.31,0,.46.13.46.27s-.21.31-.59.31a1.38,1.38,0,0,1-.86-.27l-.27.44a1.86,1.86,0,0,0,1.12.34c.75,0,1.18-.35,1.18-.84s-.34-.69-.91-.78H44.8c-.24,0-.44-.08-.44-.26s.18-.3.49-.3a1.67,1.67,0,0,1,.81.22Zm7.28-.3a.77.77,0,0,0-.68.38v-.31h-.56V55h.56V53.6c0-.43.19-.67.55-.67a.9.9,0,0,1,.35.07l.17-.53a1.18,1.18,0,0,0-.4-.07m-4.81.07h-.92v-.79h-.56v.79h-.53V53h.53v1.18c0,.6.23,1,.9,1a1.32,1.32,0,0,0,.7-.2l-.16-.48a1,1,0,0,1-.5.15c-.28,0-.37-.17-.37-.43V53h.92Zm-8.43,2.59V53.43A1,1,0,0,0,38,52.89a1,1,0,0,0-.86-.46.86.86,0,0,0-.76.38v-.32h-.56v2.59h.57V53.63a.61.61,0,0,1,.52-.69H37c.37,0,.56.25.56.68v1.44h.57V53.63a.61.61,0,0,1,.52-.69h.11c.38,0,.57.25.57.68v1.44Z"/><rect class="cls-2" x="45.73" y="32.71" width="8.54" height="15.35"/><path class="cls-1" d="M46.27,40.38A9.74,9.74,0,0,1,50,32.7a9.76,9.76,0,1,0,0,15.35,9.75,9.75,0,0,1-3.73-7.68"/><path class="cls-3" d="M65.79,40.38A9.76,9.76,0,0,1,50,48.06,9.76,9.76,0,0,0,50,32.7a9.76,9.76,0,0,1,15.79,7.67"/><rect class="cls-1" x="24.79" y="25.58" width="50.42" height="1"/><polygon class="cls-3" points="46.66 21.4 42.55 21.4 45.12 5.61 49.23 5.61 46.66 21.4"/><path class="cls-3" d="M39.09,5.61,35.17,16.47l-.46-2.34h0L33.32,7a1.76,1.76,0,0,0-2-1.42H24.87l-.08.27a15.36,15.36,0,0,1,4.3,1.81l3.6,13.74H37L43.51,5.61Z"/><path class="cls-3" d="M71.43,21.4h3.78L71.87,5.61H68.61a1.89,1.89,0,0,0-1.9,1.18L60.58,21.4h4.29L65.73,19H71Zm-4.56-5.58L69.06,9.9l1.22,5.91Z"/><path class="cls-3" d="M60.87,9.41,61.48,6a11.87,11.87,0,0,0-3.7-.69c-2,0-6.89.89-6.89,5.23,0,4.08,5.69,4.13,5.69,6.27s-5.1,1.76-6.78.41l-.61,3.55a11.52,11.52,0,0,0,4.64.89c2.81,0,7-1.45,7-5.41,0-4.11-5.74-4.49-5.74-6.27S59.14,8.44,60.87,9.41Z"/><path class="cls-1" d="M34.7,14.13,33.32,7a1.76,1.76,0,0,0-2-1.42H24.87l-.08.27a15.94,15.94,0,0,1,6.08,3.09A12.32,12.32,0,0,1,34.7,14.13Z"/></svg>