<svg width="100" height="100" viewBox="0 0 100 100" fill="none" xmlns="http://www.w3.org/2000/svg">
<path fill-rule="evenodd" clip-rule="evenodd" d="M97.02 67.163C92.986 71.327 68.589 89.571 61.439 94.893C61.184 95.148 60.918 95.397 60.628 95.629C50.047 104.058 42.732 97.663 42.732 97.663C42.732 97.663 7.677 72.032 2.964 67.143C-2.22 61.766 0.975999 52.901 0.975999 52.901C0.975999 52.901 12.125 19.474 14.895 10.173C17.664 0.872001 24.837 0 24.837 0H27.064H72.558H75.034C75.034 0 82.244 0.872 85.028 10.176C87.812 19.48 99.019 52.916 99.019 52.916C99.019 52.916 102.231 61.784 97.02 67.163Z" fill="#2A2A2A"/>
</svg>
