<svg id="Layer_1" data-name="Layer 1" xmlns="http://www.w3.org/2000/svg" viewBox="0 0 291.5 291.5"><defs><style>.cls-1{fill:#434343;}</style></defs><title>apple logo</title><path class="cls-1" d="M188.4,44.3c11-11.7,18.4-28,16.4-44.3-15.8.6-35,9.3-46.3,21-10.2,10.4-19.1,27-16.7,43C159.4,65.2,177.4,56,188.4,44.3ZM222,156.6c-.3-36.5,28.9-54,30.2-54.8-16.4-24.8-42-28.1-51.1-28.5-21.8-2.3-42.4,13.2-53.5,13.2s-28-12.9-46.1-12.5c-23.7.3-45.6,14.1-57.8,36C19,154.1,37.4,219.3,61.4,255.1c11.7,17.5,25.7,37.1,44.1,36.4,17.7-.7,24.4-11.8,45.8-11.8s27.4,11.8,46.1,11.4c19-.4,31.1-17.8,42.7-35.4a158.13,158.13,0,0,0,19.3-40.9C259.1,214.6,222.4,200.2,222,156.6Z"/></svg>