<svg id="Layer_2" data-name="Layer 2" xmlns="http://www.w3.org/2000/svg" xmlns:xlink="http://www.w3.org/1999/xlink" viewBox="0 0 16.01 12.83"><defs><style>.cls-1{fill:url(#Adsız_degrade_12);}</style><linearGradient id="Adsız_degrade_12" x1="8" x2="8" y2="12.83" gradientUnits="userSpaceOnUse"><stop offset="0" stop-color="#e9eb00"/><stop offset="0.77" stop-color="#e2ac00"/></linearGradient></defs><title>avantaj 8</title><path class="cls-1" d="M14.64,10.09a1.28,1.28,0,0,0-.67.2L11.41,7.83a1.27,1.27,0,0,0,.17-.62,1.37,1.37,0,0,0-2.73,0,.33.33,0,0,0,0,.07L6.89,8a1.34,1.34,0,0,0-1.1-.59,1.22,1.22,0,0,0-.35.06L2.36,2.29a1.34,1.34,0,0,0,.37-.92A1.37,1.37,0,1,0,1.37,2.73a1.19,1.19,0,0,0,.35-.06L4.8,7.8a1.34,1.34,0,0,0-.37.93,1.37,1.37,0,0,0,2.73,0,.42.42,0,0,0,0-.07l2-.68a1.29,1.29,0,0,0,1.77.39l2.56,2.47a1.26,1.26,0,0,0-.18.63,1.37,1.37,0,1,0,1.37-1.37ZM10.83,7.2a.62.62,0,1,1-.62-.62A.62.62,0,0,1,10.83,7.2Zm4.42,4.26a.62.62,0,1,1-.62-.62A.62.62,0,0,1,15.26,11.46ZM6.41,8.73a.62.62,0,1,1-.62-.62A.62.62,0,0,1,6.41,8.73ZM2,1.37A.62.62,0,1,1,1.37.75.62.62,0,0,1,2,1.37Z"/></svg>