<svg id="Layer_2" data-name="Layer 2" xmlns="http://www.w3.org/2000/svg" xmlns:xlink="http://www.w3.org/1999/xlink" viewBox="0 0 14.33 17.28"><defs><style>.cls-1{fill:url(#Adsız_degrade_12);}.cls-2{fill:url(#Adsız_degrade_12-2);}.cls-3{fill:url(#Adsız_degrade_12-3);}.cls-4{fill:url(#Adsız_degrade_12-4);}.cls-5{fill:url(#Adsız_degrade_12-5);}.cls-6{fill:url(#Adsız_degrade_12-6);}.cls-7{fill:url(#Adsız_degrade_12-7);}</style><linearGradient id="Adsız_degrade_12" x1="5.04" x2="5.04" y2="17.28" gradientUnits="userSpaceOnUse"><stop offset="0" stop-color="#e9eb00"/><stop offset="0.77" stop-color="#e2ac00"/></linearGradient><linearGradient id="Adsız_degrade_12-2" x1="6.52" y1="10.53" x2="6.52" y2="11.28" xlink:href="#Adsız_degrade_12"/><linearGradient id="Adsız_degrade_12-3" x1="9.67" y1="3.35" x2="9.67" y2="8.73" xlink:href="#Adsız_degrade_12"/><linearGradient id="Adsız_degrade_12-4" x1="9.67" y1="4.4" x2="9.67" y2="7.68" xlink:href="#Adsız_degrade_12"/><linearGradient id="Adsız_degrade_12-5" x1="9.67" y1="5.12" x2="9.67" y2="6.96" xlink:href="#Adsız_degrade_12"/><linearGradient id="Adsız_degrade_12-6" x1="11.68" y1="5.79" x2="11.68" y2="6.29" xlink:href="#Adsız_degrade_12"/><linearGradient id="Adsız_degrade_12-7" x1="7.67" y1="5.79" x2="7.67" y2="6.29" xlink:href="#Adsız_degrade_12"/></defs><title>avantaj 1</title><path class="cls-1" d="M9.7,8.76a.38.38,0,0,0-.37.38v.55H7a.38.38,0,0,0,0,.75H9.32v.68a.26.26,0,0,1-.26.26H5.53a.38.38,0,0,0,0,.75H7.1V13a.92.92,0,0,1-.93.91.37.37,0,0,0-.35.37V15H1.42V9.54L3,8V9.09a.37.37,0,0,0,.38.37h.07l-1,1a.38.38,0,0,0,.53.53L5.64,8.28a1.2,1.2,0,0,1-.21,1.53L4.06,11.17a.38.38,0,0,0,0,.56,1.14,1.14,0,0,1,.38.71,1.14,1.14,0,0,1-.41.84.38.38,0,0,0,.27.64.37.37,0,0,0,.26-.11,1.85,1.85,0,0,0,.63-1.42,1.73,1.73,0,0,0-.37-1L6,10.34a2,2,0,0,0,0-2.9.37.37,0,0,0-.27-.12h0a.39.39,0,0,0-.27.11L3.7,9.16a.35.35,0,0,0,0-.07V1.94H9.32v1a.38.38,0,0,0,.75,0V1a1,1,0,0,0-1-1H4A1,1,0,0,0,3,1V6.94L.78,9.13a.38.38,0,0,0-.11.26V15H.38a.38.38,0,0,0-.37.38V16.9a.38.38,0,0,0,.75,0V15.74H6.46V16.9a.38.38,0,0,0,.75,0V15.36A.38.38,0,0,0,6.84,15H6.57V14.6A1.61,1.61,0,0,0,7.85,13v-.88H9.07a1,1,0,0,0,1-1v-2A.38.38,0,0,0,9.7,8.76ZM7,.75H9.07A.26.26,0,0,1,9.32,1v.19H7A.37.37,0,0,0,7.07,1,.37.37,0,0,0,7,.75Zm-.95.44H3.71V1A.26.26,0,0,1,4,.75H6A.37.37,0,0,0,6,1,.37.37,0,0,0,6.06,1.19Z"/><path class="cls-2" d="M5.57,10.9a.38.38,0,0,0,.38.38H7.09a.38.38,0,0,0,0-.75H5.94A.38.38,0,0,0,5.57,10.9Z"/><path class="cls-3" d="M14,3.35H5.39A.38.38,0,0,0,5,3.73V6.84a.38.38,0,0,0,.75,0V4.1h7.81V8H6.95a.38.38,0,0,0,0,.75h7a.38.38,0,0,0,.38-.37V3.73A.38.38,0,0,0,14,3.35Z"/><path class="cls-4" d="M6.59,7A.46.46,0,0,1,7,7.43a.25.25,0,0,0,.25.25h4.76a.25.25,0,0,0,.25-.25A.46.46,0,0,1,12.75,7,.25.25,0,0,0,13,6.71V5.37a.25.25,0,0,0,0-.12.24.24,0,0,0-.24-.14.46.46,0,0,1-.45-.46.25.25,0,0,0-.25-.25H7.29A.25.25,0,0,0,7,4.65a.46.46,0,0,1-.45.46H6.52a.25.25,0,0,0-.19.24V6.72A.25.25,0,0,0,6.52,7Zm.24-1.39a1,1,0,0,0,.68-.68h4.32a1,1,0,0,0,.68.68V6.5a1,1,0,0,0-.68.68H7.51a1,1,0,0,0-.68-.68Z"/><path class="cls-5" d="M9.67,7A.92.92,0,1,0,8.75,6,.92.92,0,0,0,9.67,7Zm0-1.34A.42.42,0,1,1,9.25,6,.42.42,0,0,1,9.67,5.62Z"/><path class="cls-6" d="M11.5,6.29h.36a.25.25,0,0,0,0-.5H11.5a.25.25,0,1,0,0,.5Z"/><path class="cls-7" d="M7.48,6.29h.36a.25.25,0,1,0,0-.5H7.48a.25.25,0,1,0,0,.5Z"/></svg>