<svg xmlns="http://www.w3.org/2000/svg" xmlns:xlink="http://www.w3.org/1999/xlink" viewBox="0 0 15.74 14.6"><defs><style>.cls-1{fill:url(#Adsız_degrade_12);}.cls-2{fill:url(#Adsız_degrade_12-2);}.cls-3{fill:url(#Adsız_degrade_12-3);}.cls-4{fill:url(#Adsız_degrade_12-4);}.cls-5{fill:url(#Adsız_degrade_2);}.cls-6{fill:url(#Adsız_degrade_2-2);}.cls-7{fill:url(#Adsız_degrade_12-5);}</style><linearGradient id="Adsız_degrade_12" x1="7.9" y1="4.48" x2="7.9" y2="8.05" gradientUnits="userSpaceOnUse"><stop offset="0" stop-color="#e9eb00"/><stop offset="0.77" stop-color="#e2ac00"/></linearGradient><linearGradient id="Adsız_degrade_12-2" x1="9.98" y1="3.89" x2="9.98" y2="7.3" xlink:href="#Adsız_degrade_12"/><linearGradient id="Adsız_degrade_12-3" x1="11.42" y1="3.37" x2="11.42" y2="7.91" xlink:href="#Adsız_degrade_12"/><linearGradient id="Adsız_degrade_12-4" x1="12.75" y1="4.13" x2="12.75" y2="7.77" xlink:href="#Adsız_degrade_12"/><linearGradient id="Adsız_degrade_2" x1="3.85" y1="-5.11" x2="3.85" y2="2.6" gradientTransform="translate(0 12)" xlink:href="#Adsız_degrade_12"/><linearGradient id="Adsız_degrade_2-2" x1="3.88" y1="-2.97" x2="3.88" y2="0.33" gradientTransform="translate(0 12)" xlink:href="#Adsız_degrade_12"/><linearGradient id="Adsız_degrade_12-5" x1="9.2" y1="0" x2="9.2" y2="13.08" xlink:href="#Adsız_degrade_12"/></defs><title>Ресурс 1</title><g id="Слой_2" data-name="Слой 2"><g id="Layer_2" data-name="Layer 2"><path class="cls-1" d="M9,7.5a.22.22,0,0,1-.16.27L7.7,8A.24.24,0,0,1,7.47,8a.22.22,0,0,1,0-.23A5.76,5.76,0,0,0,8,5.27C7.9,5,7.69,4.9,7.53,4.94a.37.37,0,0,0-.24.49.22.22,0,0,1-.16.27.22.22,0,0,1-.27-.16.81.81,0,0,1,.57-1,.82.82,0,0,1,1,.66A5.28,5.28,0,0,1,8,7.51l.69-.17A.22.22,0,0,1,9,7.5Z"/><path class="cls-2" d="M10.92,6.21a.22.22,0,0,1-.16.27l-.2,0,.12.5a.23.23,0,1,1-.44.1l-.12-.49-.8.19a.22.22,0,0,1-.21,0A.24.24,0,0,1,9,6.57l.48-2.5a.22.22,0,0,1,.22-.18.22.22,0,0,1,.22.17l.49,2,.2,0A.22.22,0,0,1,10.92,6.21Zm-1.15-1L9.55,6.31,10,6.2Z"/><path class="cls-3" d="M11.55,3.56l.13,4.15a.19.19,0,0,1-.15.19h0a.2.2,0,0,1-.2-.19l-.13-4.15a.19.19,0,0,1,.19-.2A.19.19,0,0,1,11.55,3.56Z"/><path class="cls-4" d="M13.55,4.37l-.19,3.19a.22.22,0,0,1-.17.2h-.07a.22.22,0,0,1-.21-.24l.17-2.88-.85.2A.22.22,0,0,1,12,4.69a.23.23,0,0,1,.17-.27l1.14-.28a.23.23,0,0,1,.2,0A.21.21,0,0,1,13.55,4.37Z"/><path class="cls-5" d="M6.56,8A3.82,3.82,0,0,0,3.85,6.89,3.86,3.86,0,0,0,1.13,8,3.77,3.77,0,0,0,0,10.71H0a3.72,3.72,0,0,0,.47,1.8L0,14.6l2.11-.48a3.83,3.83,0,0,0,1.73.41h0a3.82,3.82,0,0,0,2.71-1.12,3.77,3.77,0,0,0,0-5.4ZM3.85,13.93h0a3.33,3.33,0,0,1-1.55-.39l-.1-.06L.8,13.8l.3-1.38-.05-.1a3.2,3.2,0,0,1,2.8-4.83,3.23,3.23,0,0,1,2.29.95,3.17,3.17,0,0,1,1,2.27A3.24,3.24,0,0,1,3.85,13.93Z"/><path class="cls-6" d="M2.8,9H2.63a.32.32,0,0,0-.23.11,1,1,0,0,0-.31.73,1.76,1.76,0,0,0,.36.91A3.64,3.64,0,0,0,4,12.1c.75.29.9.24,1.06.22a.92.92,0,0,0,.6-.42.75.75,0,0,0,0-.41.55.55,0,0,0-.17-.11l-.6-.29c-.08,0-.14,0-.2.05s-.23.29-.28.35-.11.06-.2,0a2.51,2.51,0,0,1-.7-.44,3.31,3.31,0,0,1-.5-.61.13.13,0,0,1,0-.18l.14-.15A1.1,1.1,0,0,0,3.28,10a.18.18,0,0,0,0-.16S3.08,9.35,3,9.18H3C2.93,9,2.86,9,2.8,9Z"/><path class="cls-7" d="M9.2,0A6.55,6.55,0,0,0,2.66,6.49a1.18,1.18,0,0,0,.75,0A5.79,5.79,0,1,1,9.2,12.33a5.94,5.94,0,0,1-1.35-.16,1,1,0,0,0-.31.69,6.46,6.46,0,0,0,1.66.22A6.54,6.54,0,1,0,9.2,0Z"/></g></g></svg>