<svg xmlns="http://www.w3.org/2000/svg" xmlns:xlink="http://www.w3.org/1999/xlink" viewBox="0 0 15.98 13.69"><defs><style>.cls-1{fill:url(#Adsız_degrade_12);}.cls-2{fill:url(#Adsız_degrade_12-2);}.cls-3{fill:url(#Adsız_degrade_12-3);}.cls-4{fill:url(#Adsız_degrade_12-4);}.cls-5{fill:url(#Adsız_degrade_12-5);}</style><linearGradient id="Adsız_degrade_12" x1="5.31" y1="5.21" x2="5.31" y2="8.77" gradientUnits="userSpaceOnUse"><stop offset="0" stop-color="#e9eb00"/><stop offset="0.77" stop-color="#e2ac00"/></linearGradient><linearGradient id="Adsız_degrade_12-2" x1="7.39" y1="4.61" x2="7.39" y2="8.03" xlink:href="#Adsız_degrade_12"/><linearGradient id="Adsız_degrade_12-3" x1="8.83" y1="4.09" x2="8.83" y2="8.63" xlink:href="#Adsız_degrade_12"/><linearGradient id="Adsız_degrade_12-4" x1="10.16" y1="4.86" x2="10.16" y2="8.5" xlink:href="#Adsız_degrade_12"/><linearGradient id="Adsız_degrade_12-5" x1="7.99" y1="0" x2="7.99" y2="13.69" xlink:href="#Adsız_degrade_12"/></defs><title>Ресурс 1</title><g id="Слой_2" data-name="Слой 2"><g id="Layer_2" data-name="Layer 2"><path class="cls-1" d="M6.38,8.23a.22.22,0,0,1-.16.27L5.1,8.77a.21.21,0,0,1-.22-.08.21.21,0,0,1,0-.23A5.73,5.73,0,0,0,5.38,6c-.08-.3-.28-.37-.44-.33s-.31.19-.24.5a.22.22,0,1,1-.43.1.8.8,0,1,1,1.54-.37,5,5,0,0,1-.4,2.34l.7-.17A.23.23,0,0,1,6.38,8.23Z"/><path class="cls-2" d="M8.33,6.94a.23.23,0,0,1-.17.27L8,7.25l.12.5A.23.23,0,0,1,7.92,8a.22.22,0,0,1-.27-.16l-.12-.5-.81.2a.27.27,0,0,1-.21-.06.24.24,0,0,1-.06-.2l.48-2.51a.22.22,0,0,1,.21-.18.24.24,0,0,1,.23.17l.49,2,.2-.05A.23.23,0,0,1,8.33,6.94ZM7.17,5.89,7,7l.47-.11Z"/><path class="cls-3" d="M9,4.28l.12,4.15a.18.18,0,0,1-.14.19h0a.19.19,0,0,1-.2-.19L8.57,4.29a.2.2,0,0,1,.19-.2A.19.19,0,0,1,9,4.28Z"/><path class="cls-4" d="M11,5.09l-.2,3.2a.2.2,0,0,1-.17.2h-.06a.22.22,0,0,1-.21-.24l.17-2.89-.85.21a.23.23,0,0,1-.27-.17.22.22,0,0,1,.16-.27l1.15-.28a.24.24,0,0,1,.2,0A.23.23,0,0,1,11,5.09Z"/><path class="cls-5" d="M15,6.62A6.91,6.91,0,0,0,8,0,6.9,6.9,0,0,0,1,6.62a1.38,1.38,0,0,0-1,1.3v2.67a1.4,1.4,0,1,0,2.79,0V7.92A1.39,1.39,0,0,0,1.73,6.59,6.17,6.17,0,0,1,8,.75a6.17,6.17,0,0,1,6.27,5.84,1.38,1.38,0,0,0-1.07,1.33v2.67a1.38,1.38,0,0,0,1,1.31A.24.24,0,0,1,14,12H10.6a1.22,1.22,0,0,0-1.18-1H7.2A1.23,1.23,0,0,0,6,12.21v.25A1.23,1.23,0,0,0,7.2,13.69H9.42a1.22,1.22,0,0,0,1.18-1H14a1,1,0,0,0,1-.81,1.38,1.38,0,0,0,1-1.31V7.92A1.37,1.37,0,0,0,15,6.62Zm.22,1.3v2.67a.65.65,0,1,1-1.29,0V7.92a.65.65,0,0,1,1.29,0ZM2,7.92v2.67a.65.65,0,1,1-1.29,0V7.92A.65.65,0,0,1,2,7.92Zm7.38,5H7.2a.47.47,0,0,1-.48-.48v-.25a.47.47,0,0,1,.48-.48H9.42a.47.47,0,0,1,.47.48v.25A.47.47,0,0,1,9.42,12.94Z"/></g></g></svg>