<svg id="Layer_2" data-name="Layer 2" xmlns="http://www.w3.org/2000/svg" xmlns:xlink="http://www.w3.org/1999/xlink" viewBox="0 0 101.6 107.84"><defs><style>.cls-1{fill:url(#Adsız_degrade_10);}.cls-2{fill:url(#Adsız_degrade_10-2);}.cls-3{fill:url(#Adsız_degrade_10-3);}</style><linearGradient id="Adsız_degrade_10" x1="50.8" y1="31.06" x2="50.8" y2="76.77" gradientUnits="userSpaceOnUse"><stop offset="0" stop-color="#666"/><stop offset="0.77" stop-color="#2a2a2a"/></linearGradient><linearGradient id="Adsız_degrade_10-2" x1="50.8" y1="15.81" x2="50.8" y2="92.03" xlink:href="#Adsız_degrade_10"/><linearGradient id="Adsız_degrade_10-3" x1="50.8" y1="6.12" x2="50.8" y2="101.72" xlink:href="#Adsız_degrade_10"/></defs><title>dolar</title><path class="cls-1" d="M46.67,42.09h8.26A2.93,2.93,0,0,1,57.86,45a2.66,2.66,0,0,0,5.33,0,8.27,8.27,0,0,0-8.26-8.26H53.46v-3a2.66,2.66,0,0,0-5.33,0v3H46.67A8.27,8.27,0,0,0,38.41,45v3.3a8.27,8.27,0,0,0,8.26,8.26h8.26a2.93,2.93,0,0,1,2.93,2.93v3.3a2.93,2.93,0,0,1-2.93,2.94H46.67a2.94,2.94,0,0,1-2.94-2.94,2.66,2.66,0,1,0-5.32,0,8.27,8.27,0,0,0,8.26,8.26h1.46v3a2.66,2.66,0,0,0,5.33,0v-3h1.46a8.27,8.27,0,0,0,8.26-8.26v-3.3a8.27,8.27,0,0,0-8.26-8.26H46.67a2.94,2.94,0,0,1-2.94-2.94V45A2.94,2.94,0,0,1,46.67,42.09Z"/><path class="cls-2" d="M50.8,15.81A38.11,38.11,0,1,0,88.9,53.92,38.15,38.15,0,0,0,50.8,15.81ZM83.58,53.92A32.78,32.78,0,1,1,50.8,21.14,32.81,32.81,0,0,1,83.58,53.92Z"/><path class="cls-3" d="M50.8,6.12a47.8,47.8,0,1,0,47.8,47.8A47.85,47.85,0,0,0,50.8,6.12Zm42.47,47.8A42.47,42.47,0,1,1,50.8,11.45,42.52,42.52,0,0,1,93.27,53.92Z"/></svg>