<svg id="Layer_2" data-name="Layer 2" xmlns="http://www.w3.org/2000/svg" xmlns:xlink="http://www.w3.org/1999/xlink" viewBox="0 0 12.19 15.73"><defs><style>.cls-1{fill:url(#Adsız_degrade_12);}.cls-2{fill:url(#Adsız_degrade_12-2);}</style><linearGradient id="Adsız_degrade_12" x1="6.09" x2="6.09" y2="15.73" gradientUnits="userSpaceOnUse"><stop offset="0" stop-color="#e9eb00"/><stop offset="0.77" stop-color="#e2ac00"/></linearGradient><linearGradient id="Adsız_degrade_12-2" x1="5.72" y1="8.4" x2="5.72" y2="13.41" xlink:href="#Adsız_degrade_12"/></defs><title>enerji</title><path class="cls-1" d="M11.2,7.24a.37.37,0,0,0-.68.22S10.5,9.74,9,10a1.19,1.19,0,0,1-1.2-.42,2.45,2.45,0,0,1-.12-2.32,6,6,0,0,0-.33-4.56l0-.05A10,10,0,0,0,5.08.07a.37.37,0,0,0-.59.38A6.53,6.53,0,0,1,1.85,6.88,4.36,4.36,0,0,0,.27,12c.68,2.11,2.45,3.69,4.12,3.69a.37.37,0,1,0,0-.75C3.06,15,1.56,13.59,1,11.81a3.7,3.7,0,0,1,1.3-4.32,7.25,7.25,0,0,0,3-6.2A9.36,9.36,0,0,1,6.7,3a5.24,5.24,0,0,1,.32,4A3.16,3.16,0,0,0,7.24,10a1.93,1.93,0,0,0,1.9.71,2.51,2.51,0,0,0,2-2,4.48,4.48,0,0,1,.21,2.73c-.38,1.44-1.58,2.66-3.59,3.61a.38.38,0,0,0,.32.68c2.22-1.05,3.56-2.43,4-4.1A5.67,5.67,0,0,0,11.2,7.24Z"/><path class="cls-2" d="M5.84,12a8,8,0,0,0,1.83,1.37A.37.37,0,0,0,8,12.69a7.81,7.81,0,0,1-1.64-1.24A4.46,4.46,0,0,1,5,8.75a.37.37,0,0,0-.65-.24,4.35,4.35,0,0,0-.81,4.68.38.38,0,0,0,.34.21.35.35,0,0,0,.16,0,.37.37,0,0,0,.18-.5,3.64,3.64,0,0,1,.19-3.2A4.93,4.93,0,0,0,5.84,12Z"/></svg>