<svg id="katman_1" data-name="katman 1" xmlns="http://www.w3.org/2000/svg" xmlns:xlink="http://www.w3.org/1999/xlink" viewBox="0 0 512 512"><defs><style>.cls-1{fill:url(#Adsız_degrade_12);}.cls-2{fill:url(#Adsız_degrade_13);}.cls-3{fill:url(#Adsız_degrade_13-2);}.cls-4{fill:url(#Adsız_degrade_13-3);}.cls-5{fill:url(#Adsız_degrade_13-4);}.cls-6{fill:url(#Adsız_degrade_13-5);}.cls-7{fill:url(#Adsız_degrade_13-6);}.cls-8{fill:url(#Adsız_degrade_13-7);}.cls-9{fill:url(#Adsız_degrade_13-8);}.cls-10{fill:url(#Adsız_degrade_9);}.cls-11{fill:url(#Adsız_degrade_9-2);}.cls-12{fill:url(#Adsız_degrade_9-3);}.cls-13{fill:url(#Adsız_degrade_9-4);}</style><linearGradient id="Adsız_degrade_12" x1="256" y1="125.36" x2="256" y2="439.47" gradientUnits="userSpaceOnUse"><stop offset="0" stop-color="#e9eb00"/><stop offset="0.77" stop-color="#e2ac00"/></linearGradient><linearGradient id="Adsız_degrade_13" x1="409.6" y1="405.33" x2="409.6" y2="439.47" gradientUnits="userSpaceOnUse"><stop offset="0.16" stop-color="#e3b300"/><stop offset="0.77" stop-color="#e2ac00"/></linearGradient><linearGradient id="Adsız_degrade_13-2" x1="384" y1="439.47" x2="384" y2="456.53" xlink:href="#Adsız_degrade_13"/><linearGradient id="Adsız_degrade_13-3" x1="409.6" y1="456.53" x2="409.6" y2="490.67" xlink:href="#Adsız_degrade_13"/><linearGradient id="Adsız_degrade_13-4" x1="435.2" y1="439.47" x2="435.2" y2="456.53" xlink:href="#Adsız_degrade_13"/><linearGradient id="Adsız_degrade_13-5" x1="137.52" y1="415.33" x2="137.52" y2="444.57" xlink:href="#Adsız_degrade_13"/><linearGradient id="Adsız_degrade_13-6" x1="101.26" y1="415.22" x2="101.26" y2="444.36" xlink:href="#Adsız_degrade_13"/><linearGradient id="Adsız_degrade_13-7" x1="101.26" y1="451.64" x2="101.26" y2="480.78" xlink:href="#Adsız_degrade_13"/><linearGradient id="Adsız_degrade_13-8" x1="137.57" y1="451.64" x2="137.57" y2="480.57" xlink:href="#Adsız_degrade_13"/><linearGradient id="Adsız_degrade_9" x1="452.27" y1="106.67" x2="452.27" y2="132.27" gradientUnits="userSpaceOnUse"><stop offset="0" stop-color="#e9eb00"/><stop offset="1" stop-color="#e5c500"/></linearGradient><linearGradient id="Adsız_degrade_9-2" x1="452.27" y1="149.33" x2="452.27" y2="174.93" xlink:href="#Adsız_degrade_9"/><linearGradient id="Adsız_degrade_9-3" x1="473.6" y1="132.27" x2="473.6" y2="149.33" xlink:href="#Adsız_degrade_9"/><linearGradient id="Adsız_degrade_9-4" x1="430.93" y1="132.27" x2="430.93" y2="149.33" xlink:href="#Adsız_degrade_9"/></defs><title>gold</title><g id="Page-1"><g id="_014---Gold-Ingots" data-name="014---Gold-Ingots"><path id="Shape" class="cls-1" d="M5.17,321.13,133,375.87l144,62.88c.11.05.23,0,.34.07a8.35,8.35,0,0,0,3.07.65A8.46,8.46,0,0,0,283,439l223.1-73a8.53,8.53,0,0,0,5.41-10.9L480.07,263.9a7.91,7.91,0,0,0-.4-.68,8.41,8.41,0,0,0-1-1.77,7.8,7.8,0,0,0-.76-.85,8.34,8.34,0,0,0-1.6-1.21,8,8,0,0,0-.85-.47c-.17-.08-.29-.2-.46-.26L435.05,243.7l-30.17-89.18a8.34,8.34,0,0,0-1.61-2.8,6.47,6.47,0,0,0-.55-.53,8.25,8.25,0,0,0-1.82-1.38,6.7,6.7,0,0,0-.9-.42,8.11,8.11,0,0,0-1-.45l-87.13-23.3a8.45,8.45,0,0,0-4.33,0L148,166.7a42.35,42.35,0,0,1-11.9-8.35,41.92,41.92,0,0,1-11.84-22.56,9.33,9.33,0,0,0-18.39,0,42.78,42.78,0,0,1-34.47,34.45,9.34,9.34,0,0,0,0,18.4A42,42,0,0,1,94,200.53l.12.14-5.17,13.76L33.35,232.11c-.15.05-.26.17-.4.22s-.31,0-.45.1a8.38,8.38,0,0,0-1,.72,8,8,0,0,0-1.38,1,8.18,8.18,0,0,0-1,1.21,7.88,7.88,0,0,0-.93,1.48c-.07.15-.2.26-.26.43L.54,310.3A8.53,8.53,0,0,0,5.17,321.13Zm132.4,19.09L122.51,285l31,12.66Zm9.54,23.19,22.23-59.28,64.05,26.15a6.6,6.6,0,0,0,.69.14l15.7,6.38,18.45,79.51Zm139.48,56.51-19.36-83.47,199.36-59.29,26,75.36Zm-29.06-98.4-19.3-7.84,189.7-54.4,17.22,6.45Zm-39.76-19.74L192.61,219l198.64-51.52,26.09,77.12Zm91.85-159.08,53.66,14.34L182.38,204l-25.06-9.47c-.22-.08-.45-.15-.68-.21l-7.33-2.75a42.06,42.06,0,0,1,9.39-2.94,9.39,9.39,0,0,0,7.68-9ZM115,151.38a84.78,84.78,0,0,0,28,28,80.06,80.06,0,0,0-14.38,11.2c-.22.21-.46.37-.67.6s-.37.33-.55.5A80.5,80.5,0,0,0,115,207.39a79.78,79.78,0,0,0-6.79-9.37c-.2-.21-.35-.45-.57-.64-1.58-1.89-3.16-3.78-4.93-5.53A81.53,81.53,0,0,0,87,179.43,82.63,82.63,0,0,0,115,151.38ZM105.81,223a9.34,9.34,0,0,0,18.4,0,41.81,41.81,0,0,1,9-19.29l17.66,6.61H151l.24.09.63.2,23,8.71,23.77,78.2-31-12.51-54.51-22.25-20.75-8.9,12.7-33.8c.22,1,.55,2,.73,3ZM76.56,247.32,61.2,241.15l20.13-6.42ZM40.87,251.4l37.49,15h.07l24.16,10.36,20.86,76.42-104-44.54Z"/><path id="Shape-2" data-name="Shape" class="cls-2" d="M418.13,413.87a8.53,8.53,0,1,0-17.07,0v17.07a8.53,8.53,0,1,0,17.07,0Z"/><path id="Shape-3" data-name="Shape" class="cls-3" d="M392.53,439.47H375.47a8.53,8.53,0,0,0,0,17.07h17.07a8.53,8.53,0,1,0,0-17.07Z"/><path id="Shape-4" data-name="Shape" class="cls-4" d="M409.6,490.67a8.53,8.53,0,0,0,8.53-8.53V465.07a8.53,8.53,0,1,0-17.07,0v17.07A8.53,8.53,0,0,0,409.6,490.67Z"/><path id="Shape-5" data-name="Shape" class="cls-5" d="M426.67,456.53h17.07a8.53,8.53,0,1,0,0-17.07H426.67a8.53,8.53,0,1,0,0,17.07Z"/><path id="Shape-6" data-name="Shape" class="cls-6" d="M149.64,417.83a8.53,8.53,0,0,0-12.07,0L125.5,429.9A8.53,8.53,0,1,0,137.57,442l12.07-12.07A8.53,8.53,0,0,0,149.64,417.83Z"/><path id="Shape-7" data-name="Shape" class="cls-7" d="M113.43,429.9l-12.07-12.07a8.53,8.53,0,1,0-12.07,12.07L101.37,442a8.53,8.53,0,0,0,12.07-12.07Z"/><path id="Shape-8" data-name="Shape" class="cls-8" d="M101.37,454,89.29,466.11a8.53,8.53,0,1,0,12.07,12.07l12.07-12.07A8.53,8.53,0,0,0,101.37,454Z"/><path id="Shape-9" data-name="Shape" class="cls-9" d="M137.57,454A8.53,8.53,0,0,0,125.5,466.1l12.07,12.07a8.53,8.53,0,0,0,12.07-12.07Z"/><path id="Shape-10" data-name="Shape" class="cls-10" d="M460.8,115.2a8.53,8.53,0,1,0-17.07,0v8.53a8.53,8.53,0,1,0,17.07,0Z"/><path id="Shape-11" data-name="Shape" class="cls-11" d="M452.27,174.93a8.53,8.53,0,0,0,8.53-8.53v-8.53a8.53,8.53,0,1,0-17.07,0v8.53A8.53,8.53,0,0,0,452.27,174.93Z"/><path id="Shape-12" data-name="Shape" class="cls-12" d="M469.33,149.33h8.53a8.53,8.53,0,1,0,0-17.07h-8.53a8.53,8.53,0,1,0,0,17.07Z"/><path id="Shape-13" data-name="Shape" class="cls-13" d="M435.2,132.27h-8.53a8.53,8.53,0,1,0,0,17.07h8.53a8.53,8.53,0,1,0,0-17.07Z"/></g></g></svg>