<svg width="14" height="15" viewBox="0 0 14 15" fill="none" xmlns="http://www.w3.org/2000/svg">
<path d="M6.86 14.07H1.26C1.05843 14.07 0.865127 13.9899 0.722599 13.8474C0.580071 13.7049 0.5 13.5116 0.5 13.31V0.99999C0.5 0.798426 0.580071 0.605117 0.722599 0.462589C0.865127 0.320062 1.05843 0.23999 1.26 0.23999H6.86C7.06157 0.23999 7.25487 0.320062 7.3974 0.462589C7.53993 0.605117 7.62 0.798426 7.62 0.99999V2.89999C7.62 2.96629 7.59366 3.02988 7.54678 3.07677C7.49989 3.12365 7.4363 3.14999 7.37 3.14999C7.30369 3.14999 7.24011 3.12365 7.19322 3.07677C7.14634 3.02988 7.12 2.96629 7.12 2.89999V0.99999C7.12 0.933686 7.09366 0.870098 7.04678 0.823214C6.99989 0.776329 6.9363 0.74999 6.87 0.74999H1.27C1.23553 0.747224 1.20085 0.75164 1.16817 0.762959C1.1355 0.774277 1.10552 0.792252 1.08015 0.815748C1.05477 0.839245 1.03455 0.867751 1.02075 0.899464C1.00696 0.931177 0.999889 0.965407 1 0.99999V13.31C1 13.3763 1.02634 13.4399 1.07322 13.4868C1.12011 13.5337 1.1837 13.56 1.25 13.56H6.85C6.9163 13.56 6.97989 13.5337 7.02678 13.4868C7.07366 13.4399 7.1 13.3763 7.1 13.31V9.40999C7.1 9.34369 7.12634 9.2801 7.17322 9.23321C7.22011 9.18633 7.28369 9.15999 7.35 9.15999C7.4163 9.15999 7.47989 9.18633 7.52678 9.23321C7.57366 9.2801 7.6 9.34369 7.6 9.40999V13.32C7.59748 13.5164 7.51902 13.7042 7.38106 13.844C7.2431 13.9839 7.05636 14.0648 6.86 14.07V14.07Z" fill="#DFDFDF"/>
<path d="M4.06 13.22C3.89189 13.22 3.72754 13.1701 3.58776 13.0767C3.44798 12.9833 3.33904 12.8506 3.2747 12.6953C3.21037 12.54 3.19353 12.369 3.22633 12.2042C3.25913 12.0393 3.34008 11.8878 3.45896 11.7689C3.57783 11.6501 3.72929 11.5691 3.89417 11.5363C4.05905 11.5035 4.22996 11.5204 4.38528 11.5847C4.5406 11.649 4.67335 11.758 4.76675 11.8978C4.86015 12.0375 4.91 12.2019 4.91 12.37C4.91 12.4816 4.88801 12.5921 4.8453 12.6953C4.80258 12.7984 4.73997 12.8921 4.66104 12.971C4.58211 13.05 4.48841 13.1126 4.38528 13.1553C4.28215 13.198 4.17162 13.22 4.06 13.22ZM4.06 12.02C3.99078 12.02 3.92311 12.0405 3.86555 12.079C3.80799 12.1174 3.76313 12.1721 3.73664 12.2361C3.71015 12.3 3.70322 12.3704 3.71672 12.4383C3.73023 12.5062 3.76356 12.5685 3.81251 12.6175C3.86146 12.6664 3.92382 12.6998 3.99172 12.7133C4.05961 12.7268 4.12998 12.7198 4.19394 12.6933C4.25789 12.6669 4.31255 12.622 4.35101 12.5644C4.38947 12.5069 4.41 12.4392 4.41 12.37C4.41272 12.3224 4.40569 12.2747 4.38932 12.2299C4.37296 12.1851 4.34761 12.1441 4.31483 12.1095C4.28206 12.0748 4.24255 12.0472 4.19872 12.0284C4.1549 12.0096 4.10769 11.9999 4.06 12V12.02Z" fill="#DFDFDF"/>
<path d="M7.36 2.5H0.759995C0.69369 2.5 0.630102 2.47366 0.583218 2.42678C0.536334 2.37989 0.509995 2.3163 0.509995 2.25C0.509995 2.1837 0.536334 2.12011 0.583218 2.07322C0.630102 2.02634 0.69369 2 0.759995 2H7.36C7.4263 2 7.48989 2.02634 7.53677 2.07322C7.58366 2.12011 7.61 2.1837 7.61 2.25C7.61 2.3163 7.58366 2.37989 7.53677 2.42678C7.48989 2.47366 7.4263 2.5 7.36 2.5Z" fill="#DFDFDF"/>
<path d="M7.36 11.14H0.759995C0.69369 11.14 0.630102 11.1137 0.583218 11.0668C0.536334 11.0199 0.509995 10.9563 0.509995 10.89C0.509995 10.8237 0.536334 10.7601 0.583218 10.7132C0.630102 10.6664 0.69369 10.64 0.759995 10.64H7.36C7.4263 10.64 7.48989 10.6664 7.53677 10.7132C7.58366 10.7601 7.61 10.8237 7.61 10.89C7.61 10.9563 7.58366 11.0199 7.53677 11.0668C7.48989 11.1137 7.4263 11.14 7.36 11.14Z" fill="#DFDFDF"/>
<path d="M4.38 1.63H3.75C3.6837 1.63 3.62011 1.60367 3.57322 1.55678C3.52634 1.5099 3.5 1.44631 3.5 1.38C3.5 1.3137 3.52634 1.25011 3.57322 1.20323C3.62011 1.15635 3.6837 1.13 3.75 1.13H4.38C4.44631 1.13 4.50989 1.15635 4.55678 1.20323C4.60366 1.25011 4.63 1.3137 4.63 1.38C4.63 1.44631 4.60366 1.5099 4.55678 1.55678C4.50989 1.60367 4.44631 1.63 4.38 1.63Z" fill="#DFDFDF"/>
<path d="M4.71 9.84999C4.67145 9.85112 4.63317 9.84332 4.59813 9.82719C4.5631 9.81107 4.53227 9.78706 4.50807 9.75704C4.48386 9.72702 4.46692 9.69181 4.45858 9.65415C4.45024 9.6165 4.45073 9.57743 4.46 9.53999L4.85 7.83999V4.44999C4.85 4.24578 4.93113 4.04992 5.07553 3.90552C5.21993 3.76112 5.41578 3.67999 5.62 3.67999H12.71C12.9142 3.67999 13.1101 3.76112 13.2545 3.90552C13.3989 4.04992 13.48 4.24578 13.48 4.44999V7.86999C13.48 8.07421 13.3989 8.27006 13.2545 8.41446C13.1101 8.55887 12.9142 8.63999 12.71 8.63999H6.71L4.85 9.80999C4.80834 9.83692 4.7596 9.85084 4.71 9.84999ZM5.63 4.18999C5.55839 4.18999 5.48971 4.21844 5.43908 4.26907C5.38845 4.31971 5.36 4.38838 5.36 4.45999V7.87999C5.36232 7.89992 5.36232 7.92006 5.36 7.93999L5.1 9.06999L6.5 8.18999C6.54258 8.17853 6.58743 8.17853 6.63 8.18999H12.72C12.7916 8.18999 12.8603 8.16155 12.9109 8.11091C12.9616 8.06028 12.99 7.9916 12.99 7.91999V4.44999C12.99 4.37838 12.9616 4.30971 12.9109 4.25907C12.8603 4.20844 12.7916 4.17999 12.72 4.17999L5.63 4.18999Z" fill="#BABABA"/>
<path d="M7.18 7.37999H6.63C6.46292 7.37999 6.30268 7.31362 6.18453 7.19547C6.06638 7.07732 6 6.91708 6 6.74999C6 6.68369 6.02634 6.6201 6.07323 6.57322C6.12011 6.52633 6.1837 6.49999 6.25 6.49999C6.31631 6.49999 6.3799 6.52633 6.42678 6.57322C6.47366 6.6201 6.5 6.68369 6.5 6.74999C6.5 6.78182 6.51265 6.81234 6.53515 6.83484C6.55766 6.85735 6.58818 6.86999 6.62 6.86999H7.17C7.20183 6.86999 7.23235 6.85735 7.25486 6.83484C7.27736 6.81234 7.29 6.78182 7.29 6.74999V6.52999C7.29 6.49817 7.27736 6.46764 7.25486 6.44514C7.23235 6.42263 7.20183 6.40999 7.17 6.40999H6.62C6.45292 6.40999 6.29267 6.34362 6.17453 6.22547C6.05638 6.10732 5.99001 5.94708 5.99001 5.77999V5.55999C5.99001 5.39291 6.05638 5.23266 6.17453 5.11452C6.29267 4.99637 6.45292 4.92999 6.62 4.92999H7.17C7.25273 4.92999 7.33466 4.94629 7.41109 4.97795C7.48753 5.00961 7.55698 5.05601 7.61548 5.11452C7.67398 5.17302 7.72039 5.24247 7.75205 5.3189C7.78371 5.39534 7.8 5.47726 7.8 5.55999C7.8 5.6263 7.77366 5.68988 7.72678 5.73677C7.6799 5.78365 7.61631 5.80999 7.55 5.80999C7.4837 5.80999 7.42011 5.78365 7.37323 5.73677C7.32634 5.68988 7.3 5.6263 7.3 5.55999C7.3 5.52817 7.28736 5.49764 7.26486 5.47514C7.24235 5.45264 7.21183 5.43999 7.18 5.43999H6.63C6.59818 5.43999 6.56766 5.45264 6.54515 5.47514C6.52265 5.49764 6.51 5.52817 6.51 5.55999V5.77999C6.51 5.81182 6.52265 5.84234 6.54515 5.86485C6.56766 5.88735 6.59818 5.89999 6.63 5.89999H7.18C7.34709 5.89999 7.50733 5.96637 7.62548 6.08451C7.74363 6.20266 7.81001 6.36291 7.81001 6.52999V6.74999C7.81001 6.91708 7.74363 7.07732 7.62548 7.19547C7.50733 7.31362 7.34709 7.37999 7.18 7.37999V7.37999Z" fill="#BABABA"/>
<path d="M6.91 5.44C6.8437 5.44 6.78011 5.41366 6.73323 5.36678C6.68634 5.31989 6.66 5.2563 6.66 5.19V4.81C6.66 4.74369 6.68634 4.6801 6.73323 4.63322C6.78011 4.58634 6.8437 4.56 6.91 4.56C6.97631 4.56 7.0399 4.58634 7.08678 4.63322C7.13366 4.6801 7.16 4.74369 7.16 4.81V5.19C7.16 5.2563 7.13366 5.31989 7.08678 5.36678C7.0399 5.41366 6.97631 5.44 6.91 5.44Z" fill="#BABABA"/>
<path d="M6.91 7.76001C6.8437 7.76001 6.78011 7.73367 6.73323 7.68678C6.68634 7.6399 6.66 7.57631 6.66 7.51001V7.13C6.66 7.0637 6.68634 7.00011 6.73323 6.95323C6.78011 6.90635 6.8437 6.88 6.91 6.88C6.97631 6.88 7.0399 6.90635 7.08678 6.95323C7.13366 7.00011 7.16 7.0637 7.16 7.13V7.51001C7.16 7.57631 7.13366 7.6399 7.08678 7.68678C7.0399 7.73367 6.97631 7.76001 6.91 7.76001Z" fill="#BABABA"/>
<path d="M9.58 7.37999H9C8.83291 7.37999 8.67267 7.31362 8.55452 7.19547C8.43637 7.07732 8.37 6.91708 8.37 6.74999C8.37 6.68369 8.39633 6.6201 8.44322 6.57322C8.4901 6.52633 8.55369 6.49999 8.62 6.49999C8.6863 6.49999 8.74989 6.52633 8.79677 6.57322C8.84366 6.6201 8.87 6.68369 8.87 6.74999C8.87 6.78182 8.88264 6.81234 8.90514 6.83484C8.92765 6.85735 8.95817 6.86999 8.99 6.86999H9.54C9.57182 6.86999 9.60234 6.85735 9.62485 6.83484C9.64735 6.81234 9.66 6.78182 9.66 6.74999V6.52999C9.66 6.49817 9.64735 6.46764 9.62485 6.44514C9.60234 6.42263 9.57182 6.40999 9.54 6.40999H9C8.83291 6.40999 8.67267 6.34362 8.55452 6.22547C8.43637 6.10732 8.37 5.94708 8.37 5.77999V5.55999C8.37 5.39291 8.43637 5.23266 8.55452 5.11452C8.67267 4.99637 8.83291 4.92999 9 4.92999H9.55C9.71708 4.92999 9.87732 4.99637 9.99547 5.11452C10.1136 5.23266 10.18 5.39291 10.18 5.55999C10.18 5.6263 10.1537 5.68988 10.1068 5.73677C10.0599 5.78365 9.9963 5.80999 9.93 5.80999C9.86369 5.80999 9.8001 5.78365 9.75322 5.73677C9.70634 5.68988 9.68 5.6263 9.68 5.55999C9.68 5.52817 9.66735 5.49764 9.64485 5.47514C9.62234 5.45264 9.59182 5.43999 9.56 5.43999H9C8.96817 5.43999 8.93765 5.45264 8.91514 5.47514C8.89264 5.49764 8.88 5.52817 8.88 5.55999V5.77999C8.88 5.81182 8.89264 5.84234 8.91514 5.86485C8.93765 5.88735 8.96817 5.89999 9 5.89999H9.55C9.71708 5.89999 9.87732 5.96637 9.99547 6.08451C10.1136 6.20266 10.18 6.36291 10.18 6.52999V6.74999C10.1802 6.91201 10.1179 7.06787 10.0062 7.18519C9.89447 7.30251 9.74183 7.37228 9.58 7.37999V7.37999Z" fill="#BABABA"/>
<path d="M9.3 5.44C9.2337 5.44 9.17011 5.41366 9.12323 5.36678C9.07634 5.31989 9.05 5.2563 9.05 5.19V4.81C9.05 4.74369 9.07634 4.6801 9.12323 4.63322C9.17011 4.58634 9.2337 4.56 9.3 4.56C9.36631 4.56 9.4299 4.58634 9.47678 4.63322C9.52366 4.6801 9.55 4.74369 9.55 4.81V5.19C9.55 5.2563 9.52366 5.31989 9.47678 5.36678C9.4299 5.41366 9.36631 5.44 9.3 5.44Z" fill="#BABABA"/>
<path d="M9.3 7.76001C9.2337 7.76001 9.17011 7.73367 9.12323 7.68678C9.07634 7.6399 9.05 7.57631 9.05 7.51001V7.13C9.05 7.0637 9.07634 7.00011 9.12323 6.95323C9.17011 6.90635 9.2337 6.88 9.3 6.88C9.36631 6.88 9.4299 6.90635 9.47678 6.95323C9.52366 7.00011 9.55 7.0637 9.55 7.13V7.51001C9.55 7.57631 9.52366 7.6399 9.47678 7.68678C9.4299 7.73367 9.36631 7.76001 9.3 7.76001Z" fill="#BABABA"/>
<path d="M12 7.37999H11.45C11.2829 7.37999 11.1227 7.31362 11.0045 7.19547C10.8864 7.07732 10.82 6.91708 10.82 6.74999C10.82 6.68369 10.8463 6.6201 10.8932 6.57322C10.9401 6.52633 11.0037 6.49999 11.07 6.49999C11.1363 6.49999 11.1999 6.52633 11.2468 6.57322C11.2937 6.6201 11.32 6.68369 11.32 6.74999C11.32 6.78182 11.3326 6.81234 11.3551 6.83484C11.3777 6.85735 11.4082 6.86999 11.44 6.86999H12C12.0318 6.86999 12.0623 6.85735 12.0849 6.83484C12.1074 6.81234 12.12 6.78182 12.12 6.74999V6.52999C12.12 6.49817 12.1074 6.46764 12.0849 6.44514C12.0623 6.42263 12.0318 6.40999 12 6.40999H11.45C11.2829 6.40999 11.1227 6.34362 11.0045 6.22547C10.8864 6.10732 10.82 5.94708 10.82 5.77999V5.55999C10.82 5.39291 10.8864 5.23266 11.0045 5.11452C11.1227 4.99637 11.2829 4.92999 11.45 4.92999H12C12.1671 4.92999 12.3273 4.99637 12.4455 5.11452C12.5636 5.23266 12.63 5.39291 12.63 5.55999C12.63 5.6263 12.6037 5.68988 12.5568 5.73677C12.5099 5.78365 12.4463 5.80999 12.38 5.80999C12.3137 5.80999 12.2501 5.78365 12.2032 5.73677C12.1563 5.68988 12.13 5.6263 12.13 5.55999C12.13 5.52817 12.1174 5.49764 12.0949 5.47514C12.0723 5.45264 12.0418 5.43999 12.01 5.43999H11.46C11.4282 5.43999 11.3977 5.45264 11.3751 5.47514C11.3526 5.49764 11.34 5.52817 11.34 5.55999V5.77999C11.34 5.81182 11.3526 5.84234 11.3751 5.86485C11.3977 5.88735 11.4282 5.89999 11.46 5.89999H12C12.1671 5.89999 12.3273 5.96637 12.4455 6.08451C12.5636 6.20266 12.63 6.36291 12.63 6.52999V6.74999C12.63 6.91708 12.5636 7.07732 12.4455 7.19547C12.3273 7.31362 12.1671 7.37999 12 7.37999V7.37999Z" fill="#BABABA"/>
<path d="M11.7 5.44C11.6337 5.44 11.5701 5.41366 11.5232 5.36678C11.4763 5.31989 11.45 5.2563 11.45 5.19V4.81C11.45 4.74369 11.4763 4.6801 11.5232 4.63322C11.5701 4.58634 11.6337 4.56 11.7 4.56C11.7663 4.56 11.8299 4.58634 11.8768 4.63322C11.9237 4.6801 11.95 4.74369 11.95 4.81V5.19C11.95 5.2563 11.9237 5.31989 11.8768 5.36678C11.8299 5.41366 11.7663 5.44 11.7 5.44Z" fill="#BABABA"/>
<path d="M11.7 7.76001C11.6337 7.76001 11.5701 7.73367 11.5232 7.68678C11.4763 7.6399 11.45 7.57631 11.45 7.51001V7.13C11.45 7.0637 11.4763 7.00011 11.5232 6.95323C11.5701 6.90635 11.6337 6.88 11.7 6.88C11.7663 6.88 11.8299 6.90635 11.8768 6.95323C11.9237 7.00011 11.95 7.0637 11.95 7.13V7.51001C11.95 7.57631 11.9237 7.6399 11.8768 7.68678C11.8299 7.73367 11.7663 7.76001 11.7 7.76001Z" fill="#BABABA"/>
</svg>
