<svg id="Layer_2" data-name="Layer 2" xmlns="http://www.w3.org/2000/svg" xmlns:xlink="http://www.w3.org/1999/xlink" viewBox="0 0 101.6 107.84"><defs><style>.cls-1{fill:url(#Adsız_degrade_10);}.cls-2{fill:url(#Adsız_degrade_10-2);}.cls-3{fill:url(#Adsız_degrade_10-3);}.cls-4{fill:url(#Adsız_degrade_10-4);}.cls-5{fill:url(#Adsız_degrade_10-5);}.cls-6{fill:url(#Adsız_degrade_14);}</style><linearGradient id="Adsız_degrade_10" x1="50.8" y1="9.71" x2="50.8" y2="103.92" gradientUnits="userSpaceOnUse"><stop offset="0" stop-color="#666"/><stop offset="0.77" stop-color="#2a2a2a"/></linearGradient><linearGradient id="Adsız_degrade_10-2" x1="80.99" y1="67.04" x2="80.99" y2="92.71" xlink:href="#Adsız_degrade_10"/><linearGradient id="Adsız_degrade_10-3" x1="61.93" y1="63.63" x2="61.93" y2="92.71" xlink:href="#Adsız_degrade_10"/><linearGradient id="Adsız_degrade_10-4" x1="42.86" y1="55.5" x2="42.86" y2="92.71" xlink:href="#Adsız_degrade_10"/><linearGradient id="Adsız_degrade_10-5" x1="23.8" y1="41.85" x2="23.8" y2="92.71" xlink:href="#Adsız_degrade_10"/><linearGradient id="Adsız_degrade_14" x1="53.91" y1="3.92" x2="53.91" y2="64.47" gradientUnits="userSpaceOnUse"><stop offset="0" stop-color="#666"/><stop offset="1" stop-color="#7a7c7f"/></linearGradient></defs><title>kaldirac</title><path class="cls-1" d="M97.76,99.21a1.94,1.94,0,0,0-.42-2.13h0l-3.52-3.52a1.94,1.94,0,0,0-3.31,1.38,1.9,1.9,0,0,0,.57,1.36l.21.21H11.09V16.33l.21.21A1.94,1.94,0,0,0,14,13.79l-3.52-3.52h0a1.93,1.93,0,0,0-2.73,0L4.26,13.79A1.94,1.94,0,0,0,7,16.53l.21-.21V98.46a1.94,1.94,0,0,0,1.94,1.94H91.28l-.2.2a1.94,1.94,0,0,0,1.37,3.32,1.92,1.92,0,0,0,1.36-.57l3.53-3.52a2,2,0,0,0,.31-.47C97.68,99.31,97.73,99.27,97.76,99.21Z"/><path class="cls-2" d="M75,67A1.94,1.94,0,0,0,73,69V90.77A1.94,1.94,0,0,0,75,92.71H87a1.94,1.94,0,0,0,1.94-1.94V69A1.94,1.94,0,0,0,87,67Zm10.06,3.88V88.83H76.93V70.92Z"/><path class="cls-3" d="M55.93,63.63A1.94,1.94,0,0,0,54,65.57v25.2a1.94,1.94,0,0,0,1.94,1.94h12a1.94,1.94,0,0,0,1.94-1.94V65.57a1.94,1.94,0,0,0-1.94-1.94Zm1.94,25.2V67.51H66V88.83Z"/><path class="cls-4" d="M36.86,55.5a1.94,1.94,0,0,0-1.94,1.94V90.77a1.94,1.94,0,0,0,1.94,1.94h12a1.94,1.94,0,0,0,1.94-1.94V57.44a1.94,1.94,0,0,0-1.94-1.94Zm10.06,3.88V88.83H38.8V59.37Z"/><path class="cls-5" d="M17.8,92.71h12a1.94,1.94,0,0,0,1.94-1.94v-47a1.94,1.94,0,0,0-1.94-1.94h-12a1.94,1.94,0,0,0-1.94,1.94v47A1.94,1.94,0,0,0,17.8,92.71Zm1.94-3.88V45.73h8.12v43.1Z"/><path class="cls-6" d="M85.59,60.29l-.86.94a1.94,1.94,0,0,0,1.43,3.24,1.89,1.89,0,0,0,1.43-.63l3.75-4.09h0A1.92,1.92,0,0,0,91.21,57h0l0,0h0l-4.07-3.73a2,2,0,0,0-2.73.12,1.93,1.93,0,0,0,.12,2.74l.28.26c-14.35-.9-54.71-7.39-65-51A2,2,0,0,0,17.46,4,1.94,1.94,0,0,0,16,6.29C27.14,53.45,72,59.53,85.59,60.29Z"/></svg>