<svg id="Layer_2" data-name="Layer 2" xmlns="http://www.w3.org/2000/svg" xmlns:xlink="http://www.w3.org/1999/xlink" viewBox="0 0 13.38 9.33"><defs><style>.cls-1{fill:url(#Adsız_degrade_12);}</style><linearGradient id="Adsız_degrade_12" x1="6.69" x2="6.69" y2="9.33" gradientUnits="userSpaceOnUse"><stop offset="0" stop-color="#e9eb00"/><stop offset="0.77" stop-color="#e2ac00"/></linearGradient></defs><title>mail</title><path class="cls-1" d="M13.28.12h0l-.06,0-.06,0h0L13,0H.37L.27,0h0L.17.07.11.11h0A.37.37,0,0,0,0,.38V9A.35.35,0,0,0,0,9a.38.38,0,0,0,0,.09l0,.06,0,.06h0l.07,0a.36.36,0,0,0,.2.07H13a.36.36,0,0,0,.19-.06l.07-.05h0l0,0,0-.07a.38.38,0,0,0,0-.08.35.35,0,0,0,0-.06V.38A.37.37,0,0,0,13.28.12ZM6.69,5.89,1.31.75H12.07ZM4.32,4.66.75,8.08V1.25Zm.54.52,1.57,1.5a.37.37,0,0,0,.26.1.38.38,0,0,0,.26-.1l1.57-1.5,3.56,3.4H1.31Zm4.19-.52,3.57-3.41V8.08Z"/></svg>