<svg width="170" height="159" viewBox="0 0 170 159" fill="none" xmlns="http://www.w3.org/2000/svg">
<path fill-rule="evenodd" clip-rule="evenodd" d="M145.352 15.164L44.189 6.33299C44.189 6.33299 16.404 3.98399 11.271 5.52999C6.138 7.07599 -2.33 14.154 0.834 24.799C3.997 35.444 36.16 145.231 36.16 145.231C36.16 145.231 38.617 160.278 59.444 158.077C80.271 155.876 142.141 146.837 142.141 146.837C142.141 146.837 157.711 143.417 158.198 119.539C158.685 95.66 158.198 44.068 158.198 44.068C158.198 44.068 161.678 17.038 145.352 15.164Z" fill="#E2AC00"/>
<path fill-rule="evenodd" clip-rule="evenodd" d="M29.737 11.953L111.631 1.515C111.631 1.515 132.065 -4.64499 136.521 12.756C140.976 30.156 163.819 111.51 163.819 111.51C163.819 111.51 171.406 136.261 168.636 140.414C165.866 144.567 162.574 151.516 140.535 149.245C118.496 146.975 30.54 140.414 30.54 140.414C30.54 140.414 12.435 140.275 12.074 124.356C11.712 108.437 12.074 32.025 12.074 32.025C12.074 32.025 10.602 15.164 29.737 11.953Z" fill="#434343"/>
</svg>
