<svg id="Layer_2" data-name="Layer 2" xmlns="http://www.w3.org/2000/svg" xmlns:xlink="http://www.w3.org/1999/xlink" viewBox="0 0 15.5 15.68"><defs><style>.cls-1{fill:url(#Adsız_degrade_12);}.cls-2{fill:url(#Adsız_degrade_5);}.cls-3{fill:url(#Adsız_degrade_3);}.cls-4{fill:url(#Adsız_degrade_12-2);}</style><linearGradient id="Adsız_degrade_12" x1="7.75" x2="7.75" y2="15.68" gradientUnits="userSpaceOnUse"><stop offset="0" stop-color="#e9eb00"/><stop offset="0.77" stop-color="#e2ac00"/></linearGradient><linearGradient id="Adsız_degrade_5" x1="11.89" y1="1.61" x2="11.89" y2="5.79" gradientUnits="userSpaceOnUse"><stop offset="0" stop-color="#e9eb00"/><stop offset="0.77" stop-color="#e2c000"/></linearGradient><linearGradient id="Adsız_degrade_3" x1="8.77" y1="0.48" x2="8.77" y2="5.18" gradientUnits="userSpaceOnUse"><stop offset="0" stop-color="#e9eb00"/><stop offset="0.77" stop-color="#e2c800"/></linearGradient><linearGradient id="Adsız_degrade_12-2" x1="12.71" y1="5.22" x2="12.71" y2="8.15" xlink:href="#Adsız_degrade_12"/></defs><title>phone 2</title><path class="cls-1" d="M15.06,11.33,13.65,9.92a1.55,1.55,0,0,0-2.17,0l-1.07.82a1.45,1.45,0,0,1-1.2.28C6.85,10.47,5.4,7.83,4.76,6.3a1.43,1.43,0,0,1,.18-1.43L5.59,4a1.56,1.56,0,0,0,0-2.18L4.17.44a1.58,1.58,0,0,0-2-.13L2,.41A5.12,5.12,0,0,0,0,5a12.1,12.1,0,0,0,3.72,7.1,12.29,12.29,0,0,0,5.39,3.34,5.6,5.6,0,0,0,1.47.2,5.69,5.69,0,0,0,4.48-2.19l.09-.12A1.58,1.58,0,0,0,15.06,11.33ZM4.07,6.6c.71,1.66,2.29,4.54,5,5.14a2.2,2.2,0,0,0,1.82-.42L12,10.48l0,0a.82.82,0,0,1,1.13,0l1.41,1.41a.83.83,0,0,1,.06,1.05L14.5,13a4.94,4.94,0,0,1-5.16,1.74,11.54,11.54,0,0,1-5.05-3.14A11.36,11.36,0,0,1,.78,5,4.36,4.36,0,0,1,2.47,1L2.6.9A.78.78,0,0,1,3.08.75.8.8,0,0,1,3.64,1L5,2.38a.79.79,0,0,1,.23.57A.81.81,0,0,1,5,3.52l-.69.9A2.18,2.18,0,0,0,4.07,6.6Z"/><path class="cls-2" d="M9.91,5.68a.38.38,0,0,0,.53,0l3.42-3.42A.38.38,0,0,0,14,2a.38.38,0,0,0-.37-.37h0a.37.37,0,0,0-.26.11L9.91,5.15A.38.38,0,0,0,9.91,5.68Z"/><path class="cls-3" d="M7.44,5.13a.38.38,0,0,0,.19,0A.37.37,0,0,0,7.95,5l2.28-4A.37.37,0,1,0,9.58.67l-2.28,4a.38.38,0,0,0,.14.51Z"/><path class="cls-4" d="M10.49,8a.38.38,0,0,0,.32.19.38.38,0,0,0,.19,0l3.79-2.19a.38.38,0,0,0,.14-.51.37.37,0,0,0-.23-.17.37.37,0,0,0-.28,0L10.63,7.45A.38.38,0,0,0,10.49,8Z"/></svg>