<?xml version="1.0" encoding="utf-8"?>
<!-- Generator: Adobe Illustrator 21.0.0, SVG Export Plug-In . SVG Version: 6.00 Build 0)  -->
<svg version="1.1" id="katman_1" xmlns="http://www.w3.org/2000/svg" xmlns:xlink="http://www.w3.org/1999/xlink" x="0px" y="0px"
	 viewBox="0 0 480 480" style="enable-background:new 0 0 480 480;" xml:space="preserve">
<style type="text/css">
	.st0{fill:#F7F7F7;}
</style>
<path class="st0" d="M240,0C107.5,0,0,107.5,0,240s107.5,240,240,240s240-107.5,240-240C479.9,107.5,372.5,0.1,240,0z M240,464
	C116.3,464,16,363.7,16,240S116.3,16,240,16s224,100.3,224,224C463.9,363.7,363.7,463.9,240,464z"/>
<path class="st0" d="M197,129.8c-2.4-1.9-5.7-2.3-8.5-1s-4.6,4.1-4.6,7.2v208c0,3.1,1.8,5.9,4.6,7.2s6.1,0.9,8.5-1l128-104
	c1.9-1.5,3-3.8,3-6.2s-1.1-4.7-3-6.2L197,129.8z M200,327.2V152.8L307.3,240L200,327.2z"/>
</svg>
