<svg id="Flat" xmlns="http://www.w3.org/2000/svg" viewBox="0 0 512 512"><defs><style>.cls-1{fill:#434343;}</style></defs><title>trader</title><path class="cls-1" d="M152,368H72V352h64V320h16Z"/><path class="cls-1" d="M136,320H76.69l-24-24H24V280H59.31l24,24H136Z"/><path class="cls-1" d="M120,408h48v16H120Z"/><path class="cls-1" d="M232,464H216V380.69l16-16V312h16v59.31l-16,16Z"/><path class="cls-1" d="M218.34,389.66,184,355.31V256h16v92.69l29.66,29.66Z"/><path class="cls-1" d="M136,256h16v48H136Z"/><path class="cls-1" d="M379.31,336H320V320h52.69l24-24H456v16H403.31Z"/><path class="cls-1" d="M368,440H352V376h72v16H368Z"/><path class="cls-1" d="M304,456H288V388.69l16-16V336h16v43.31l-16,16Z"/><path class="cls-1" d="M320,320H304V284.69l42.34-42.34,11.31,11.31L320,291.31Z"/><path class="cls-1" d="M456,256h16v40H456Z"/><path class="cls-1" d="M232,256h16v40H232Z"/><circle class="cls-1" cx="144" cy="312" r="16"/><circle class="cls-1" cx="240" cy="304" r="16"/><circle class="cls-1" cx="312" cy="328" r="16"/><circle class="cls-1" cx="296" cy="464" r="16"/><circle class="cls-1" cx="464" cy="304" r="16"/><circle class="cls-1" cx="432" cy="384" r="16"/><circle class="cls-1" cx="360" cy="448" r="16"/><circle class="cls-1" cx="224" cy="472" r="16"/><circle class="cls-1" cx="64" cy="360" r="16"/><circle class="cls-1" cx="112" cy="416" r="16"/><circle class="cls-1" cx="176" cy="416" r="16"/><path class="cls-1" d="M355.9,87.38c-19.42-25-43.14-42.92-69.34-50.83,9.29,13.68,17.08,33.46,23.3,57.09,16.54-1.48,32-3.62,46-6.26Z"/><path class="cls-1" d="M307.86,174a537.05,537.05,0,0,0-10.33-63.42c-13.78.94-27.71,1.43-41.54,1.43s-27.76-.49-41.53-1.43A537.32,537.32,0,0,0,204.14,174c16.84,1.3,34.18,2,51.86,2S291,175.3,307.86,174Z"/><path class="cls-1" d="M196.15,31.83a231.13,231.13,0,0,0-85.82,43.65,281.89,281.89,0,0,0,28.81,8.34C155.34,61.36,174.71,43.58,196.15,31.83Z"/><path class="cls-1" d="M256,192c-18.29,0-36.1-.71-53.35-2C201,210.35,200,232.38,200,256H312c0-23.62-1-45.65-2.65-66-17.26,1.3-35.06,2-53.35,2Z"/><path class="cls-1" d="M156.1,87.38c14.08,2.65,29.49,4.78,46,6.26,6.22-23.63,14-43.41,23.3-57.1C199.26,44.46,175.52,62.37,156.1,87.38Z"/><path class="cls-1" d="M188.34,172.59a582.53,582.53,0,0,1,10-63.34A499.44,499.44,0,0,1,146,101.58a248.75,248.75,0,0,0-27.71,59.59,570.15,570.15,0,0,0,70,11.42Z"/><path class="cls-1" d="M256,96c13,0,25.54-.41,37.57-1.14C282.37,54.41,268,32,256,32s-26.37,22.41-37.57,62.86C230.46,95.59,243,96,256,96Z"/><path class="cls-1" d="M47,155.24A231.11,231.11,0,0,0,24,256H88a331.83,331.83,0,0,1,10.38-83A366.13,366.13,0,0,1,47,155.24Z"/><path class="cls-1" d="M325.18,188.62C327,210.73,328,233.5,328,256h80a318,318,0,0,0-9.84-79.18,576.42,576.42,0,0,1-73,11.8Z"/><path class="cls-1" d="M415.29,87.42a265,265,0,0,1-33.06,10.46,268.69,268.69,0,0,1,26.86,59.46A364.52,364.52,0,0,0,457.46,141a232.71,232.71,0,0,0-42.18-53.59Z"/><path class="cls-1" d="M413.62,173A331.83,331.83,0,0,1,424,256h64a231.11,231.11,0,0,0-23-100.76A366.13,366.13,0,0,1,413.62,173Z"/><path class="cls-1" d="M366,101.58a499.44,499.44,0,0,1-52.32,7.68,582.22,582.22,0,0,1,10,63.34,571.46,571.46,0,0,0,70-11.42A248.36,248.36,0,0,0,366,101.58Z"/><path class="cls-1" d="M315.85,31.83c21.44,11.74,40.81,29.53,57,52a279.88,279.88,0,0,0,28.81-8.34A231.41,231.41,0,0,0,315.85,31.83Z"/><path class="cls-1" d="M186.82,188.62a576.42,576.42,0,0,1-73-11.8A318,318,0,0,0,104,256h80C184,233.5,185,210.73,186.82,188.62Z"/><path class="cls-1" d="M129.78,97.88A265.38,265.38,0,0,1,96.71,87.42,232.92,232.92,0,0,0,54.54,141a364.51,364.51,0,0,0,48.38,16.34A268.59,268.59,0,0,1,129.78,97.88Z"/></svg>