<svg id="katman_1" data-name="katman 1" xmlns="http://www.w3.org/2000/svg" xmlns:xlink="http://www.w3.org/1999/xlink" viewBox="0 0 512 512"><defs><style>.cls-1{fill:url(#Adsız_degrade);}.cls-2{fill:url(#Adsız_degrade_2);}</style><linearGradient id="Adsız_degrade" x1="255.7" y1="-12" x2="255.7" y2="500" gradientTransform="translate(0 12)" gradientUnits="userSpaceOnUse"><stop offset="0" stop-color="#e9eb00"/><stop offset="0.77" stop-color="#e2ac00"/></linearGradient><linearGradient id="Adsız_degrade_2" x1="257.79" y1="129.9" x2="257.79" y2="349.67" xlink:href="#Adsız_degrade"/></defs><title>whatsapp</title><path class="cls-1" d="M435.9,74.4a255.79,255.79,0,0,0-360.6-.1C26.8,122.3.1,186.1,0,253.6v.1H0c0,40.9,10.8,82.2,31.2,119.8L.7,512l140-31.8a255.68,255.68,0,0,0,114.9,27.3h.1a255,255,0,0,0,180.4-74.3c48.5-48,75.3-111.7,75.3-179.3C511.5,186.7,484.7,122.9,435.9,74.4ZM255.7,467.5h0a216.44,216.44,0,0,1-102.8-26l-6.6-3.6L53.2,459.1l20.2-91.9-3.9-6.7C50.2,327,40,290.1,40,253.7,40,135.9,136.8,40,255.7,40a214.17,214.17,0,0,1,152,62.7c41.2,41,63.8,94.7,63.8,151.2C471.5,371.6,374.7,467.5,255.7,467.5Z"/><path class="cls-2" d="M186.2,141.9H175a21.74,21.74,0,0,0-15.6,7.3c-5.4,5.8-20.5,19.9-20.5,48.6s21,56.4,23.9,60.3,40.5,64.6,99.9,88c49.4,19.4,59.5,15.6,70.2,14.6s34.6-14.1,39.5-27.7,4.9-25.3,3.4-27.7-5.4-3.9-11.2-6.8-34.5-17.3-39.9-19.2-9.3-2.9-13.2,2.9-15.4,19.3-18.8,23.2-6.8,4.4-12.7,1.5-24.5-9.2-46.8-29.1c-17.4-15.5-29.5-35.2-32.9-41s-.4-9,2.6-11.9c2.6-2.6,6.2-6.2,9.1-9.6s3.8-5.8,5.7-9.7,1-7.3-.5-10.2-12.7-31.8-17.9-43.3h0C194.9,142.4,190.3,142,186.2,141.9Z"/></svg>